<?xml version="1.0" encoding="utf-8" standalone="no"?>
<!DOCTYPE svg PUBLIC "-//W3C//DTD SVG 1.1//EN"
  "http://www.w3.org/Graphics/SVG/1.1/DTD/svg11.dtd">
<svg xmlns:xlink="http://www.w3.org/1999/xlink" width="468pt" height="324pt" viewBox="0 0 468 324" xmlns="http://www.w3.org/2000/svg" version="1.1">
 <metadata>
  <rdf:RDF xmlns:dc="http://purl.org/dc/elements/1.1/" xmlns:cc="http://creativecommons.org/ns#" xmlns:rdf="http://www.w3.org/1999/02/22-rdf-syntax-ns#">
   <cc:Work>
    <dc:type rdf:resource="http://purl.org/dc/dcmitype/StillImage"/>
    <dc:date>2025-02-26T10:28:50.376416</dc:date>
    <dc:format>image/svg+xml</dc:format>
    <dc:creator>
     <cc:Agent>
      <dc:title>Matplotlib v3.10.0, https://matplotlib.org/</dc:title>
     </cc:Agent>
    </dc:creator>
   </cc:Work>
  </rdf:RDF>
 </metadata>
 <defs>
  <style type="text/css">*{stroke-linejoin: round; stroke-linecap: butt}</style>
 </defs>
 <g id="figure_1">
  <g id="patch_1">
   <path d="M 0 324 
L 468 324 
L 468 0 
L 0 0 
z
" style="fill: #ffffff"/>
  </g>
  <g id="axes_1">
   <g id="patch_2">
    <path d="M 48.8 131.2 
L 225.068802 131.2 
L 225.068802 22.56 
L 48.8 22.56 
z
" style="fill: #ffffff"/>
   </g>
   <g id="matplotlib.axis_1">
    <g id="xtick_1">
     <g id="line2d_1">
      <defs>
       <path id="m8247ce5715" d="M 0 0 
L 0 3.5 
" style="stroke: #000000; stroke-width: 0.8"/>
      </defs>
      <g>
       <use xlink:href="#m8247ce5715" x="48.8" y="131.2" style="stroke: #000000; stroke-width: 0.8"/>
      </g>
     </g>
     <g id="text_1">
      <!-- 0 -->
      <g transform="translate(46.573125 143.518906) scale(0.07 -0.07)">
       <defs>
        <path id="DejaVuSans-30" d="M 2034 4250 
Q 1547 4250 1301 3770 
Q 1056 3291 1056 2328 
Q 1056 1369 1301 889 
Q 1547 409 2034 409 
Q 2525 409 2770 889 
Q 3016 1369 3016 2328 
Q 3016 3291 2770 3770 
Q 2525 4250 2034 4250 
z
M 2034 4750 
Q 2819 4750 3233 4129 
Q 3647 3509 3647 2328 
Q 3647 1150 3233 529 
Q 2819 -91 2034 -91 
Q 1250 -91 836 529 
Q 422 1150 422 2328 
Q 422 3509 836 4129 
Q 1250 4750 2034 4750 
z
" transform="scale(0.015625)"/>
       </defs>
       <use xlink:href="#DejaVuSans-30"/>
      </g>
     </g>
    </g>
    <g id="xtick_2">
     <g id="line2d_2">
      <g>
       <use xlink:href="#m8247ce5715" x="80.528384" y="131.2" style="stroke: #000000; stroke-width: 0.8"/>
      </g>
     </g>
     <g id="text_2">
      <!-- 5000 -->
      <g transform="translate(71.620884 143.518906) scale(0.07 -0.07)">
       <defs>
        <path id="DejaVuSans-35" d="M 691 4666 
L 3169 4666 
L 3169 4134 
L 1269 4134 
L 1269 2991 
Q 1406 3038 1543 3061 
Q 1681 3084 1819 3084 
Q 2600 3084 3056 2656 
Q 3513 2228 3513 1497 
Q 3513 744 3044 326 
Q 2575 -91 1722 -91 
Q 1428 -91 1123 -41 
Q 819 9 494 109 
L 494 744 
Q 775 591 1075 516 
Q 1375 441 1709 441 
Q 2250 441 2565 725 
Q 2881 1009 2881 1497 
Q 2881 1984 2565 2268 
Q 2250 2553 1709 2553 
Q 1456 2553 1204 2497 
Q 953 2441 691 2322 
L 691 4666 
z
" transform="scale(0.015625)"/>
       </defs>
       <use xlink:href="#DejaVuSans-35"/>
       <use xlink:href="#DejaVuSans-30" transform="translate(63.623047 0)"/>
       <use xlink:href="#DejaVuSans-30" transform="translate(127.246094 0)"/>
       <use xlink:href="#DejaVuSans-30" transform="translate(190.869141 0)"/>
      </g>
     </g>
    </g>
    <g id="xtick_3">
     <g id="line2d_3">
      <g>
       <use xlink:href="#m8247ce5715" x="112.256769" y="131.2" style="stroke: #000000; stroke-width: 0.8"/>
      </g>
     </g>
     <g id="text_3">
      <!-- 10000 -->
      <g transform="translate(101.122394 143.518906) scale(0.07 -0.07)">
       <defs>
        <path id="DejaVuSans-31" d="M 794 531 
L 1825 531 
L 1825 4091 
L 703 3866 
L 703 4441 
L 1819 4666 
L 2450 4666 
L 2450 531 
L 3481 531 
L 3481 0 
L 794 0 
L 794 531 
z
" transform="scale(0.015625)"/>
       </defs>
       <use xlink:href="#DejaVuSans-31"/>
       <use xlink:href="#DejaVuSans-30" transform="translate(63.623047 0)"/>
       <use xlink:href="#DejaVuSans-30" transform="translate(127.246094 0)"/>
       <use xlink:href="#DejaVuSans-30" transform="translate(190.869141 0)"/>
       <use xlink:href="#DejaVuSans-30" transform="translate(254.492188 0)"/>
      </g>
     </g>
    </g>
    <g id="xtick_4">
     <g id="line2d_4">
      <g>
       <use xlink:href="#m8247ce5715" x="143.985153" y="131.2" style="stroke: #000000; stroke-width: 0.8"/>
      </g>
     </g>
     <g id="text_4">
      <!-- 15000 -->
      <g transform="translate(132.850778 143.518906) scale(0.07 -0.07)">
       <use xlink:href="#DejaVuSans-31"/>
       <use xlink:href="#DejaVuSans-35" transform="translate(63.623047 0)"/>
       <use xlink:href="#DejaVuSans-30" transform="translate(127.246094 0)"/>
       <use xlink:href="#DejaVuSans-30" transform="translate(190.869141 0)"/>
       <use xlink:href="#DejaVuSans-30" transform="translate(254.492188 0)"/>
      </g>
     </g>
    </g>
    <g id="xtick_5">
     <g id="line2d_5">
      <g>
       <use xlink:href="#m8247ce5715" x="175.713537" y="131.2" style="stroke: #000000; stroke-width: 0.8"/>
      </g>
     </g>
     <g id="text_5">
      <!-- 20000 -->
      <g transform="translate(164.579162 143.518906) scale(0.07 -0.07)">
       <defs>
        <path id="DejaVuSans-32" d="M 1228 531 
L 3431 531 
L 3431 0 
L 469 0 
L 469 531 
Q 828 903 1448 1529 
Q 2069 2156 2228 2338 
Q 2531 2678 2651 2914 
Q 2772 3150 2772 3378 
Q 2772 3750 2511 3984 
Q 2250 4219 1831 4219 
Q 1534 4219 1204 4116 
Q 875 4013 500 3803 
L 500 4441 
Q 881 4594 1212 4672 
Q 1544 4750 1819 4750 
Q 2544 4750 2975 4387 
Q 3406 4025 3406 3419 
Q 3406 3131 3298 2873 
Q 3191 2616 2906 2266 
Q 2828 2175 2409 1742 
Q 1991 1309 1228 531 
z
" transform="scale(0.015625)"/>
       </defs>
       <use xlink:href="#DejaVuSans-32"/>
       <use xlink:href="#DejaVuSans-30" transform="translate(63.623047 0)"/>
       <use xlink:href="#DejaVuSans-30" transform="translate(127.246094 0)"/>
       <use xlink:href="#DejaVuSans-30" transform="translate(190.869141 0)"/>
       <use xlink:href="#DejaVuSans-30" transform="translate(254.492188 0)"/>
      </g>
     </g>
    </g>
    <g id="xtick_6">
     <g id="line2d_6">
      <g>
       <use xlink:href="#m8247ce5715" x="207.441921" y="131.2" style="stroke: #000000; stroke-width: 0.8"/>
      </g>
     </g>
     <g id="text_6">
      <!-- 25000 -->
      <g transform="translate(196.307546 143.518906) scale(0.07 -0.07)">
       <use xlink:href="#DejaVuSans-32"/>
       <use xlink:href="#DejaVuSans-35" transform="translate(63.623047 0)"/>
       <use xlink:href="#DejaVuSans-30" transform="translate(127.246094 0)"/>
       <use xlink:href="#DejaVuSans-30" transform="translate(190.869141 0)"/>
       <use xlink:href="#DejaVuSans-30" transform="translate(254.492188 0)"/>
      </g>
     </g>
    </g>
    <g id="text_7">
     <!-- Generations ago -->
     <g transform="translate(103.826901 155.053438) scale(0.08 -0.08)">
      <defs>
       <path id="DejaVuSans-47" d="M 3809 666 
L 3809 1919 
L 2778 1919 
L 2778 2438 
L 4434 2438 
L 4434 434 
Q 4069 175 3628 42 
Q 3188 -91 2688 -91 
Q 1594 -91 976 548 
Q 359 1188 359 2328 
Q 359 3472 976 4111 
Q 1594 4750 2688 4750 
Q 3144 4750 3555 4637 
Q 3966 4525 4313 4306 
L 4313 3634 
Q 3963 3931 3569 4081 
Q 3175 4231 2741 4231 
Q 1884 4231 1454 3753 
Q 1025 3275 1025 2328 
Q 1025 1384 1454 906 
Q 1884 428 2741 428 
Q 3075 428 3337 486 
Q 3600 544 3809 666 
z
" transform="scale(0.015625)"/>
       <path id="DejaVuSans-65" d="M 3597 1894 
L 3597 1613 
L 953 1613 
Q 991 1019 1311 708 
Q 1631 397 2203 397 
Q 2534 397 2845 478 
Q 3156 559 3463 722 
L 3463 178 
Q 3153 47 2828 -22 
Q 2503 -91 2169 -91 
Q 1331 -91 842 396 
Q 353 884 353 1716 
Q 353 2575 817 3079 
Q 1281 3584 2069 3584 
Q 2775 3584 3186 3129 
Q 3597 2675 3597 1894 
z
M 3022 2063 
Q 3016 2534 2758 2815 
Q 2500 3097 2075 3097 
Q 1594 3097 1305 2825 
Q 1016 2553 972 2059 
L 3022 2063 
z
" transform="scale(0.015625)"/>
       <path id="DejaVuSans-6e" d="M 3513 2113 
L 3513 0 
L 2938 0 
L 2938 2094 
Q 2938 2591 2744 2837 
Q 2550 3084 2163 3084 
Q 1697 3084 1428 2787 
Q 1159 2491 1159 1978 
L 1159 0 
L 581 0 
L 581 3500 
L 1159 3500 
L 1159 2956 
Q 1366 3272 1645 3428 
Q 1925 3584 2291 3584 
Q 2894 3584 3203 3211 
Q 3513 2838 3513 2113 
z
" transform="scale(0.015625)"/>
       <path id="DejaVuSans-72" d="M 2631 2963 
Q 2534 3019 2420 3045 
Q 2306 3072 2169 3072 
Q 1681 3072 1420 2755 
Q 1159 2438 1159 1844 
L 1159 0 
L 581 0 
L 581 3500 
L 1159 3500 
L 1159 2956 
Q 1341 3275 1631 3429 
Q 1922 3584 2338 3584 
Q 2397 3584 2469 3576 
Q 2541 3569 2628 3553 
L 2631 2963 
z
" transform="scale(0.015625)"/>
       <path id="DejaVuSans-61" d="M 2194 1759 
Q 1497 1759 1228 1600 
Q 959 1441 959 1056 
Q 959 750 1161 570 
Q 1363 391 1709 391 
Q 2188 391 2477 730 
Q 2766 1069 2766 1631 
L 2766 1759 
L 2194 1759 
z
M 3341 1997 
L 3341 0 
L 2766 0 
L 2766 531 
Q 2569 213 2275 61 
Q 1981 -91 1556 -91 
Q 1019 -91 701 211 
Q 384 513 384 1019 
Q 384 1609 779 1909 
Q 1175 2209 1959 2209 
L 2766 2209 
L 2766 2266 
Q 2766 2663 2505 2880 
Q 2244 3097 1772 3097 
Q 1472 3097 1187 3025 
Q 903 2953 641 2809 
L 641 3341 
Q 956 3463 1253 3523 
Q 1550 3584 1831 3584 
Q 2591 3584 2966 3190 
Q 3341 2797 3341 1997 
z
" transform="scale(0.015625)"/>
       <path id="DejaVuSans-74" d="M 1172 4494 
L 1172 3500 
L 2356 3500 
L 2356 3053 
L 1172 3053 
L 1172 1153 
Q 1172 725 1289 603 
Q 1406 481 1766 481 
L 2356 481 
L 2356 0 
L 1766 0 
Q 1100 0 847 248 
Q 594 497 594 1153 
L 594 3053 
L 172 3053 
L 172 3500 
L 594 3500 
L 594 4494 
L 1172 4494 
z
" transform="scale(0.015625)"/>
       <path id="DejaVuSans-69" d="M 603 3500 
L 1178 3500 
L 1178 0 
L 603 0 
L 603 3500 
z
M 603 4863 
L 1178 4863 
L 1178 4134 
L 603 4134 
L 603 4863 
z
" transform="scale(0.015625)"/>
       <path id="DejaVuSans-6f" d="M 1959 3097 
Q 1497 3097 1228 2736 
Q 959 2375 959 1747 
Q 959 1119 1226 758 
Q 1494 397 1959 397 
Q 2419 397 2687 759 
Q 2956 1122 2956 1747 
Q 2956 2369 2687 2733 
Q 2419 3097 1959 3097 
z
M 1959 3584 
Q 2709 3584 3137 3096 
Q 3566 2609 3566 1747 
Q 3566 888 3137 398 
Q 2709 -91 1959 -91 
Q 1206 -91 779 398 
Q 353 888 353 1747 
Q 353 2609 779 3096 
Q 1206 3584 1959 3584 
z
" transform="scale(0.015625)"/>
       <path id="DejaVuSans-73" d="M 2834 3397 
L 2834 2853 
Q 2591 2978 2328 3040 
Q 2066 3103 1784 3103 
Q 1356 3103 1142 2972 
Q 928 2841 928 2578 
Q 928 2378 1081 2264 
Q 1234 2150 1697 2047 
L 1894 2003 
Q 2506 1872 2764 1633 
Q 3022 1394 3022 966 
Q 3022 478 2636 193 
Q 2250 -91 1575 -91 
Q 1294 -91 989 -36 
Q 684 19 347 128 
L 347 722 
Q 666 556 975 473 
Q 1284 391 1588 391 
Q 1994 391 2212 530 
Q 2431 669 2431 922 
Q 2431 1156 2273 1281 
Q 2116 1406 1581 1522 
L 1381 1569 
Q 847 1681 609 1914 
Q 372 2147 372 2553 
Q 372 3047 722 3315 
Q 1072 3584 1716 3584 
Q 2034 3584 2315 3537 
Q 2597 3491 2834 3397 
z
" transform="scale(0.015625)"/>
       <path id="DejaVuSans-20" transform="scale(0.015625)"/>
       <path id="DejaVuSans-67" d="M 2906 1791 
Q 2906 2416 2648 2759 
Q 2391 3103 1925 3103 
Q 1463 3103 1205 2759 
Q 947 2416 947 1791 
Q 947 1169 1205 825 
Q 1463 481 1925 481 
Q 2391 481 2648 825 
Q 2906 1169 2906 1791 
z
M 3481 434 
Q 3481 -459 3084 -895 
Q 2688 -1331 1869 -1331 
Q 1566 -1331 1297 -1286 
Q 1028 -1241 775 -1147 
L 775 -588 
Q 1028 -725 1275 -790 
Q 1522 -856 1778 -856 
Q 2344 -856 2625 -561 
Q 2906 -266 2906 331 
L 2906 616 
Q 2728 306 2450 153 
Q 2172 0 1784 0 
Q 1141 0 747 490 
Q 353 981 353 1791 
Q 353 2603 747 3093 
Q 1141 3584 1784 3584 
Q 2172 3584 2450 3431 
Q 2728 3278 2906 2969 
L 2906 3500 
L 3481 3500 
L 3481 434 
z
" transform="scale(0.015625)"/>
      </defs>
      <use xlink:href="#DejaVuSans-47"/>
      <use xlink:href="#DejaVuSans-65" transform="translate(77.490234 0)"/>
      <use xlink:href="#DejaVuSans-6e" transform="translate(139.013672 0)"/>
      <use xlink:href="#DejaVuSans-65" transform="translate(202.392578 0)"/>
      <use xlink:href="#DejaVuSans-72" transform="translate(263.916016 0)"/>
      <use xlink:href="#DejaVuSans-61" transform="translate(305.029297 0)"/>
      <use xlink:href="#DejaVuSans-74" transform="translate(366.308594 0)"/>
      <use xlink:href="#DejaVuSans-69" transform="translate(405.517578 0)"/>
      <use xlink:href="#DejaVuSans-6f" transform="translate(433.300781 0)"/>
      <use xlink:href="#DejaVuSans-6e" transform="translate(494.482422 0)"/>
      <use xlink:href="#DejaVuSans-73" transform="translate(557.861328 0)"/>
      <use xlink:href="#DejaVuSans-20" transform="translate(609.960938 0)"/>
      <use xlink:href="#DejaVuSans-61" transform="translate(641.748047 0)"/>
      <use xlink:href="#DejaVuSans-67" transform="translate(703.027344 0)"/>
      <use xlink:href="#DejaVuSans-6f" transform="translate(766.503906 0)"/>
     </g>
    </g>
   </g>
   <g id="matplotlib.axis_2">
    <g id="ytick_1">
     <g id="line2d_7">
      <defs>
       <path id="m32d204e706" d="M 0 0 
L -3.5 0 
" style="stroke: #000000; stroke-width: 0.8"/>
      </defs>
      <g>
       <use xlink:href="#m32d204e706" x="48.8" y="131.2" style="stroke: #000000; stroke-width: 0.8"/>
      </g>
     </g>
     <g id="text_8">
      <!-- 0 -->
      <g transform="translate(37.34625 133.859453) scale(0.07 -0.07)">
       <use xlink:href="#DejaVuSans-30"/>
      </g>
     </g>
    </g>
    <g id="ytick_2">
     <g id="line2d_8">
      <g>
       <use xlink:href="#m32d204e706" x="48.8" y="110.407656" style="stroke: #000000; stroke-width: 0.8"/>
      </g>
     </g>
     <g id="text_9">
      <!-- 2000 -->
      <g transform="translate(23.985 113.067109) scale(0.07 -0.07)">
       <use xlink:href="#DejaVuSans-32"/>
       <use xlink:href="#DejaVuSans-30" transform="translate(63.623047 0)"/>
       <use xlink:href="#DejaVuSans-30" transform="translate(127.246094 0)"/>
       <use xlink:href="#DejaVuSans-30" transform="translate(190.869141 0)"/>
      </g>
     </g>
    </g>
    <g id="ytick_3">
     <g id="line2d_9">
      <g>
       <use xlink:href="#m32d204e706" x="48.8" y="89.615311" style="stroke: #000000; stroke-width: 0.8"/>
      </g>
     </g>
     <g id="text_10">
      <!-- 4000 -->
      <g transform="translate(23.985 92.274764) scale(0.07 -0.07)">
       <defs>
        <path id="DejaVuSans-34" d="M 2419 4116 
L 825 1625 
L 2419 1625 
L 2419 4116 
z
M 2253 4666 
L 3047 4666 
L 3047 1625 
L 3713 1625 
L 3713 1100 
L 3047 1100 
L 3047 0 
L 2419 0 
L 2419 1100 
L 313 1100 
L 313 1709 
L 2253 4666 
z
" transform="scale(0.015625)"/>
       </defs>
       <use xlink:href="#DejaVuSans-34"/>
       <use xlink:href="#DejaVuSans-30" transform="translate(63.623047 0)"/>
       <use xlink:href="#DejaVuSans-30" transform="translate(127.246094 0)"/>
       <use xlink:href="#DejaVuSans-30" transform="translate(190.869141 0)"/>
      </g>
     </g>
    </g>
    <g id="ytick_4">
     <g id="line2d_10">
      <g>
       <use xlink:href="#m32d204e706" x="48.8" y="68.822967" style="stroke: #000000; stroke-width: 0.8"/>
      </g>
     </g>
     <g id="text_11">
      <!-- 6000 -->
      <g transform="translate(23.985 71.48242) scale(0.07 -0.07)">
       <defs>
        <path id="DejaVuSans-36" d="M 2113 2584 
Q 1688 2584 1439 2293 
Q 1191 2003 1191 1497 
Q 1191 994 1439 701 
Q 1688 409 2113 409 
Q 2538 409 2786 701 
Q 3034 994 3034 1497 
Q 3034 2003 2786 2293 
Q 2538 2584 2113 2584 
z
M 3366 4563 
L 3366 3988 
Q 3128 4100 2886 4159 
Q 2644 4219 2406 4219 
Q 1781 4219 1451 3797 
Q 1122 3375 1075 2522 
Q 1259 2794 1537 2939 
Q 1816 3084 2150 3084 
Q 2853 3084 3261 2657 
Q 3669 2231 3669 1497 
Q 3669 778 3244 343 
Q 2819 -91 2113 -91 
Q 1303 -91 875 529 
Q 447 1150 447 2328 
Q 447 3434 972 4092 
Q 1497 4750 2381 4750 
Q 2619 4750 2861 4703 
Q 3103 4656 3366 4563 
z
" transform="scale(0.015625)"/>
       </defs>
       <use xlink:href="#DejaVuSans-36"/>
       <use xlink:href="#DejaVuSans-30" transform="translate(63.623047 0)"/>
       <use xlink:href="#DejaVuSans-30" transform="translate(127.246094 0)"/>
       <use xlink:href="#DejaVuSans-30" transform="translate(190.869141 0)"/>
      </g>
     </g>
    </g>
    <g id="ytick_5">
     <g id="line2d_11">
      <g>
       <use xlink:href="#m32d204e706" x="48.8" y="48.030622" style="stroke: #000000; stroke-width: 0.8"/>
      </g>
     </g>
     <g id="text_12">
      <!-- 8000 -->
      <g transform="translate(23.985 50.690075) scale(0.07 -0.07)">
       <defs>
        <path id="DejaVuSans-38" d="M 2034 2216 
Q 1584 2216 1326 1975 
Q 1069 1734 1069 1313 
Q 1069 891 1326 650 
Q 1584 409 2034 409 
Q 2484 409 2743 651 
Q 3003 894 3003 1313 
Q 3003 1734 2745 1975 
Q 2488 2216 2034 2216 
z
M 1403 2484 
Q 997 2584 770 2862 
Q 544 3141 544 3541 
Q 544 4100 942 4425 
Q 1341 4750 2034 4750 
Q 2731 4750 3128 4425 
Q 3525 4100 3525 3541 
Q 3525 3141 3298 2862 
Q 3072 2584 2669 2484 
Q 3125 2378 3379 2068 
Q 3634 1759 3634 1313 
Q 3634 634 3220 271 
Q 2806 -91 2034 -91 
Q 1263 -91 848 271 
Q 434 634 434 1313 
Q 434 1759 690 2068 
Q 947 2378 1403 2484 
z
M 1172 3481 
Q 1172 3119 1398 2916 
Q 1625 2713 2034 2713 
Q 2441 2713 2670 2916 
Q 2900 3119 2900 3481 
Q 2900 3844 2670 4047 
Q 2441 4250 2034 4250 
Q 1625 4250 1398 4047 
Q 1172 3844 1172 3481 
z
" transform="scale(0.015625)"/>
       </defs>
       <use xlink:href="#DejaVuSans-38"/>
       <use xlink:href="#DejaVuSans-30" transform="translate(63.623047 0)"/>
       <use xlink:href="#DejaVuSans-30" transform="translate(127.246094 0)"/>
       <use xlink:href="#DejaVuSans-30" transform="translate(190.869141 0)"/>
      </g>
     </g>
    </g>
    <g id="ytick_6">
     <g id="line2d_12">
      <g>
       <use xlink:href="#m32d204e706" x="48.8" y="27.238278" style="stroke: #000000; stroke-width: 0.8"/>
      </g>
     </g>
     <g id="text_13">
      <!-- 10000 -->
      <g transform="translate(19.53125 29.897731) scale(0.07 -0.07)">
       <use xlink:href="#DejaVuSans-31"/>
       <use xlink:href="#DejaVuSans-30" transform="translate(63.623047 0)"/>
       <use xlink:href="#DejaVuSans-30" transform="translate(127.246094 0)"/>
       <use xlink:href="#DejaVuSans-30" transform="translate(190.869141 0)"/>
       <use xlink:href="#DejaVuSans-30" transform="translate(254.492188 0)"/>
      </g>
     </g>
    </g>
    <g id="text_14">
     <!-- Deme size -->
     <g transform="translate(17.8675 97.805625) rotate(-90) scale(0.08 -0.08)">
      <defs>
       <path id="DejaVuSans-44" d="M 1259 4147 
L 1259 519 
L 2022 519 
Q 2988 519 3436 956 
Q 3884 1394 3884 2338 
Q 3884 3275 3436 3711 
Q 2988 4147 2022 4147 
L 1259 4147 
z
M 628 4666 
L 1925 4666 
Q 3281 4666 3915 4102 
Q 4550 3538 4550 2338 
Q 4550 1131 3912 565 
Q 3275 0 1925 0 
L 628 0 
L 628 4666 
z
" transform="scale(0.015625)"/>
       <path id="DejaVuSans-6d" d="M 3328 2828 
Q 3544 3216 3844 3400 
Q 4144 3584 4550 3584 
Q 5097 3584 5394 3201 
Q 5691 2819 5691 2113 
L 5691 0 
L 5113 0 
L 5113 2094 
Q 5113 2597 4934 2840 
Q 4756 3084 4391 3084 
Q 3944 3084 3684 2787 
Q 3425 2491 3425 1978 
L 3425 0 
L 2847 0 
L 2847 2094 
Q 2847 2600 2669 2842 
Q 2491 3084 2119 3084 
Q 1678 3084 1418 2786 
Q 1159 2488 1159 1978 
L 1159 0 
L 581 0 
L 581 3500 
L 1159 3500 
L 1159 2956 
Q 1356 3278 1631 3431 
Q 1906 3584 2284 3584 
Q 2666 3584 2933 3390 
Q 3200 3197 3328 2828 
z
" transform="scale(0.015625)"/>
       <path id="DejaVuSans-7a" d="M 353 3500 
L 3084 3500 
L 3084 2975 
L 922 459 
L 3084 459 
L 3084 0 
L 275 0 
L 275 525 
L 2438 3041 
L 353 3041 
L 353 3500 
z
" transform="scale(0.015625)"/>
      </defs>
      <use xlink:href="#DejaVuSans-44"/>
      <use xlink:href="#DejaVuSans-65" transform="translate(77.001953 0)"/>
      <use xlink:href="#DejaVuSans-6d" transform="translate(138.525391 0)"/>
      <use xlink:href="#DejaVuSans-65" transform="translate(235.9375 0)"/>
      <use xlink:href="#DejaVuSans-20" transform="translate(297.460938 0)"/>
      <use xlink:href="#DejaVuSans-73" transform="translate(329.248047 0)"/>
      <use xlink:href="#DejaVuSans-69" transform="translate(381.347656 0)"/>
      <use xlink:href="#DejaVuSans-7a" transform="translate(409.130859 0)"/>
      <use xlink:href="#DejaVuSans-65" transform="translate(461.621094 0)"/>
     </g>
    </g>
   </g>
   <g id="patch_3">
    <path d="M 225.068802 27.238278 
L 207.441921 27.238278 
M 207.441921 120.803828 
L 175.713537 120.803828 
M 175.713537 27.238278 
L 143.985153 27.238278 
M 143.985153 120.803828 
L 112.256769 120.803828 
M 112.256769 27.238278 
L 80.528384 27.238278 
M 80.528384 120.803828 
L 48.8 120.803828 
" clip-path="url(#p8d4d93169b)" style="fill: none; opacity: 0.7; stroke: #ffffff; stroke-width: 3; stroke-linejoin: miter"/>
    <path d="M 225.068802 27.238278 
L 207.441921 27.238278 
M 207.441921 120.803828 
L 175.713537 120.803828 
M 175.713537 27.238278 
L 143.985153 27.238278 
M 143.985153 120.803828 
L 112.256769 120.803828 
M 112.256769 27.238278 
L 80.528384 27.238278 
M 80.528384 120.803828 
L 48.8 120.803828 
" clip-path="url(#p8d4d93169b)" style="fill: none; opacity: 0.7; stroke: #1f77b4; stroke-width: 2; stroke-linejoin: miter"/>
   </g>
   <g id="patch_4">
    <path d="M 207.441921 27.238278 
L 207.441921 120.803828 
M 175.713537 120.803828 
L 175.713537 27.238278 
M 143.985153 27.238278 
L 143.985153 120.803828 
M 112.256769 120.803828 
L 112.256769 27.238278 
M 80.528384 27.238278 
L 80.528384 120.803828 
" clip-path="url(#p8d4d93169b)" style="fill: none; opacity: 0.7; stroke-dasharray: 2,3.3; stroke-dashoffset: 0; stroke: #ffffff; stroke-width: 3; stroke-linejoin: miter"/>
    <path d="M 207.441921 27.238278 
L 207.441921 120.803828 
M 175.713537 120.803828 
L 175.713537 27.238278 
M 143.985153 27.238278 
L 143.985153 120.803828 
M 112.256769 120.803828 
L 112.256769 27.238278 
M 80.528384 27.238278 
L 80.528384 120.803828 
" clip-path="url(#p8d4d93169b)" style="fill: none; opacity: 0.7; stroke-dasharray: 2,3.3; stroke-dashoffset: 0; stroke: #1f77b4; stroke-width: 2; stroke-linejoin: miter"/>
   </g>
   <g id="line2d_13">
    <defs>
     <path id="maa9b0cea53" d="M 3 0 
L -3 -3 
L -3 3 
z
" style="stroke: #1f77b4; stroke-linejoin: miter"/>
    </defs>
    <g>
     <use xlink:href="#maa9b0cea53" x="225.068802" y="27.238278" style="fill: #1f77b4; stroke: #1f77b4; stroke-linejoin: miter"/>
    </g>
   </g>
   <g id="patch_5">
    <path d="M 48.8 131.2 
L 48.8 22.56 
" style="fill: none; stroke: #000000; stroke-width: 0.8; stroke-linejoin: miter; stroke-linecap: square"/>
   </g>
   <g id="patch_6">
    <path d="M 48.8 131.2 
L 225.068802 131.2 
" style="fill: none; stroke: #000000; stroke-width: 0.8; stroke-linejoin: miter; stroke-linecap: square"/>
   </g>
  </g>
  <g id="axes_2">
   <g id="patch_7">
    <path d="M 277.4 131.2 
L 453.668802 131.2 
L 453.668802 22.56 
L 277.4 22.56 
z
" style="fill: #ffffff"/>
   </g>
   <g id="matplotlib.axis_3">
    <g id="xtick_7">
     <g id="line2d_14">
      <g>
       <use xlink:href="#m8247ce5715" x="285.412218" y="131.2" style="stroke: #000000; stroke-width: 0.8"/>
      </g>
     </g>
     <g id="text_15">
      <!-- 0 -->
      <g transform="translate(283.185343 143.518906) scale(0.07 -0.07)">
       <use xlink:href="#DejaVuSans-30"/>
      </g>
     </g>
    </g>
    <g id="xtick_8">
     <g id="line2d_15">
      <g>
       <use xlink:href="#m8247ce5715" x="312.119612" y="131.2" style="stroke: #000000; stroke-width: 0.8"/>
      </g>
     </g>
     <g id="text_16">
      <!-- 5000 -->
      <g transform="translate(303.212112 143.518906) scale(0.07 -0.07)">
       <use xlink:href="#DejaVuSans-35"/>
       <use xlink:href="#DejaVuSans-30" transform="translate(63.623047 0)"/>
       <use xlink:href="#DejaVuSans-30" transform="translate(127.246094 0)"/>
       <use xlink:href="#DejaVuSans-30" transform="translate(190.869141 0)"/>
      </g>
     </g>
    </g>
    <g id="xtick_9">
     <g id="line2d_16">
      <g>
       <use xlink:href="#m8247ce5715" x="338.827007" y="131.2" style="stroke: #000000; stroke-width: 0.8"/>
      </g>
     </g>
     <g id="text_17">
      <!-- 10000 -->
      <g transform="translate(327.692632 143.518906) scale(0.07 -0.07)">
       <use xlink:href="#DejaVuSans-31"/>
       <use xlink:href="#DejaVuSans-30" transform="translate(63.623047 0)"/>
       <use xlink:href="#DejaVuSans-30" transform="translate(127.246094 0)"/>
       <use xlink:href="#DejaVuSans-30" transform="translate(190.869141 0)"/>
       <use xlink:href="#DejaVuSans-30" transform="translate(254.492188 0)"/>
      </g>
     </g>
    </g>
    <g id="xtick_10">
     <g id="line2d_17">
      <g>
       <use xlink:href="#m8247ce5715" x="365.534401" y="131.2" style="stroke: #000000; stroke-width: 0.8"/>
      </g>
     </g>
     <g id="text_18">
      <!-- 15000 -->
      <g transform="translate(354.400026 143.518906) scale(0.07 -0.07)">
       <use xlink:href="#DejaVuSans-31"/>
       <use xlink:href="#DejaVuSans-35" transform="translate(63.623047 0)"/>
       <use xlink:href="#DejaVuSans-30" transform="translate(127.246094 0)"/>
       <use xlink:href="#DejaVuSans-30" transform="translate(190.869141 0)"/>
       <use xlink:href="#DejaVuSans-30" transform="translate(254.492188 0)"/>
      </g>
     </g>
    </g>
    <g id="xtick_11">
     <g id="line2d_18">
      <g>
       <use xlink:href="#m8247ce5715" x="392.241795" y="131.2" style="stroke: #000000; stroke-width: 0.8"/>
      </g>
     </g>
     <g id="text_19">
      <!-- 20000 -->
      <g transform="translate(381.10742 143.518906) scale(0.07 -0.07)">
       <use xlink:href="#DejaVuSans-32"/>
       <use xlink:href="#DejaVuSans-30" transform="translate(63.623047 0)"/>
       <use xlink:href="#DejaVuSans-30" transform="translate(127.246094 0)"/>
       <use xlink:href="#DejaVuSans-30" transform="translate(190.869141 0)"/>
       <use xlink:href="#DejaVuSans-30" transform="translate(254.492188 0)"/>
      </g>
     </g>
    </g>
    <g id="xtick_12">
     <g id="line2d_19">
      <g>
       <use xlink:href="#m8247ce5715" x="418.949189" y="131.2" style="stroke: #000000; stroke-width: 0.8"/>
      </g>
     </g>
     <g id="text_20">
      <!-- 25000 -->
      <g transform="translate(407.814814 143.518906) scale(0.07 -0.07)">
       <use xlink:href="#DejaVuSans-32"/>
       <use xlink:href="#DejaVuSans-35" transform="translate(63.623047 0)"/>
       <use xlink:href="#DejaVuSans-30" transform="translate(127.246094 0)"/>
       <use xlink:href="#DejaVuSans-30" transform="translate(190.869141 0)"/>
       <use xlink:href="#DejaVuSans-30" transform="translate(254.492188 0)"/>
      </g>
     </g>
    </g>
    <g id="xtick_13">
     <g id="line2d_20">
      <g>
       <use xlink:href="#m8247ce5715" x="445.656583" y="131.2" style="stroke: #000000; stroke-width: 0.8"/>
      </g>
     </g>
     <g id="text_21">
      <!-- 30000 -->
      <g transform="translate(434.522208 143.518906) scale(0.07 -0.07)">
       <defs>
        <path id="DejaVuSans-33" d="M 2597 2516 
Q 3050 2419 3304 2112 
Q 3559 1806 3559 1356 
Q 3559 666 3084 287 
Q 2609 -91 1734 -91 
Q 1441 -91 1130 -33 
Q 819 25 488 141 
L 488 750 
Q 750 597 1062 519 
Q 1375 441 1716 441 
Q 2309 441 2620 675 
Q 2931 909 2931 1356 
Q 2931 1769 2642 2001 
Q 2353 2234 1838 2234 
L 1294 2234 
L 1294 2753 
L 1863 2753 
Q 2328 2753 2575 2939 
Q 2822 3125 2822 3475 
Q 2822 3834 2567 4026 
Q 2313 4219 1838 4219 
Q 1578 4219 1281 4162 
Q 984 4106 628 3988 
L 628 4550 
Q 988 4650 1302 4700 
Q 1616 4750 1894 4750 
Q 2613 4750 3031 4423 
Q 3450 4097 3450 3541 
Q 3450 3153 3228 2886 
Q 3006 2619 2597 2516 
z
" transform="scale(0.015625)"/>
       </defs>
       <use xlink:href="#DejaVuSans-33"/>
       <use xlink:href="#DejaVuSans-30" transform="translate(63.623047 0)"/>
       <use xlink:href="#DejaVuSans-30" transform="translate(127.246094 0)"/>
       <use xlink:href="#DejaVuSans-30" transform="translate(190.869141 0)"/>
       <use xlink:href="#DejaVuSans-30" transform="translate(254.492188 0)"/>
      </g>
     </g>
    </g>
    <g id="text_22">
     <!-- Generations ago -->
     <g transform="translate(332.426901 155.053438) scale(0.08 -0.08)">
      <use xlink:href="#DejaVuSans-47"/>
      <use xlink:href="#DejaVuSans-65" transform="translate(77.490234 0)"/>
      <use xlink:href="#DejaVuSans-6e" transform="translate(139.013672 0)"/>
      <use xlink:href="#DejaVuSans-65" transform="translate(202.392578 0)"/>
      <use xlink:href="#DejaVuSans-72" transform="translate(263.916016 0)"/>
      <use xlink:href="#DejaVuSans-61" transform="translate(305.029297 0)"/>
      <use xlink:href="#DejaVuSans-74" transform="translate(366.308594 0)"/>
      <use xlink:href="#DejaVuSans-69" transform="translate(405.517578 0)"/>
      <use xlink:href="#DejaVuSans-6f" transform="translate(433.300781 0)"/>
      <use xlink:href="#DejaVuSans-6e" transform="translate(494.482422 0)"/>
      <use xlink:href="#DejaVuSans-73" transform="translate(557.861328 0)"/>
      <use xlink:href="#DejaVuSans-20" transform="translate(609.960938 0)"/>
      <use xlink:href="#DejaVuSans-61" transform="translate(641.748047 0)"/>
      <use xlink:href="#DejaVuSans-67" transform="translate(703.027344 0)"/>
      <use xlink:href="#DejaVuSans-6f" transform="translate(766.503906 0)"/>
     </g>
    </g>
   </g>
   <g id="matplotlib.axis_4">
    <g id="ytick_7">
     <g id="line2d_21">
      <g>
       <use xlink:href="#m32d204e706" x="277.4" y="120.677956" style="stroke: #000000; stroke-width: 0.8"/>
      </g>
     </g>
     <g id="text_23">
      <!-- 0.990 -->
      <g transform="translate(250.360312 123.337409) scale(0.07 -0.07)">
       <defs>
        <path id="DejaVuSans-2e" d="M 684 794 
L 1344 794 
L 1344 0 
L 684 0 
L 684 794 
z
" transform="scale(0.015625)"/>
        <path id="DejaVuSans-39" d="M 703 97 
L 703 672 
Q 941 559 1184 500 
Q 1428 441 1663 441 
Q 2288 441 2617 861 
Q 2947 1281 2994 2138 
Q 2813 1869 2534 1725 
Q 2256 1581 1919 1581 
Q 1219 1581 811 2004 
Q 403 2428 403 3163 
Q 403 3881 828 4315 
Q 1253 4750 1959 4750 
Q 2769 4750 3195 4129 
Q 3622 3509 3622 2328 
Q 3622 1225 3098 567 
Q 2575 -91 1691 -91 
Q 1453 -91 1209 -44 
Q 966 3 703 97 
z
M 1959 2075 
Q 2384 2075 2632 2365 
Q 2881 2656 2881 3163 
Q 2881 3666 2632 3958 
Q 2384 4250 1959 4250 
Q 1534 4250 1286 3958 
Q 1038 3666 1038 3163 
Q 1038 2656 1286 2365 
Q 1534 2075 1959 2075 
z
" transform="scale(0.015625)"/>
       </defs>
       <use xlink:href="#DejaVuSans-30"/>
       <use xlink:href="#DejaVuSans-2e" transform="translate(63.623047 0)"/>
       <use xlink:href="#DejaVuSans-39" transform="translate(95.410156 0)"/>
       <use xlink:href="#DejaVuSans-39" transform="translate(159.033203 0)"/>
       <use xlink:href="#DejaVuSans-30" transform="translate(222.65625 0)"/>
      </g>
     </g>
    </g>
    <g id="ytick_8">
     <g id="line2d_22">
      <g>
       <use xlink:href="#m32d204e706" x="277.4" y="95.322699" style="stroke: #000000; stroke-width: 0.8"/>
      </g>
     </g>
     <g id="text_24">
      <!-- 0.992 -->
      <g transform="translate(250.360312 97.982153) scale(0.07 -0.07)">
       <use xlink:href="#DejaVuSans-30"/>
       <use xlink:href="#DejaVuSans-2e" transform="translate(63.623047 0)"/>
       <use xlink:href="#DejaVuSans-39" transform="translate(95.410156 0)"/>
       <use xlink:href="#DejaVuSans-39" transform="translate(159.033203 0)"/>
       <use xlink:href="#DejaVuSans-32" transform="translate(222.65625 0)"/>
      </g>
     </g>
    </g>
    <g id="ytick_9">
     <g id="line2d_23">
      <g>
       <use xlink:href="#m32d204e706" x="277.4" y="69.967443" style="stroke: #000000; stroke-width: 0.8"/>
      </g>
     </g>
     <g id="text_25">
      <!-- 0.994 -->
      <g transform="translate(250.360312 72.626896) scale(0.07 -0.07)">
       <use xlink:href="#DejaVuSans-30"/>
       <use xlink:href="#DejaVuSans-2e" transform="translate(63.623047 0)"/>
       <use xlink:href="#DejaVuSans-39" transform="translate(95.410156 0)"/>
       <use xlink:href="#DejaVuSans-39" transform="translate(159.033203 0)"/>
       <use xlink:href="#DejaVuSans-34" transform="translate(222.65625 0)"/>
      </g>
     </g>
    </g>
    <g id="ytick_10">
     <g id="line2d_24">
      <g>
       <use xlink:href="#m32d204e706" x="277.4" y="44.612187" style="stroke: #000000; stroke-width: 0.8"/>
      </g>
     </g>
     <g id="text_26">
      <!-- 0.996 -->
      <g transform="translate(250.360312 47.27164) scale(0.07 -0.07)">
       <use xlink:href="#DejaVuSans-30"/>
       <use xlink:href="#DejaVuSans-2e" transform="translate(63.623047 0)"/>
       <use xlink:href="#DejaVuSans-39" transform="translate(95.410156 0)"/>
       <use xlink:href="#DejaVuSans-39" transform="translate(159.033203 0)"/>
       <use xlink:href="#DejaVuSans-36" transform="translate(222.65625 0)"/>
      </g>
     </g>
    </g>
    <g id="text_27">
     <!-- B -->
     <g transform="translate(244.696562 79.624375) rotate(-90) scale(0.08 -0.08)">
      <defs>
       <path id="DejaVuSans-42" d="M 1259 2228 
L 1259 519 
L 2272 519 
Q 2781 519 3026 730 
Q 3272 941 3272 1375 
Q 3272 1813 3026 2020 
Q 2781 2228 2272 2228 
L 1259 2228 
z
M 1259 4147 
L 1259 2741 
L 2194 2741 
Q 2656 2741 2882 2914 
Q 3109 3088 3109 3444 
Q 3109 3797 2882 3972 
Q 2656 4147 2194 4147 
L 1259 4147 
z
M 628 4666 
L 2241 4666 
Q 2963 4666 3353 4366 
Q 3744 4066 3744 3513 
Q 3744 3084 3544 2831 
Q 3344 2578 2956 2516 
Q 3422 2416 3680 2098 
Q 3938 1781 3938 1306 
Q 3938 681 3513 340 
Q 3088 0 2303 0 
L 628 0 
L 628 4666 
z
" transform="scale(0.015625)"/>
      </defs>
      <use xlink:href="#DejaVuSans-42"/>
     </g>
    </g>
   </g>
   <g id="line2d_25">
    <path d="M 285.412218 57.146751 
L 445.656583 57.146751 
" clip-path="url(#pae43fcbfed)" style="fill: none; stroke-dasharray: 5.55,2.4; stroke-dashoffset: 0; stroke: #1f77b4; stroke-opacity: 0.5; stroke-width: 1.5"/>
   </g>
   <g id="line2d_26">
    <path d="M 285.412218 51.279327 
L 445.656583 51.279327 
" clip-path="url(#pae43fcbfed)" style="fill: none; stroke-dasharray: 5.55,2.4; stroke-dashoffset: 0; stroke: #ff7f0e; stroke-opacity: 0.5; stroke-width: 1.5"/>
   </g>
   <g id="line2d_27">
    <path d="M 285.412218 75.026727 
L 287.495395 76.020869 
L 289.258083 76.618819 
L 290.700282 76.886822 
L 291.982237 76.919024 
L 293.264192 76.722854 
L 294.385903 76.337193 
L 295.507613 75.72793 
L 296.629324 74.872758 
L 297.751034 73.750347 
L 299.032989 72.115005 
L 300.314944 70.078463 
L 301.596899 67.618812 
L 303.039098 64.325421 
L 304.481298 60.460801 
L 306.083741 55.491494 
L 307.846429 49.214971 
L 309.769362 41.437529 
L 311.852539 31.994073 
L 312.173027 30.940343 
L 314.736937 32.371141 
L 316.980358 33.868381 
L 319.063535 35.506563 
L 321.146712 37.432819 
L 323.069644 39.519939 
L 324.832332 41.748407 
L 326.59502 44.342083 
L 328.197464 47.083847 
L 329.799907 50.271177 
L 331.242107 53.603841 
L 332.684306 57.475342 
L 334.126505 62.011934 
L 335.40846 66.738062 
L 336.690415 72.281157 
L 337.97237 78.855566 
L 338.933836 83.88031 
L 341.497746 86.368044 
L 343.420678 87.947053 
L 345.023122 88.98557 
L 346.465321 89.642685 
L 347.747276 89.961485 
L 348.868987 90.004951 
L 349.990697 89.803056 
L 350.952164 89.417084 
L 351.91363 88.820168 
L 353.03534 87.840692 
L 354.157051 86.540103 
L 355.278761 84.904354 
L 356.560716 82.61115 
L 357.842671 79.856762 
L 359.284871 76.203165 
L 360.887314 71.461571 
L 362.489758 66.023438 
L 364.252446 59.27913 
L 365.534401 54.117657 
L 367.938066 56.648422 
L 370.181487 59.330873 
L 372.424909 62.376331 
L 374.508085 65.585853 
L 376.591262 69.228691 
L 378.514194 73.044954 
L 380.437127 77.377256 
L 382.199815 81.885641 
L 383.962503 87.005569 
L 385.725191 92.857278 
L 387.327634 98.940633 
L 388.930078 105.903425 
L 390.532522 113.936481 
L 391.974721 122.286467 
L 392.29521 123.906415 
L 393.41692 124.97065 
L 394.538631 125.73162 
L 395.500097 126.12387 
L 396.461563 126.261818 
L 397.262785 126.174213 
L 398.064007 125.8966 
L 399.025473 125.306651 
L 399.986939 124.431647 
L 400.948406 123.268708 
L 402.070116 121.547468 
L 403.352071 119.103833 
L 404.634026 116.162485 
L 406.076225 112.279541 
L 407.678669 107.289458 
L 409.441357 101.038735 
L 411.364289 93.397822 
L 413.60771 83.536659 
L 416.17162 71.222239 
L 419.056019 57.146751 
L 445.656583 57.146751 
L 445.656583 57.146751 
" clip-path="url(#pae43fcbfed)" style="fill: none; stroke: #1f77b4; stroke-width: 1.5; stroke-linecap: square"/>
   </g>
   <g id="line2d_28">
    <path d="M 285.412218 67.462328 
L 287.655639 68.419333 
L 289.418327 68.937066 
L 291.020771 69.166211 
L 292.46297 69.127779 
L 293.744925 68.862899 
L 295.02688 68.348775 
L 296.148591 67.670445 
L 297.270301 66.758159 
L 298.552256 65.405292 
L 299.834211 63.697537 
L 301.116166 61.613488 
L 302.558365 58.798269 
L 304.000565 55.469252 
L 305.603008 51.159225 
L 307.205452 46.209706 
L 308.96814 40.047829 
L 310.891072 32.516008 
L 312.173027 27.498182 
L 314.736937 28.794438 
L 317.140603 30.256929 
L 319.384024 31.885529 
L 321.4672 33.67569 
L 323.390133 35.617068 
L 325.152821 37.692004 
L 326.915509 40.10979 
L 328.517952 42.668979 
L 330.120396 45.648484 
L 331.562595 48.768996 
L 333.004795 52.400723 
L 334.446994 56.665566 
L 335.728949 61.119243 
L 337.010904 66.356735 
L 338.292859 72.588319 
L 338.933836 75.483954 
L 341.65799 77.864662 
L 343.580923 79.269394 
L 345.183366 80.181871 
L 346.625566 80.746012 
L 347.907521 81.002575 
L 349.029231 81.01028 
L 350.150942 80.792612 
L 351.272652 80.328761 
L 352.394363 79.599584 
L 353.516073 78.588097 
L 354.637784 77.279928 
L 355.919739 75.407132 
L 357.201694 73.120331 
L 358.643893 70.045806 
L 360.086092 66.440911 
L 361.688536 61.825997 
L 363.451224 56.039386 
L 365.534401 48.497898 
L 367.938066 50.790904 
L 370.181487 53.221437 
L 372.424909 55.980991 
L 374.508085 58.889314 
L 376.591262 62.190412 
L 378.514194 65.648797 
L 380.437127 69.574981 
L 382.199815 73.660905 
L 383.962503 78.30126 
L 385.725191 83.60509 
L 387.327634 89.119142 
L 388.930078 95.430649 
L 390.532522 102.712722 
L 391.974721 110.282559 
L 392.29521 111.755213 
L 393.577165 112.835268 
L 394.698875 113.483559 
L 395.660341 113.801302 
L 396.621808 113.886773 
L 397.583274 113.729951 
L 398.54474 113.322842 
L 399.506206 112.659583 
L 400.467672 111.73648 
L 401.589383 110.329199 
L 402.711094 108.56745 
L 403.993048 106.126387 
L 405.435248 102.850402 
L 407.037691 98.582639 
L 408.800379 93.175745 
L 410.723312 86.50334 
L 412.806489 78.470387 
L 415.210154 68.317538 
L 418.094553 55.124727 
L 418.895774 51.331547 
L 419.376508 51.279327 
L 445.656583 51.279327 
L 445.656583 51.279327 
" clip-path="url(#pae43fcbfed)" style="fill: none; stroke: #ff7f0e; stroke-width: 1.5; stroke-linecap: square"/>
   </g>
   <g id="patch_8">
    <path d="M 277.4 131.2 
L 277.4 22.56 
" style="fill: none; stroke: #000000; stroke-width: 0.8; stroke-linejoin: miter; stroke-linecap: square"/>
   </g>
   <g id="patch_9">
    <path d="M 453.668802 131.2 
L 453.668802 22.56 
" style="fill: none; stroke: #000000; stroke-width: 0.8; stroke-linejoin: miter; stroke-linecap: square"/>
   </g>
   <g id="patch_10">
    <path d="M 277.4 131.2 
L 453.668802 131.2 
" style="fill: none; stroke: #000000; stroke-width: 0.8; stroke-linejoin: miter; stroke-linecap: square"/>
   </g>
   <g id="patch_11">
    <path d="M 277.4 22.56 
L 453.668802 22.56 
" style="fill: none; stroke: #000000; stroke-width: 0.8; stroke-linejoin: miter; stroke-linecap: square"/>
   </g>
   <g id="text_28">
    <!-- s=-0.2 -->
    <g transform="translate(352.294401 16.56) scale(0.08 -0.08)">
     <defs>
      <path id="DejaVuSans-3d" d="M 678 2906 
L 4684 2906 
L 4684 2381 
L 678 2381 
L 678 2906 
z
M 678 1631 
L 4684 1631 
L 4684 1100 
L 678 1100 
L 678 1631 
z
" transform="scale(0.015625)"/>
      <path id="DejaVuSans-2d" d="M 313 2009 
L 1997 2009 
L 1997 1497 
L 313 1497 
L 313 2009 
z
" transform="scale(0.015625)"/>
     </defs>
     <use xlink:href="#DejaVuSans-73"/>
     <use xlink:href="#DejaVuSans-3d" transform="translate(52.099609 0)"/>
     <use xlink:href="#DejaVuSans-2d" transform="translate(135.888672 0)"/>
     <use xlink:href="#DejaVuSans-30" transform="translate(171.972656 0)"/>
     <use xlink:href="#DejaVuSans-2e" transform="translate(235.595703 0)"/>
     <use xlink:href="#DejaVuSans-32" transform="translate(267.382812 0)"/>
    </g>
   </g>
   <g id="legend_1">
    <g id="patch_12">
     <path d="M 405.465364 44.97375 
L 449.468802 44.97375 
Q 450.668802 44.97375 450.668802 43.77375 
L 450.668802 26.76 
Q 450.668802 25.56 449.468802 25.56 
L 405.465364 25.56 
Q 404.265364 25.56 404.265364 26.76 
L 404.265364 43.77375 
Q 404.265364 44.97375 405.465364 44.97375 
z
" style="fill: #ffffff; opacity: 0.8; stroke: #cccccc; stroke-linejoin: miter"/>
    </g>
    <g id="line2d_29">
     <path d="M 406.665364 30.419063 
L 412.665364 30.419063 
L 418.665364 30.419063 
" style="fill: none; stroke: #1f77b4; stroke-width: 1.5; stroke-linecap: square"/>
    </g>
    <g id="text_29">
     <!-- r=1e-06 -->
     <g transform="translate(423.465364 32.519063) scale(0.06 -0.06)">
      <use xlink:href="#DejaVuSans-72"/>
      <use xlink:href="#DejaVuSans-3d" transform="translate(41.113281 0)"/>
      <use xlink:href="#DejaVuSans-31" transform="translate(124.902344 0)"/>
      <use xlink:href="#DejaVuSans-65" transform="translate(188.525391 0)"/>
      <use xlink:href="#DejaVuSans-2d" transform="translate(250.048828 0)"/>
      <use xlink:href="#DejaVuSans-30" transform="translate(286.132812 0)"/>
      <use xlink:href="#DejaVuSans-36" transform="translate(349.755859 0)"/>
     </g>
    </g>
    <g id="line2d_30">
     <path d="M 406.665364 39.225938 
L 412.665364 39.225938 
L 418.665364 39.225938 
" style="fill: none; stroke: #ff7f0e; stroke-width: 1.5; stroke-linecap: square"/>
    </g>
    <g id="text_30">
     <!-- r=0.01 -->
     <g transform="translate(423.465364 41.325938) scale(0.06 -0.06)">
      <use xlink:href="#DejaVuSans-72"/>
      <use xlink:href="#DejaVuSans-3d" transform="translate(41.113281 0)"/>
      <use xlink:href="#DejaVuSans-30" transform="translate(124.902344 0)"/>
      <use xlink:href="#DejaVuSans-2e" transform="translate(188.525391 0)"/>
      <use xlink:href="#DejaVuSans-30" transform="translate(220.3125 0)"/>
      <use xlink:href="#DejaVuSans-31" transform="translate(283.935547 0)"/>
     </g>
    </g>
   </g>
  </g>
  <g id="axes_3">
   <g id="patch_13">
    <path d="M 48.8 287.8 
L 225.068802 287.8 
L 225.068802 179.16 
L 48.8 179.16 
z
" style="fill: #ffffff"/>
   </g>
   <g id="matplotlib.axis_5">
    <g id="xtick_14">
     <g id="line2d_31">
      <g>
       <use xlink:href="#m8247ce5715" x="56.812218" y="287.8" style="stroke: #000000; stroke-width: 0.8"/>
      </g>
     </g>
     <g id="text_31">
      <!-- 0 -->
      <g transform="translate(54.585343 300.118906) scale(0.07 -0.07)">
       <use xlink:href="#DejaVuSans-30"/>
      </g>
     </g>
    </g>
    <g id="xtick_15">
     <g id="line2d_32">
      <g>
       <use xlink:href="#m8247ce5715" x="83.519612" y="287.8" style="stroke: #000000; stroke-width: 0.8"/>
      </g>
     </g>
     <g id="text_32">
      <!-- 5000 -->
      <g transform="translate(74.612112 300.118906) scale(0.07 -0.07)">
       <use xlink:href="#DejaVuSans-35"/>
       <use xlink:href="#DejaVuSans-30" transform="translate(63.623047 0)"/>
       <use xlink:href="#DejaVuSans-30" transform="translate(127.246094 0)"/>
       <use xlink:href="#DejaVuSans-30" transform="translate(190.869141 0)"/>
      </g>
     </g>
    </g>
    <g id="xtick_16">
     <g id="line2d_33">
      <g>
       <use xlink:href="#m8247ce5715" x="110.227007" y="287.8" style="stroke: #000000; stroke-width: 0.8"/>
      </g>
     </g>
     <g id="text_33">
      <!-- 10000 -->
      <g transform="translate(99.092632 300.118906) scale(0.07 -0.07)">
       <use xlink:href="#DejaVuSans-31"/>
       <use xlink:href="#DejaVuSans-30" transform="translate(63.623047 0)"/>
       <use xlink:href="#DejaVuSans-30" transform="translate(127.246094 0)"/>
       <use xlink:href="#DejaVuSans-30" transform="translate(190.869141 0)"/>
       <use xlink:href="#DejaVuSans-30" transform="translate(254.492188 0)"/>
      </g>
     </g>
    </g>
    <g id="xtick_17">
     <g id="line2d_34">
      <g>
       <use xlink:href="#m8247ce5715" x="136.934401" y="287.8" style="stroke: #000000; stroke-width: 0.8"/>
      </g>
     </g>
     <g id="text_34">
      <!-- 15000 -->
      <g transform="translate(125.800026 300.118906) scale(0.07 -0.07)">
       <use xlink:href="#DejaVuSans-31"/>
       <use xlink:href="#DejaVuSans-35" transform="translate(63.623047 0)"/>
       <use xlink:href="#DejaVuSans-30" transform="translate(127.246094 0)"/>
       <use xlink:href="#DejaVuSans-30" transform="translate(190.869141 0)"/>
       <use xlink:href="#DejaVuSans-30" transform="translate(254.492188 0)"/>
      </g>
     </g>
    </g>
    <g id="xtick_18">
     <g id="line2d_35">
      <g>
       <use xlink:href="#m8247ce5715" x="163.641795" y="287.8" style="stroke: #000000; stroke-width: 0.8"/>
      </g>
     </g>
     <g id="text_35">
      <!-- 20000 -->
      <g transform="translate(152.50742 300.118906) scale(0.07 -0.07)">
       <use xlink:href="#DejaVuSans-32"/>
       <use xlink:href="#DejaVuSans-30" transform="translate(63.623047 0)"/>
       <use xlink:href="#DejaVuSans-30" transform="translate(127.246094 0)"/>
       <use xlink:href="#DejaVuSans-30" transform="translate(190.869141 0)"/>
       <use xlink:href="#DejaVuSans-30" transform="translate(254.492188 0)"/>
      </g>
     </g>
    </g>
    <g id="xtick_19">
     <g id="line2d_36">
      <g>
       <use xlink:href="#m8247ce5715" x="190.349189" y="287.8" style="stroke: #000000; stroke-width: 0.8"/>
      </g>
     </g>
     <g id="text_36">
      <!-- 25000 -->
      <g transform="translate(179.214814 300.118906) scale(0.07 -0.07)">
       <use xlink:href="#DejaVuSans-32"/>
       <use xlink:href="#DejaVuSans-35" transform="translate(63.623047 0)"/>
       <use xlink:href="#DejaVuSans-30" transform="translate(127.246094 0)"/>
       <use xlink:href="#DejaVuSans-30" transform="translate(190.869141 0)"/>
       <use xlink:href="#DejaVuSans-30" transform="translate(254.492188 0)"/>
      </g>
     </g>
    </g>
    <g id="xtick_20">
     <g id="line2d_37">
      <g>
       <use xlink:href="#m8247ce5715" x="217.056583" y="287.8" style="stroke: #000000; stroke-width: 0.8"/>
      </g>
     </g>
     <g id="text_37">
      <!-- 30000 -->
      <g transform="translate(205.922208 300.118906) scale(0.07 -0.07)">
       <use xlink:href="#DejaVuSans-33"/>
       <use xlink:href="#DejaVuSans-30" transform="translate(63.623047 0)"/>
       <use xlink:href="#DejaVuSans-30" transform="translate(127.246094 0)"/>
       <use xlink:href="#DejaVuSans-30" transform="translate(190.869141 0)"/>
       <use xlink:href="#DejaVuSans-30" transform="translate(254.492188 0)"/>
      </g>
     </g>
    </g>
    <g id="text_38">
     <!-- Generations ago -->
     <g transform="translate(103.826901 311.653437) scale(0.08 -0.08)">
      <use xlink:href="#DejaVuSans-47"/>
      <use xlink:href="#DejaVuSans-65" transform="translate(77.490234 0)"/>
      <use xlink:href="#DejaVuSans-6e" transform="translate(139.013672 0)"/>
      <use xlink:href="#DejaVuSans-65" transform="translate(202.392578 0)"/>
      <use xlink:href="#DejaVuSans-72" transform="translate(263.916016 0)"/>
      <use xlink:href="#DejaVuSans-61" transform="translate(305.029297 0)"/>
      <use xlink:href="#DejaVuSans-74" transform="translate(366.308594 0)"/>
      <use xlink:href="#DejaVuSans-69" transform="translate(405.517578 0)"/>
      <use xlink:href="#DejaVuSans-6f" transform="translate(433.300781 0)"/>
      <use xlink:href="#DejaVuSans-6e" transform="translate(494.482422 0)"/>
      <use xlink:href="#DejaVuSans-73" transform="translate(557.861328 0)"/>
      <use xlink:href="#DejaVuSans-20" transform="translate(609.960938 0)"/>
      <use xlink:href="#DejaVuSans-61" transform="translate(641.748047 0)"/>
      <use xlink:href="#DejaVuSans-67" transform="translate(703.027344 0)"/>
      <use xlink:href="#DejaVuSans-6f" transform="translate(766.503906 0)"/>
     </g>
    </g>
   </g>
   <g id="matplotlib.axis_6">
    <g id="ytick_11">
     <g id="line2d_38">
      <g>
       <use xlink:href="#m32d204e706" x="48.8" y="279.861363" style="stroke: #000000; stroke-width: 0.8"/>
      </g>
     </g>
     <g id="text_39">
      <!-- 0.96 -->
      <g transform="translate(26.214063 282.520816) scale(0.07 -0.07)">
       <use xlink:href="#DejaVuSans-30"/>
       <use xlink:href="#DejaVuSans-2e" transform="translate(63.623047 0)"/>
       <use xlink:href="#DejaVuSans-39" transform="translate(95.410156 0)"/>
       <use xlink:href="#DejaVuSans-36" transform="translate(159.033203 0)"/>
      </g>
     </g>
    </g>
    <g id="ytick_12">
     <g id="line2d_39">
      <g>
       <use xlink:href="#m32d204e706" x="48.8" y="249.844292" style="stroke: #000000; stroke-width: 0.8"/>
      </g>
     </g>
     <g id="text_40">
      <!-- 0.97 -->
      <g transform="translate(26.214063 252.503745) scale(0.07 -0.07)">
       <defs>
        <path id="DejaVuSans-37" d="M 525 4666 
L 3525 4666 
L 3525 4397 
L 1831 0 
L 1172 0 
L 2766 4134 
L 525 4134 
L 525 4666 
z
" transform="scale(0.015625)"/>
       </defs>
       <use xlink:href="#DejaVuSans-30"/>
       <use xlink:href="#DejaVuSans-2e" transform="translate(63.623047 0)"/>
       <use xlink:href="#DejaVuSans-39" transform="translate(95.410156 0)"/>
       <use xlink:href="#DejaVuSans-37" transform="translate(159.033203 0)"/>
      </g>
     </g>
    </g>
    <g id="ytick_13">
     <g id="line2d_40">
      <g>
       <use xlink:href="#m32d204e706" x="48.8" y="219.827221" style="stroke: #000000; stroke-width: 0.8"/>
      </g>
     </g>
     <g id="text_41">
      <!-- 0.98 -->
      <g transform="translate(26.214063 222.486674) scale(0.07 -0.07)">
       <use xlink:href="#DejaVuSans-30"/>
       <use xlink:href="#DejaVuSans-2e" transform="translate(63.623047 0)"/>
       <use xlink:href="#DejaVuSans-39" transform="translate(95.410156 0)"/>
       <use xlink:href="#DejaVuSans-38" transform="translate(159.033203 0)"/>
      </g>
     </g>
    </g>
    <g id="ytick_14">
     <g id="line2d_41">
      <g>
       <use xlink:href="#m32d204e706" x="48.8" y="189.81015" style="stroke: #000000; stroke-width: 0.8"/>
      </g>
     </g>
     <g id="text_42">
      <!-- 0.99 -->
      <g transform="translate(26.214063 192.469603) scale(0.07 -0.07)">
       <use xlink:href="#DejaVuSans-30"/>
       <use xlink:href="#DejaVuSans-2e" transform="translate(63.623047 0)"/>
       <use xlink:href="#DejaVuSans-39" transform="translate(95.410156 0)"/>
       <use xlink:href="#DejaVuSans-39" transform="translate(159.033203 0)"/>
      </g>
     </g>
    </g>
    <g id="text_43">
     <!-- B -->
     <g transform="translate(20.550313 236.224375) rotate(-90) scale(0.08 -0.08)">
      <use xlink:href="#DejaVuSans-42"/>
     </g>
    </g>
   </g>
   <g id="line2d_42">
    <path d="M 56.812218 219.287427 
L 217.056583 219.287427 
" clip-path="url(#p81270e00f8)" style="fill: none; stroke-dasharray: 5.55,2.4; stroke-dashoffset: 0; stroke: #1f77b4; stroke-opacity: 0.5; stroke-width: 1.5"/>
   </g>
   <g id="line2d_43">
    <path d="M 56.812218 201.221562 
L 217.056583 201.221562 
" clip-path="url(#p81270e00f8)" style="fill: none; stroke-dasharray: 5.55,2.4; stroke-dashoffset: 0; stroke: #ff7f0e; stroke-opacity: 0.5; stroke-width: 1.5"/>
   </g>
   <g id="line2d_44">
    <path d="M 56.812218 235.837322 
L 58.895395 236.745962 
L 60.658083 237.286928 
L 62.100282 237.522662 
L 63.542482 237.52753 
L 64.824437 237.302529 
L 66.106391 236.828729 
L 67.228102 236.185197 
L 68.349813 235.306322 
L 69.471523 234.172455 
L 70.753478 232.541148 
L 72.035433 230.529164 
L 73.317388 228.116723 
L 74.759587 224.90575 
L 76.201786 221.156404 
L 77.80423 216.355027 
L 79.566918 210.311822 
L 81.48985 202.844886 
L 83.412783 194.831775 
L 83.733272 194.907433 
L 86.297181 196.27471 
L 88.700847 197.816706 
L 90.944268 199.533328 
L 93.027445 201.419832 
L 94.950377 203.465372 
L 96.713065 205.651403 
L 98.475753 208.198459 
L 100.078197 210.894373 
L 101.68064 214.033023 
L 103.12284 217.320256 
L 104.565039 221.146158 
L 106.007238 225.639306 
L 107.289193 230.331793 
L 108.571148 235.85071 
L 109.853103 242.392791 
L 110.173592 243.790837 
L 110.814569 244.441428 
L 113.218235 246.528848 
L 115.141167 247.917726 
L 116.743611 248.802001 
L 118.025566 249.283516 
L 119.307521 249.526792 
L 120.429231 249.517114 
L 121.550942 249.276178 
L 122.672652 248.782676 
L 123.794363 248.016955 
L 124.916073 246.961513 
L 126.037784 245.601447 
L 127.319739 243.658928 
L 128.601694 241.290516 
L 130.043893 238.108956 
L 131.486092 234.379802 
L 133.088536 229.605279 
L 134.851224 223.615272 
L 136.934401 216.402333 
L 139.338066 218.764225 
L 141.581487 221.266451 
L 143.824909 224.105722 
L 145.908085 227.096105 
L 147.991262 230.48789 
L 149.914194 234.038462 
L 151.837127 238.065781 
L 153.599815 242.25296 
L 155.362503 247.003347 
L 157.125191 252.426461 
L 158.727634 258.057174 
L 160.330078 264.493001 
L 161.932522 271.906275 
L 163.69521 280.757297 
L 164.977165 281.834706 
L 166.098875 282.4761 
L 167.060341 282.784417 
L 168.021808 282.857119 
L 168.983274 282.684072 
L 169.94474 282.257156 
L 170.906206 281.570353 
L 171.867672 280.619798 
L 172.989383 279.17528 
L 174.111094 277.370341 
L 175.393048 274.872116 
L 176.835248 271.521097 
L 178.437691 267.155494 
L 180.200379 261.621801 
L 182.123312 254.786138 
L 184.206489 246.544586 
L 186.610154 236.107156 
L 189.494553 222.50764 
L 190.13553 219.50025 
L 190.295774 219.208152 
L 190.616263 219.287427 
L 217.056583 219.287427 
L 217.056583 219.287427 
" clip-path="url(#p81270e00f8)" style="fill: none; stroke: #1f77b4; stroke-width: 1.5; stroke-linecap: square"/>
   </g>
   <g id="line2d_45">
    <path d="M 56.812218 212.315454 
L 59.376128 213.020112 
L 61.29906 213.335413 
L 63.061748 213.40404 
L 64.664192 213.237402 
L 66.106391 212.86539 
L 67.548591 212.251523 
L 68.99079 211.366483 
L 70.432989 210.183134 
L 71.875189 208.677666 
L 73.317388 206.830668 
L 74.759587 204.628049 
L 76.362031 201.753985 
L 77.964474 198.429196 
L 79.727162 194.261029 
L 81.650095 189.13062 
L 83.412783 184.098182 
L 84.05376 184.278001 
L 86.938159 185.365304 
L 89.662313 186.632874 
L 92.065979 187.994911 
L 94.3094 189.523885 
L 96.392576 191.22119 
L 98.315509 193.083129 
L 100.078197 195.099026 
L 101.68064 197.249047 
L 103.283084 199.773721 
L 104.725283 202.443261 
L 106.167483 205.583529 
L 107.449438 208.868985 
L 108.731393 212.740671 
L 110.333836 217.872528 
L 113.218235 219.569062 
L 115.301412 220.559329 
L 117.0641 221.167264 
L 118.666543 221.48378 
L 120.108742 221.537209 
L 121.390697 221.373121 
L 122.672652 220.987198 
L 123.954607 220.359564 
L 125.236562 219.472876 
L 126.518517 218.31291 
L 127.800472 216.869041 
L 129.242671 214.897162 
L 130.684871 212.55429 
L 132.287314 209.520098 
L 134.050002 205.674333 
L 135.972935 200.905569 
L 136.774156 198.849998 
L 136.934401 198.835321 
L 139.658555 200.678051 
L 142.222465 202.683968 
L 144.62613 204.850738 
L 146.869551 207.17169 
L 148.952728 209.634688 
L 151.035905 212.451706 
L 152.958837 215.427713 
L 154.88177 218.837465 
L 156.644458 222.421718 
L 158.407146 226.537311 
L 160.009589 230.837432 
L 161.612033 235.786347 
L 163.214477 241.529395 
L 163.69521 242.991805 
L 164.977165 243.725085 
L 166.25912 244.207062 
L 167.38083 244.405195 
L 168.502541 244.381469 
L 169.624251 244.125837 
L 170.745962 243.630883 
L 171.867672 242.891914 
L 173.149627 241.746201 
L 174.431582 240.280624 
L 175.873782 238.25655 
L 177.315981 235.848276 
L 178.918424 232.744509 
L 180.681113 228.846224 
L 182.764289 223.64777 
L 185.00771 217.422748 
L 187.57162 209.641232 
L 190.295774 201.143612 
L 190.616263 201.221562 
L 217.056583 201.221562 
L 217.056583 201.221562 
" clip-path="url(#p81270e00f8)" style="fill: none; stroke: #ff7f0e; stroke-width: 1.5; stroke-linecap: square"/>
   </g>
   <g id="patch_14">
    <path d="M 48.8 287.8 
L 48.8 179.16 
" style="fill: none; stroke: #000000; stroke-width: 0.8; stroke-linejoin: miter; stroke-linecap: square"/>
   </g>
   <g id="patch_15">
    <path d="M 225.068802 287.8 
L 225.068802 179.16 
" style="fill: none; stroke: #000000; stroke-width: 0.8; stroke-linejoin: miter; stroke-linecap: square"/>
   </g>
   <g id="patch_16">
    <path d="M 48.8 287.8 
L 225.068802 287.8 
" style="fill: none; stroke: #000000; stroke-width: 0.8; stroke-linejoin: miter; stroke-linecap: square"/>
   </g>
   <g id="patch_17">
    <path d="M 48.8 179.16 
L 225.068802 179.16 
" style="fill: none; stroke: #000000; stroke-width: 0.8; stroke-linejoin: miter; stroke-linecap: square"/>
   </g>
   <g id="text_44">
    <!-- s=-0.05 -->
    <g transform="translate(121.149401 173.16) scale(0.08 -0.08)">
     <use xlink:href="#DejaVuSans-73"/>
     <use xlink:href="#DejaVuSans-3d" transform="translate(52.099609 0)"/>
     <use xlink:href="#DejaVuSans-2d" transform="translate(135.888672 0)"/>
     <use xlink:href="#DejaVuSans-30" transform="translate(171.972656 0)"/>
     <use xlink:href="#DejaVuSans-2e" transform="translate(235.595703 0)"/>
     <use xlink:href="#DejaVuSans-30" transform="translate(267.382812 0)"/>
     <use xlink:href="#DejaVuSans-35" transform="translate(331.005859 0)"/>
    </g>
   </g>
  </g>
  <g id="axes_4">
   <g id="patch_18">
    <path d="M 277.4 287.8 
L 453.668802 287.8 
L 453.668802 179.16 
L 277.4 179.16 
z
" style="fill: #ffffff"/>
   </g>
   <g id="matplotlib.axis_7">
    <g id="xtick_21">
     <g id="line2d_46">
      <g>
       <use xlink:href="#m8247ce5715" x="285.412218" y="287.8" style="stroke: #000000; stroke-width: 0.8"/>
      </g>
     </g>
     <g id="text_45">
      <!-- 0 -->
      <g transform="translate(283.185343 300.118906) scale(0.07 -0.07)">
       <use xlink:href="#DejaVuSans-30"/>
      </g>
     </g>
    </g>
    <g id="xtick_22">
     <g id="line2d_47">
      <g>
       <use xlink:href="#m8247ce5715" x="312.119612" y="287.8" style="stroke: #000000; stroke-width: 0.8"/>
      </g>
     </g>
     <g id="text_46">
      <!-- 5000 -->
      <g transform="translate(303.212112 300.118906) scale(0.07 -0.07)">
       <use xlink:href="#DejaVuSans-35"/>
       <use xlink:href="#DejaVuSans-30" transform="translate(63.623047 0)"/>
       <use xlink:href="#DejaVuSans-30" transform="translate(127.246094 0)"/>
       <use xlink:href="#DejaVuSans-30" transform="translate(190.869141 0)"/>
      </g>
     </g>
    </g>
    <g id="xtick_23">
     <g id="line2d_48">
      <g>
       <use xlink:href="#m8247ce5715" x="338.827007" y="287.8" style="stroke: #000000; stroke-width: 0.8"/>
      </g>
     </g>
     <g id="text_47">
      <!-- 10000 -->
      <g transform="translate(327.692632 300.118906) scale(0.07 -0.07)">
       <use xlink:href="#DejaVuSans-31"/>
       <use xlink:href="#DejaVuSans-30" transform="translate(63.623047 0)"/>
       <use xlink:href="#DejaVuSans-30" transform="translate(127.246094 0)"/>
       <use xlink:href="#DejaVuSans-30" transform="translate(190.869141 0)"/>
       <use xlink:href="#DejaVuSans-30" transform="translate(254.492188 0)"/>
      </g>
     </g>
    </g>
    <g id="xtick_24">
     <g id="line2d_49">
      <g>
       <use xlink:href="#m8247ce5715" x="365.534401" y="287.8" style="stroke: #000000; stroke-width: 0.8"/>
      </g>
     </g>
     <g id="text_48">
      <!-- 15000 -->
      <g transform="translate(354.400026 300.118906) scale(0.07 -0.07)">
       <use xlink:href="#DejaVuSans-31"/>
       <use xlink:href="#DejaVuSans-35" transform="translate(63.623047 0)"/>
       <use xlink:href="#DejaVuSans-30" transform="translate(127.246094 0)"/>
       <use xlink:href="#DejaVuSans-30" transform="translate(190.869141 0)"/>
       <use xlink:href="#DejaVuSans-30" transform="translate(254.492188 0)"/>
      </g>
     </g>
    </g>
    <g id="xtick_25">
     <g id="line2d_50">
      <g>
       <use xlink:href="#m8247ce5715" x="392.241795" y="287.8" style="stroke: #000000; stroke-width: 0.8"/>
      </g>
     </g>
     <g id="text_49">
      <!-- 20000 -->
      <g transform="translate(381.10742 300.118906) scale(0.07 -0.07)">
       <use xlink:href="#DejaVuSans-32"/>
       <use xlink:href="#DejaVuSans-30" transform="translate(63.623047 0)"/>
       <use xlink:href="#DejaVuSans-30" transform="translate(127.246094 0)"/>
       <use xlink:href="#DejaVuSans-30" transform="translate(190.869141 0)"/>
       <use xlink:href="#DejaVuSans-30" transform="translate(254.492188 0)"/>
      </g>
     </g>
    </g>
    <g id="xtick_26">
     <g id="line2d_51">
      <g>
       <use xlink:href="#m8247ce5715" x="418.949189" y="287.8" style="stroke: #000000; stroke-width: 0.8"/>
      </g>
     </g>
     <g id="text_50">
      <!-- 25000 -->
      <g transform="translate(407.814814 300.118906) scale(0.07 -0.07)">
       <use xlink:href="#DejaVuSans-32"/>
       <use xlink:href="#DejaVuSans-35" transform="translate(63.623047 0)"/>
       <use xlink:href="#DejaVuSans-30" transform="translate(127.246094 0)"/>
       <use xlink:href="#DejaVuSans-30" transform="translate(190.869141 0)"/>
       <use xlink:href="#DejaVuSans-30" transform="translate(254.492188 0)"/>
      </g>
     </g>
    </g>
    <g id="xtick_27">
     <g id="line2d_52">
      <g>
       <use xlink:href="#m8247ce5715" x="445.656583" y="287.8" style="stroke: #000000; stroke-width: 0.8"/>
      </g>
     </g>
     <g id="text_51">
      <!-- 30000 -->
      <g transform="translate(434.522208 300.118906) scale(0.07 -0.07)">
       <use xlink:href="#DejaVuSans-33"/>
       <use xlink:href="#DejaVuSans-30" transform="translate(63.623047 0)"/>
       <use xlink:href="#DejaVuSans-30" transform="translate(127.246094 0)"/>
       <use xlink:href="#DejaVuSans-30" transform="translate(190.869141 0)"/>
       <use xlink:href="#DejaVuSans-30" transform="translate(254.492188 0)"/>
      </g>
     </g>
    </g>
    <g id="text_52">
     <!-- Generations ago -->
     <g transform="translate(332.426901 311.653437) scale(0.08 -0.08)">
      <use xlink:href="#DejaVuSans-47"/>
      <use xlink:href="#DejaVuSans-65" transform="translate(77.490234 0)"/>
      <use xlink:href="#DejaVuSans-6e" transform="translate(139.013672 0)"/>
      <use xlink:href="#DejaVuSans-65" transform="translate(202.392578 0)"/>
      <use xlink:href="#DejaVuSans-72" transform="translate(263.916016 0)"/>
      <use xlink:href="#DejaVuSans-61" transform="translate(305.029297 0)"/>
      <use xlink:href="#DejaVuSans-74" transform="translate(366.308594 0)"/>
      <use xlink:href="#DejaVuSans-69" transform="translate(405.517578 0)"/>
      <use xlink:href="#DejaVuSans-6f" transform="translate(433.300781 0)"/>
      <use xlink:href="#DejaVuSans-6e" transform="translate(494.482422 0)"/>
      <use xlink:href="#DejaVuSans-73" transform="translate(557.861328 0)"/>
      <use xlink:href="#DejaVuSans-20" transform="translate(609.960938 0)"/>
      <use xlink:href="#DejaVuSans-61" transform="translate(641.748047 0)"/>
      <use xlink:href="#DejaVuSans-67" transform="translate(703.027344 0)"/>
      <use xlink:href="#DejaVuSans-6f" transform="translate(766.503906 0)"/>
     </g>
    </g>
   </g>
   <g id="matplotlib.axis_8">
    <g id="ytick_15">
     <g id="line2d_53">
      <g>
       <use xlink:href="#m32d204e706" x="277.4" y="262.201326" style="stroke: #000000; stroke-width: 0.8"/>
      </g>
     </g>
     <g id="text_53">
      <!-- 0.85 -->
      <g transform="translate(254.814062 264.86078) scale(0.07 -0.07)">
       <use xlink:href="#DejaVuSans-30"/>
       <use xlink:href="#DejaVuSans-2e" transform="translate(63.623047 0)"/>
       <use xlink:href="#DejaVuSans-38" transform="translate(95.410156 0)"/>
       <use xlink:href="#DejaVuSans-35" transform="translate(159.033203 0)"/>
      </g>
     </g>
    </g>
    <g id="ytick_16">
     <g id="line2d_54">
      <g>
       <use xlink:href="#m32d204e706" x="277.4" y="233.63202" style="stroke: #000000; stroke-width: 0.8"/>
      </g>
     </g>
     <g id="text_54">
      <!-- 0.90 -->
      <g transform="translate(254.814062 236.291473) scale(0.07 -0.07)">
       <use xlink:href="#DejaVuSans-30"/>
       <use xlink:href="#DejaVuSans-2e" transform="translate(63.623047 0)"/>
       <use xlink:href="#DejaVuSans-39" transform="translate(95.410156 0)"/>
       <use xlink:href="#DejaVuSans-30" transform="translate(159.033203 0)"/>
      </g>
     </g>
    </g>
    <g id="ytick_17">
     <g id="line2d_55">
      <g>
       <use xlink:href="#m32d204e706" x="277.4" y="205.062713" style="stroke: #000000; stroke-width: 0.8"/>
      </g>
     </g>
     <g id="text_55">
      <!-- 0.95 -->
      <g transform="translate(254.814062 207.722166) scale(0.07 -0.07)">
       <use xlink:href="#DejaVuSans-30"/>
       <use xlink:href="#DejaVuSans-2e" transform="translate(63.623047 0)"/>
       <use xlink:href="#DejaVuSans-39" transform="translate(95.410156 0)"/>
       <use xlink:href="#DejaVuSans-35" transform="translate(159.033203 0)"/>
      </g>
     </g>
    </g>
    <g id="text_56">
     <!-- B -->
     <g transform="translate(249.150312 236.224375) rotate(-90) scale(0.08 -0.08)">
      <use xlink:href="#DejaVuSans-42"/>
     </g>
    </g>
   </g>
   <g id="line2d_56">
    <path d="M 285.412218 231.117725 
L 445.656583 231.117725 
" clip-path="url(#p41f3bcfdd9)" style="fill: none; stroke-dasharray: 5.55,2.4; stroke-dashoffset: 0; stroke: #1f77b4; stroke-opacity: 0.5; stroke-width: 1.5"/>
   </g>
   <g id="line2d_57">
    <path d="M 285.412218 190.583243 
L 445.656583 190.583243 
" clip-path="url(#p41f3bcfdd9)" style="fill: none; stroke-dasharray: 5.55,2.4; stroke-dashoffset: 0; stroke: #ff7f0e; stroke-opacity: 0.5; stroke-width: 1.5"/>
   </g>
   <g id="line2d_58">
    <path d="M 285.412218 245.018372 
L 287.655639 245.768907 
L 289.418327 246.140857 
L 291.020771 246.256999 
L 292.46297 246.138015 
L 293.744925 245.822148 
L 295.02688 245.27958 
L 296.308835 244.482458 
L 297.59079 243.403548 
L 298.872745 242.016948 
L 300.1547 240.298807 
L 301.436655 238.228023 
L 302.878854 235.454956 
L 304.321053 232.193984 
L 305.923497 227.983728 
L 307.525941 223.150589 
L 309.288629 217.141748 
L 311.211561 210.479309 
L 311.692294 209.553571 
L 311.852539 209.483708 
L 315.858648 211.514026 
L 318.262313 213.059504 
L 320.505734 214.777998 
L 322.588911 216.66513 
L 324.511843 218.710458 
L 326.274531 220.895854 
L 328.037219 223.442211 
L 329.639663 226.137906 
L 331.242107 229.277417 
L 332.684306 232.56717 
L 334.126505 236.39803 
L 335.568705 240.89426 
L 337.010904 246.137362 
L 338.292859 250.64538 
L 338.773592 251.54201 
L 339.414569 252.060158 
L 341.818235 253.701116 
L 343.741167 254.759476 
L 345.343611 255.399466 
L 346.78581 255.738783 
L 348.067765 255.817453 
L 349.34972 255.65607 
L 350.471431 255.295735 
L 351.593141 254.712046 
L 352.714852 253.888343 
L 353.836562 252.809618 
L 355.118517 251.247893 
L 356.400472 249.320276 
L 357.842671 246.700044 
L 359.284871 243.592349 
L 360.887314 239.565453 
L 362.650002 234.465725 
L 364.572935 228.770932 
L 365.053668 228.024896 
L 365.213912 227.998359 
L 367.457333 229.933413 
L 369.860999 232.235734 
L 372.10442 234.675833 
L 374.347841 237.445871 
L 376.431018 240.364789 
L 378.514194 243.677292 
L 380.437127 247.14683 
L 382.360059 251.084558 
L 384.122747 255.181066 
L 385.885435 259.831428 
L 387.648123 265.143396 
L 389.250567 270.654879 
L 392.134965 281.113428 
L 392.455454 281.535549 
L 393.737409 282.28948 
L 394.85912 282.699996 
L 395.98083 282.860236 
L 396.942296 282.787294 
L 397.903763 282.512068 
L 398.865229 282.028332 
L 399.986939 281.194215 
L 401.10865 280.065011 
L 402.390605 278.410513 
L 403.67256 276.368824 
L 405.114759 273.615557 
L 406.556958 270.391391 
L 408.159402 266.278012 
L 409.92209 261.141707 
L 411.845022 254.858214 
L 414.088443 246.71054 
L 416.972842 235.237293 
L 417.934308 231.781669 
L 418.415041 230.781323 
L 418.575286 230.704712 
L 418.73553 230.817107 
L 418.895774 231.074622 
L 419.376508 231.117725 
L 445.656583 231.117725 
L 445.656583 231.117725 
" clip-path="url(#p41f3bcfdd9)" style="fill: none; stroke: #1f77b4; stroke-width: 1.5; stroke-linecap: square"/>
   </g>
   <g id="line2d_59">
    <path d="M 285.412218 190.976908 
L 289.89906 190.689015 
L 293.584681 190.240399 
L 296.949813 189.611045 
L 300.1547 188.783511 
L 303.359587 187.71821 
L 306.564474 186.420233 
L 310.08985 184.754736 
L 311.53205 184.106676 
L 311.852539 184.148908 
L 312.173027 184.367217 
L 317.941824 184.865089 
L 322.588911 185.485565 
L 326.274531 186.192493 
L 329.319174 186.990282 
L 331.883084 187.879508 
L 334.126505 188.889731 
L 336.049438 189.997792 
L 337.812126 191.27515 
L 338.453103 191.702377 
L 338.933836 191.753939 
L 343.901412 191.678451 
L 347.747276 191.404569 
L 351.112408 190.952161 
L 354.317295 190.303135 
L 357.522183 189.427098 
L 360.887314 188.269226 
L 365.213912 186.732113 
L 365.694645 187.035278 
L 370.982709 187.758948 
L 375.469551 188.591596 
L 379.315416 189.530933 
L 382.520304 190.533945 
L 385.404702 191.67017 
L 387.808368 192.843504 
L 390.051789 194.185694 
L 392.134965 195.496267 
L 393.256676 195.57555 
L 396.461563 195.620335 
L 399.506206 195.447411 
L 402.550849 195.049623 
L 405.595492 194.43047 
L 408.960624 193.511334 
L 412.646244 192.266642 
L 416.972842 190.564378 
L 418.254797 190.104889 
L 418.575286 190.154555 
L 419.216263 190.583243 
L 445.656583 190.583243 
L 445.656583 190.583243 
" clip-path="url(#p41f3bcfdd9)" style="fill: none; stroke: #ff7f0e; stroke-width: 1.5; stroke-linecap: square"/>
   </g>
   <g id="patch_19">
    <path d="M 277.4 287.8 
L 277.4 179.16 
" style="fill: none; stroke: #000000; stroke-width: 0.8; stroke-linejoin: miter; stroke-linecap: square"/>
   </g>
   <g id="patch_20">
    <path d="M 453.668802 287.8 
L 453.668802 179.16 
" style="fill: none; stroke: #000000; stroke-width: 0.8; stroke-linejoin: miter; stroke-linecap: square"/>
   </g>
   <g id="patch_21">
    <path d="M 277.4 287.8 
L 453.668802 287.8 
" style="fill: none; stroke: #000000; stroke-width: 0.8; stroke-linejoin: miter; stroke-linecap: square"/>
   </g>
   <g id="patch_22">
    <path d="M 277.4 179.16 
L 453.668802 179.16 
" style="fill: none; stroke: #000000; stroke-width: 0.8; stroke-linejoin: miter; stroke-linecap: square"/>
   </g>
   <g id="text_57">
    <!-- s=-0.01 -->
    <g transform="translate(349.749401 173.16) scale(0.08 -0.08)">
     <use xlink:href="#DejaVuSans-73"/>
     <use xlink:href="#DejaVuSans-3d" transform="translate(52.099609 0)"/>
     <use xlink:href="#DejaVuSans-2d" transform="translate(135.888672 0)"/>
     <use xlink:href="#DejaVuSans-30" transform="translate(171.972656 0)"/>
     <use xlink:href="#DejaVuSans-2e" transform="translate(235.595703 0)"/>
     <use xlink:href="#DejaVuSans-30" transform="translate(267.382812 0)"/>
     <use xlink:href="#DejaVuSans-31" transform="translate(331.005859 0)"/>
    </g>
   </g>
  </g>
 </g>
 <defs>
  <clipPath id="p8d4d93169b">
   <rect x="48.8" y="22.56" width="176.268802" height="108.64"/>
  </clipPath>
  <clipPath id="pae43fcbfed">
   <rect x="277.4" y="22.56" width="176.268802" height="108.64"/>
  </clipPath>
  <clipPath id="p81270e00f8">
   <rect x="48.8" y="179.16" width="176.268802" height="108.64"/>
  </clipPath>
  <clipPath id="p41f3bcfdd9">
   <rect x="277.4" y="179.16" width="176.268802" height="108.64"/>
  </clipPath>
 </defs>
</svg>
