<?xml version="1.0" encoding="utf-8" standalone="no"?>
<!DOCTYPE svg PUBLIC "-//W3C//DTD SVG 1.1//EN"
  "http://www.w3.org/Graphics/SVG/1.1/DTD/svg11.dtd">
<svg xmlns:xlink="http://www.w3.org/1999/xlink" width="468pt" height="180pt" viewBox="0 0 468 180" xmlns="http://www.w3.org/2000/svg" version="1.1">
 <metadata>
  <rdf:RDF xmlns:dc="http://purl.org/dc/elements/1.1/" xmlns:cc="http://creativecommons.org/ns#" xmlns:rdf="http://www.w3.org/1999/02/22-rdf-syntax-ns#">
   <cc:Work>
    <dc:type rdf:resource="http://purl.org/dc/dcmitype/StillImage"/>
    <dc:date>2025-08-25T15:05:53.184466</dc:date>
    <dc:format>image/svg+xml</dc:format>
    <dc:creator>
     <cc:Agent>
      <dc:title>Matplotlib v3.5.2, https://matplotlib.org/</dc:title>
     </cc:Agent>
    </dc:creator>
   </cc:Work>
  </rdf:RDF>
 </metadata>
 <defs>
  <style type="text/css">*{stroke-linejoin: round; stroke-linecap: butt}</style>
 </defs>
 <g id="figure_1">
  <g id="patch_1">
   <path d="M 0 180 
L 468 180 
L 468 0 
L 0 0 
z
" style="fill: #ffffff"/>
  </g>
  <g id="axes_1">
   <g id="patch_2">
    <path d="M 46.127798 143.8 
L 152.101007 143.8 
L 152.101007 22.56 
L 46.127798 22.56 
z
" style="fill: #ffffff"/>
   </g>
   <g id="line2d_1">
    <path d="M 46.127798 107.026157 
L 152.101007 107.026157 
" clip-path="url(#p74a81b07c9)" style="fill: none; stroke-dasharray: 2.775,1.2; stroke-dashoffset: 0; stroke: #808080; stroke-width: 0.75"/>
   </g>
   <g id="matplotlib.axis_1">
    <g id="xtick_1">
     <g id="line2d_2">
      <defs>
       <path id="m4731df9be3" d="M 0 0 
L 0 3.5 
" style="stroke: #000000; stroke-width: 0.8"/>
      </defs>
      <g>
       <use xlink:href="#m4731df9be3" x="50.944763" y="143.8" style="stroke: #000000; stroke-width: 0.8"/>
      </g>
     </g>
     <g id="text_1">
      <!-- 0 -->
      <g transform="translate(48.717888 156.118906)scale(0.07 -0.07)">
       <defs>
        <path id="DejaVuSans-30" d="M 2034 4250 
Q 1547 4250 1301 3770 
Q 1056 3291 1056 2328 
Q 1056 1369 1301 889 
Q 1547 409 2034 409 
Q 2525 409 2770 889 
Q 3016 1369 3016 2328 
Q 3016 3291 2770 3770 
Q 2525 4250 2034 4250 
z
M 2034 4750 
Q 2819 4750 3233 4129 
Q 3647 3509 3647 2328 
Q 3647 1150 3233 529 
Q 2819 -91 2034 -91 
Q 1250 -91 836 529 
Q 422 1150 422 2328 
Q 422 3509 836 4129 
Q 1250 4750 2034 4750 
z
" transform="scale(0.015625)"/>
       </defs>
       <use xlink:href="#DejaVuSans-30"/>
      </g>
     </g>
    </g>
    <g id="xtick_2">
     <g id="line2d_3">
      <g>
       <use xlink:href="#m4731df9be3" x="89.480475" y="143.8" style="stroke: #000000; stroke-width: 0.8"/>
      </g>
     </g>
     <g id="text_2">
      <!-- 10000 -->
      <g transform="translate(78.3461 156.118906)scale(0.07 -0.07)">
       <defs>
        <path id="DejaVuSans-31" d="M 794 531 
L 1825 531 
L 1825 4091 
L 703 3866 
L 703 4441 
L 1819 4666 
L 2450 4666 
L 2450 531 
L 3481 531 
L 3481 0 
L 794 0 
L 794 531 
z
" transform="scale(0.015625)"/>
       </defs>
       <use xlink:href="#DejaVuSans-31"/>
       <use xlink:href="#DejaVuSans-30" x="63.623047"/>
       <use xlink:href="#DejaVuSans-30" x="127.246094"/>
       <use xlink:href="#DejaVuSans-30" x="190.869141"/>
       <use xlink:href="#DejaVuSans-30" x="254.492188"/>
      </g>
     </g>
    </g>
    <g id="xtick_3">
     <g id="line2d_4">
      <g>
       <use xlink:href="#m4731df9be3" x="128.016187" y="143.8" style="stroke: #000000; stroke-width: 0.8"/>
      </g>
     </g>
     <g id="text_3">
      <!-- 20000 -->
      <g transform="translate(116.881812 156.118906)scale(0.07 -0.07)">
       <defs>
        <path id="DejaVuSans-32" d="M 1228 531 
L 3431 531 
L 3431 0 
L 469 0 
L 469 531 
Q 828 903 1448 1529 
Q 2069 2156 2228 2338 
Q 2531 2678 2651 2914 
Q 2772 3150 2772 3378 
Q 2772 3750 2511 3984 
Q 2250 4219 1831 4219 
Q 1534 4219 1204 4116 
Q 875 4013 500 3803 
L 500 4441 
Q 881 4594 1212 4672 
Q 1544 4750 1819 4750 
Q 2544 4750 2975 4387 
Q 3406 4025 3406 3419 
Q 3406 3131 3298 2873 
Q 3191 2616 2906 2266 
Q 2828 2175 2409 1742 
Q 1991 1309 1228 531 
z
" transform="scale(0.015625)"/>
       </defs>
       <use xlink:href="#DejaVuSans-32"/>
       <use xlink:href="#DejaVuSans-30" x="63.623047"/>
       <use xlink:href="#DejaVuSans-30" x="127.246094"/>
       <use xlink:href="#DejaVuSans-30" x="190.869141"/>
       <use xlink:href="#DejaVuSans-30" x="254.492188"/>
      </g>
     </g>
    </g>
    <g id="text_4">
     <!-- Generations ago -->
     <g transform="translate(66.006903 167.653437)scale(0.08 -0.08)">
      <defs>
       <path id="DejaVuSans-47" d="M 3809 666 
L 3809 1919 
L 2778 1919 
L 2778 2438 
L 4434 2438 
L 4434 434 
Q 4069 175 3628 42 
Q 3188 -91 2688 -91 
Q 1594 -91 976 548 
Q 359 1188 359 2328 
Q 359 3472 976 4111 
Q 1594 4750 2688 4750 
Q 3144 4750 3555 4637 
Q 3966 4525 4313 4306 
L 4313 3634 
Q 3963 3931 3569 4081 
Q 3175 4231 2741 4231 
Q 1884 4231 1454 3753 
Q 1025 3275 1025 2328 
Q 1025 1384 1454 906 
Q 1884 428 2741 428 
Q 3075 428 3337 486 
Q 3600 544 3809 666 
z
" transform="scale(0.015625)"/>
       <path id="DejaVuSans-65" d="M 3597 1894 
L 3597 1613 
L 953 1613 
Q 991 1019 1311 708 
Q 1631 397 2203 397 
Q 2534 397 2845 478 
Q 3156 559 3463 722 
L 3463 178 
Q 3153 47 2828 -22 
Q 2503 -91 2169 -91 
Q 1331 -91 842 396 
Q 353 884 353 1716 
Q 353 2575 817 3079 
Q 1281 3584 2069 3584 
Q 2775 3584 3186 3129 
Q 3597 2675 3597 1894 
z
M 3022 2063 
Q 3016 2534 2758 2815 
Q 2500 3097 2075 3097 
Q 1594 3097 1305 2825 
Q 1016 2553 972 2059 
L 3022 2063 
z
" transform="scale(0.015625)"/>
       <path id="DejaVuSans-6e" d="M 3513 2113 
L 3513 0 
L 2938 0 
L 2938 2094 
Q 2938 2591 2744 2837 
Q 2550 3084 2163 3084 
Q 1697 3084 1428 2787 
Q 1159 2491 1159 1978 
L 1159 0 
L 581 0 
L 581 3500 
L 1159 3500 
L 1159 2956 
Q 1366 3272 1645 3428 
Q 1925 3584 2291 3584 
Q 2894 3584 3203 3211 
Q 3513 2838 3513 2113 
z
" transform="scale(0.015625)"/>
       <path id="DejaVuSans-72" d="M 2631 2963 
Q 2534 3019 2420 3045 
Q 2306 3072 2169 3072 
Q 1681 3072 1420 2755 
Q 1159 2438 1159 1844 
L 1159 0 
L 581 0 
L 581 3500 
L 1159 3500 
L 1159 2956 
Q 1341 3275 1631 3429 
Q 1922 3584 2338 3584 
Q 2397 3584 2469 3576 
Q 2541 3569 2628 3553 
L 2631 2963 
z
" transform="scale(0.015625)"/>
       <path id="DejaVuSans-61" d="M 2194 1759 
Q 1497 1759 1228 1600 
Q 959 1441 959 1056 
Q 959 750 1161 570 
Q 1363 391 1709 391 
Q 2188 391 2477 730 
Q 2766 1069 2766 1631 
L 2766 1759 
L 2194 1759 
z
M 3341 1997 
L 3341 0 
L 2766 0 
L 2766 531 
Q 2569 213 2275 61 
Q 1981 -91 1556 -91 
Q 1019 -91 701 211 
Q 384 513 384 1019 
Q 384 1609 779 1909 
Q 1175 2209 1959 2209 
L 2766 2209 
L 2766 2266 
Q 2766 2663 2505 2880 
Q 2244 3097 1772 3097 
Q 1472 3097 1187 3025 
Q 903 2953 641 2809 
L 641 3341 
Q 956 3463 1253 3523 
Q 1550 3584 1831 3584 
Q 2591 3584 2966 3190 
Q 3341 2797 3341 1997 
z
" transform="scale(0.015625)"/>
       <path id="DejaVuSans-74" d="M 1172 4494 
L 1172 3500 
L 2356 3500 
L 2356 3053 
L 1172 3053 
L 1172 1153 
Q 1172 725 1289 603 
Q 1406 481 1766 481 
L 2356 481 
L 2356 0 
L 1766 0 
Q 1100 0 847 248 
Q 594 497 594 1153 
L 594 3053 
L 172 3053 
L 172 3500 
L 594 3500 
L 594 4494 
L 1172 4494 
z
" transform="scale(0.015625)"/>
       <path id="DejaVuSans-69" d="M 603 3500 
L 1178 3500 
L 1178 0 
L 603 0 
L 603 3500 
z
M 603 4863 
L 1178 4863 
L 1178 4134 
L 603 4134 
L 603 4863 
z
" transform="scale(0.015625)"/>
       <path id="DejaVuSans-6f" d="M 1959 3097 
Q 1497 3097 1228 2736 
Q 959 2375 959 1747 
Q 959 1119 1226 758 
Q 1494 397 1959 397 
Q 2419 397 2687 759 
Q 2956 1122 2956 1747 
Q 2956 2369 2687 2733 
Q 2419 3097 1959 3097 
z
M 1959 3584 
Q 2709 3584 3137 3096 
Q 3566 2609 3566 1747 
Q 3566 888 3137 398 
Q 2709 -91 1959 -91 
Q 1206 -91 779 398 
Q 353 888 353 1747 
Q 353 2609 779 3096 
Q 1206 3584 1959 3584 
z
" transform="scale(0.015625)"/>
       <path id="DejaVuSans-73" d="M 2834 3397 
L 2834 2853 
Q 2591 2978 2328 3040 
Q 2066 3103 1784 3103 
Q 1356 3103 1142 2972 
Q 928 2841 928 2578 
Q 928 2378 1081 2264 
Q 1234 2150 1697 2047 
L 1894 2003 
Q 2506 1872 2764 1633 
Q 3022 1394 3022 966 
Q 3022 478 2636 193 
Q 2250 -91 1575 -91 
Q 1294 -91 989 -36 
Q 684 19 347 128 
L 347 722 
Q 666 556 975 473 
Q 1284 391 1588 391 
Q 1994 391 2212 530 
Q 2431 669 2431 922 
Q 2431 1156 2273 1281 
Q 2116 1406 1581 1522 
L 1381 1569 
Q 847 1681 609 1914 
Q 372 2147 372 2553 
Q 372 3047 722 3315 
Q 1072 3584 1716 3584 
Q 2034 3584 2315 3537 
Q 2597 3491 2834 3397 
z
" transform="scale(0.015625)"/>
       <path id="DejaVuSans-20" transform="scale(0.015625)"/>
       <path id="DejaVuSans-67" d="M 2906 1791 
Q 2906 2416 2648 2759 
Q 2391 3103 1925 3103 
Q 1463 3103 1205 2759 
Q 947 2416 947 1791 
Q 947 1169 1205 825 
Q 1463 481 1925 481 
Q 2391 481 2648 825 
Q 2906 1169 2906 1791 
z
M 3481 434 
Q 3481 -459 3084 -895 
Q 2688 -1331 1869 -1331 
Q 1566 -1331 1297 -1286 
Q 1028 -1241 775 -1147 
L 775 -588 
Q 1028 -725 1275 -790 
Q 1522 -856 1778 -856 
Q 2344 -856 2625 -561 
Q 2906 -266 2906 331 
L 2906 616 
Q 2728 306 2450 153 
Q 2172 0 1784 0 
Q 1141 0 747 490 
Q 353 981 353 1791 
Q 353 2603 747 3093 
Q 1141 3584 1784 3584 
Q 2172 3584 2450 3431 
Q 2728 3278 2906 2969 
L 2906 3500 
L 3481 3500 
L 3481 434 
z
" transform="scale(0.015625)"/>
      </defs>
      <use xlink:href="#DejaVuSans-47"/>
      <use xlink:href="#DejaVuSans-65" x="77.490234"/>
      <use xlink:href="#DejaVuSans-6e" x="139.013672"/>
      <use xlink:href="#DejaVuSans-65" x="202.392578"/>
      <use xlink:href="#DejaVuSans-72" x="263.916016"/>
      <use xlink:href="#DejaVuSans-61" x="305.029297"/>
      <use xlink:href="#DejaVuSans-74" x="366.308594"/>
      <use xlink:href="#DejaVuSans-69" x="405.517578"/>
      <use xlink:href="#DejaVuSans-6f" x="433.300781"/>
      <use xlink:href="#DejaVuSans-6e" x="494.482422"/>
      <use xlink:href="#DejaVuSans-73" x="557.861328"/>
      <use xlink:href="#DejaVuSans-20" x="609.960938"/>
      <use xlink:href="#DejaVuSans-61" x="641.748047"/>
      <use xlink:href="#DejaVuSans-67" x="703.027344"/>
      <use xlink:href="#DejaVuSans-6f" x="766.503906"/>
     </g>
    </g>
   </g>
   <g id="matplotlib.axis_2">
    <g id="ytick_1">
     <g id="line2d_5">
      <defs>
       <path id="ma0157d4672" d="M 0 0 
L -3.5 0 
" style="stroke: #000000; stroke-width: 0.8"/>
      </defs>
      <g>
       <use xlink:href="#ma0157d4672" x="46.127798" y="127.745252" style="stroke: #000000; stroke-width: 0.8"/>
      </g>
     </g>
     <g id="text_5">
      <!-- $\mathdefault{10^{-1}}$ -->
      <g transform="translate(22.677798 130.404706)scale(0.07 -0.07)">
       <defs>
        <path id="DejaVuSans-2212" d="M 678 2272 
L 4684 2272 
L 4684 1741 
L 678 1741 
L 678 2272 
z
" transform="scale(0.015625)"/>
       </defs>
       <use xlink:href="#DejaVuSans-31" transform="translate(0 0.684375)"/>
       <use xlink:href="#DejaVuSans-30" transform="translate(63.623047 0.684375)"/>
       <use xlink:href="#DejaVuSans-2212" transform="translate(128.203125 38.965625)scale(0.7)"/>
       <use xlink:href="#DejaVuSans-31" transform="translate(186.855469 38.965625)scale(0.7)"/>
      </g>
     </g>
    </g>
    <g id="ytick_2">
     <g id="line2d_6">
      <g>
       <use xlink:href="#ma0157d4672" x="46.127798" y="58.917909" style="stroke: #000000; stroke-width: 0.8"/>
      </g>
     </g>
     <g id="text_6">
      <!-- $\mathdefault{10^{0}}$ -->
      <g transform="translate(26.807798 61.577362)scale(0.07 -0.07)">
       <use xlink:href="#DejaVuSans-31" transform="translate(0 0.765625)"/>
       <use xlink:href="#DejaVuSans-30" transform="translate(63.623047 0.765625)"/>
       <use xlink:href="#DejaVuSans-30" transform="translate(128.203125 39.046875)scale(0.7)"/>
      </g>
     </g>
    </g>
    <g id="ytick_3">
     <g id="line2d_7">
      <defs>
       <path id="m3b68dac5ef" d="M 0 0 
L -2 0 
" style="stroke: #000000; stroke-width: 0.6"/>
      </defs>
      <g>
       <use xlink:href="#m3b68dac5ef" x="46.127798" y="143.014513" style="stroke: #000000; stroke-width: 0.6"/>
      </g>
     </g>
    </g>
    <g id="ytick_4">
     <g id="line2d_8">
      <g>
       <use xlink:href="#m3b68dac5ef" x="46.127798" y="138.406743" style="stroke: #000000; stroke-width: 0.6"/>
      </g>
     </g>
    </g>
    <g id="ytick_5">
     <g id="line2d_9">
      <g>
       <use xlink:href="#m3b68dac5ef" x="46.127798" y="134.415311" style="stroke: #000000; stroke-width: 0.6"/>
      </g>
     </g>
    </g>
    <g id="ytick_6">
     <g id="line2d_10">
      <g>
       <use xlink:href="#m3b68dac5ef" x="46.127798" y="130.894619" style="stroke: #000000; stroke-width: 0.6"/>
      </g>
     </g>
    </g>
    <g id="ytick_7">
     <g id="line2d_11">
      <g>
       <use xlink:href="#m3b68dac5ef" x="46.127798" y="107.026157" style="stroke: #000000; stroke-width: 0.6"/>
      </g>
     </g>
    </g>
    <g id="ytick_8">
     <g id="line2d_12">
      <g>
       <use xlink:href="#m3b68dac5ef" x="46.127798" y="94.906264" style="stroke: #000000; stroke-width: 0.6"/>
      </g>
     </g>
    </g>
    <g id="ytick_9">
     <g id="line2d_13">
      <g>
       <use xlink:href="#m3b68dac5ef" x="46.127798" y="86.307062" style="stroke: #000000; stroke-width: 0.6"/>
      </g>
     </g>
    </g>
    <g id="ytick_10">
     <g id="line2d_14">
      <g>
       <use xlink:href="#m3b68dac5ef" x="46.127798" y="79.637004" style="stroke: #000000; stroke-width: 0.6"/>
      </g>
     </g>
    </g>
    <g id="ytick_11">
     <g id="line2d_15">
      <g>
       <use xlink:href="#m3b68dac5ef" x="46.127798" y="74.187169" style="stroke: #000000; stroke-width: 0.6"/>
      </g>
     </g>
    </g>
    <g id="ytick_12">
     <g id="line2d_16">
      <g>
       <use xlink:href="#m3b68dac5ef" x="46.127798" y="69.579399" style="stroke: #000000; stroke-width: 0.6"/>
      </g>
     </g>
    </g>
    <g id="ytick_13">
     <g id="line2d_17">
      <g>
       <use xlink:href="#m3b68dac5ef" x="46.127798" y="65.587967" style="stroke: #000000; stroke-width: 0.6"/>
      </g>
     </g>
    </g>
    <g id="ytick_14">
     <g id="line2d_18">
      <g>
       <use xlink:href="#m3b68dac5ef" x="46.127798" y="62.067275" style="stroke: #000000; stroke-width: 0.6"/>
      </g>
     </g>
    </g>
    <g id="ytick_15">
     <g id="line2d_19">
      <g>
       <use xlink:href="#m3b68dac5ef" x="46.127798" y="38.198814" style="stroke: #000000; stroke-width: 0.6"/>
      </g>
     </g>
    </g>
    <g id="ytick_16">
     <g id="line2d_20">
      <g>
       <use xlink:href="#m3b68dac5ef" x="46.127798" y="26.07892" style="stroke: #000000; stroke-width: 0.6"/>
      </g>
     </g>
    </g>
    <g id="text_7">
     <!-- Shape -->
     <g transform="translate(17.014048 95.70625)rotate(-90)scale(0.08 -0.08)">
      <defs>
       <path id="DejaVuSans-53" d="M 3425 4513 
L 3425 3897 
Q 3066 4069 2747 4153 
Q 2428 4238 2131 4238 
Q 1616 4238 1336 4038 
Q 1056 3838 1056 3469 
Q 1056 3159 1242 3001 
Q 1428 2844 1947 2747 
L 2328 2669 
Q 3034 2534 3370 2195 
Q 3706 1856 3706 1288 
Q 3706 609 3251 259 
Q 2797 -91 1919 -91 
Q 1588 -91 1214 -16 
Q 841 59 441 206 
L 441 856 
Q 825 641 1194 531 
Q 1563 422 1919 422 
Q 2459 422 2753 634 
Q 3047 847 3047 1241 
Q 3047 1584 2836 1778 
Q 2625 1972 2144 2069 
L 1759 2144 
Q 1053 2284 737 2584 
Q 422 2884 422 3419 
Q 422 4038 858 4394 
Q 1294 4750 2059 4750 
Q 2388 4750 2728 4690 
Q 3069 4631 3425 4513 
z
" transform="scale(0.015625)"/>
       <path id="DejaVuSans-68" d="M 3513 2113 
L 3513 0 
L 2938 0 
L 2938 2094 
Q 2938 2591 2744 2837 
Q 2550 3084 2163 3084 
Q 1697 3084 1428 2787 
Q 1159 2491 1159 1978 
L 1159 0 
L 581 0 
L 581 4863 
L 1159 4863 
L 1159 2956 
Q 1366 3272 1645 3428 
Q 1925 3584 2291 3584 
Q 2894 3584 3203 3211 
Q 3513 2838 3513 2113 
z
" transform="scale(0.015625)"/>
       <path id="DejaVuSans-70" d="M 1159 525 
L 1159 -1331 
L 581 -1331 
L 581 3500 
L 1159 3500 
L 1159 2969 
Q 1341 3281 1617 3432 
Q 1894 3584 2278 3584 
Q 2916 3584 3314 3078 
Q 3713 2572 3713 1747 
Q 3713 922 3314 415 
Q 2916 -91 2278 -91 
Q 1894 -91 1617 61 
Q 1341 213 1159 525 
z
M 3116 1747 
Q 3116 2381 2855 2742 
Q 2594 3103 2138 3103 
Q 1681 3103 1420 2742 
Q 1159 2381 1159 1747 
Q 1159 1113 1420 752 
Q 1681 391 2138 391 
Q 2594 391 2855 752 
Q 3116 1113 3116 1747 
z
" transform="scale(0.015625)"/>
      </defs>
      <use xlink:href="#DejaVuSans-53"/>
      <use xlink:href="#DejaVuSans-68" x="63.476562"/>
      <use xlink:href="#DejaVuSans-61" x="126.855469"/>
      <use xlink:href="#DejaVuSans-70" x="188.134766"/>
      <use xlink:href="#DejaVuSans-65" x="251.611328"/>
     </g>
    </g>
   </g>
   <g id="line2d_21">
    <path d="M 50.944763 105.939439 
L 52.871548 105.915742 
L 54.798334 105.898471 
L 56.725119 105.883689 
L 58.651905 105.860032 
L 60.578691 105.816011 
L 62.505476 105.789675 
L 64.432262 105.729459 
L 66.359047 105.668909 
L 68.285833 105.586347 
L 70.212619 105.480929 
L 72.139404 105.369751 
L 74.06619 105.207192 
L 75.992976 105.011353 
L 77.919761 104.776676 
L 79.846547 104.469768 
L 81.773332 104.104654 
L 83.700118 103.643031 
L 85.626904 103.062788 
L 87.553689 102.351264 
L 89.480475 101.492377 
L 91.407261 100.434188 
L 93.334046 99.135422 
L 95.260832 97.553037 
L 97.187617 95.652395 
L 99.114403 93.376587 
L 101.041189 90.670802 
L 102.967974 87.474424 
L 104.89476 83.745885 
L 106.821545 79.421721 
L 108.748331 74.474943 
L 110.675117 68.884861 
L 112.601902 62.749286 
L 114.528688 56.158952 
L 116.455474 49.329543 
L 118.382259 42.640439 
L 120.309045 36.519114 
L 122.23583 31.586702 
L 124.162616 28.56271 
L 126.089402 28.070909 
L 128.016187 30.390084 
L 129.942973 35.343174 
L 131.869758 42.464904 
L 133.796544 50.957902 
L 135.72333 60.024456 
L 137.650115 69.221056 
L 139.576901 78.127619 
L 141.503687 86.471039 
L 143.430472 94.207288 
L 145.357258 101.265608 
L 147.284043 107.026157 
" clip-path="url(#p74a81b07c9)" style="fill: none; stroke: #bdd7e7; stroke-width: 1.5; stroke-linecap: square"/>
   </g>
   <g id="line2d_22">
    <path d="M 50.944763 107.073975 
L 52.871548 107.066262 
L 54.798334 107.058613 
L 56.725119 107.054686 
L 58.651905 107.038117 
L 60.578691 107.023553 
L 62.505476 107.008949 
L 64.432262 106.982734 
L 66.359047 106.955321 
L 68.285833 106.922345 
L 70.212619 106.874743 
L 72.139404 106.81762 
L 74.06619 106.748192 
L 75.992976 106.665177 
L 77.919761 106.554623 
L 79.846547 106.422343 
L 81.773332 106.251943 
L 83.700118 106.045414 
L 85.626904 105.776867 
L 87.553689 105.45291 
L 89.480475 105.041111 
L 91.407261 104.537138 
L 93.334046 103.913638 
L 95.260832 103.126642 
L 97.187617 102.164282 
L 99.114403 100.97779 
L 101.041189 99.533513 
L 102.967974 97.769773 
L 104.89476 95.673123 
L 106.821545 93.179909 
L 108.748331 90.254241 
L 110.675117 86.878478 
L 112.601902 83.062574 
L 114.528688 78.810762 
L 116.455474 74.188477 
L 118.382259 69.267673 
L 120.309045 64.214814 
L 122.23583 59.279912 
L 124.162616 54.836485 
L 126.089402 51.451713 
L 128.016187 49.772205 
L 129.942973 50.217678 
L 131.869758 52.709835 
L 133.796544 56.91605 
L 135.72333 62.705708 
L 137.650115 69.920769 
L 139.576901 78.114939 
L 141.503687 86.735093 
L 143.430472 95.23775 
L 145.357258 103.058876 
L 147.284043 107.026157 
" clip-path="url(#p74a81b07c9)" style="fill: none; stroke: #6baed6; stroke-width: 1.5; stroke-linecap: square"/>
   </g>
   <g id="line2d_23">
    <path d="M 50.944763 105.402885 
L 52.871548 105.404593 
L 54.798334 105.41048 
L 56.725119 105.413787 
L 58.651905 105.420774 
L 60.578691 105.428908 
L 62.505476 105.437895 
L 64.432262 105.450277 
L 66.359047 105.466769 
L 68.285833 105.484787 
L 70.212619 105.510107 
L 72.139404 105.539069 
L 74.06619 105.575157 
L 75.992976 105.616308 
L 77.919761 105.670032 
L 79.846547 105.73299 
L 81.773332 105.805953 
L 83.700118 105.892877 
L 85.626904 105.99139 
L 87.553689 106.100434 
L 89.480475 106.215623 
L 91.407261 106.32301 
L 93.334046 106.414537 
L 95.260832 106.451785 
L 97.187617 106.400937 
L 99.114403 106.220427 
L 101.041189 105.823363 
L 102.967974 105.189701 
L 104.89476 104.229567 
L 106.821545 102.921509 
L 108.748331 101.20623 
L 110.675117 99.085498 
L 112.601902 96.509963 
L 114.528688 93.561364 
L 116.455474 90.263474 
L 118.382259 86.675261 
L 120.309045 82.960663 
L 122.23583 79.304003 
L 124.162616 75.932876 
L 126.089402 73.136618 
L 128.016187 71.262213 
L 129.942973 70.674582 
L 131.869758 71.652207 
L 133.796544 74.291009 
L 135.72333 78.416868 
L 137.650115 83.627782 
L 139.576901 89.448589 
L 141.503687 95.454015 
L 143.430472 101.167036 
L 145.357258 106.057273 
L 147.284043 107.026157 
" clip-path="url(#p74a81b07c9)" style="fill: none; stroke: #2171b5; stroke-width: 1.5; stroke-linecap: square"/>
   </g>
   <g id="line2d_24">
    <path d="M 50.944763 138.289091 
L 52.871548 137.892422 
L 54.798334 137.524245 
L 56.725119 137.113081 
L 58.651905 136.70987 
L 60.578691 136.319506 
L 62.505476 135.895675 
L 64.432262 135.46701 
L 66.359047 135.039443 
L 68.285833 134.585523 
L 70.212619 134.134111 
L 72.139404 133.65566 
L 74.06619 133.196791 
L 75.992976 132.712746 
L 77.919761 132.221565 
L 79.846547 131.720433 
L 81.773332 131.197905 
L 83.700118 130.692134 
L 85.626904 130.143397 
L 87.553689 129.595662 
L 89.480475 129.049228 
L 91.407261 128.472013 
L 93.334046 127.906919 
L 95.260832 127.321072 
L 97.187617 126.710878 
L 99.114403 126.076808 
L 101.041189 125.45031 
L 102.967974 124.809224 
L 104.89476 124.167703 
L 106.821545 123.476213 
L 108.748331 122.807271 
L 110.675117 122.116265 
L 112.601902 121.389867 
L 114.528688 120.685126 
L 116.455474 119.940645 
L 118.382259 119.170582 
L 120.309045 118.414318 
L 122.23583 117.625149 
L 124.162616 116.831192 
L 126.089402 116.003782 
L 128.016187 115.182314 
L 129.942973 114.332852 
L 131.869758 113.499146 
L 133.796544 112.630216 
L 135.72333 111.766806 
L 137.650115 110.908035 
L 139.576901 110.044589 
L 141.503687 109.212401 
L 143.430472 108.398938 
L 145.357258 107.655748 
L 147.284043 107.026157 
" clip-path="url(#p74a81b07c9)" style="fill: none; stroke: #fdbe85; stroke-width: 1.5; stroke-linecap: square"/>
   </g>
   <g id="line2d_25">
    <path d="M 50.944763 129.48117 
L 52.871548 129.480915 
L 54.798334 129.499842 
L 56.725119 129.510044 
L 58.651905 129.475534 
L 60.578691 129.478639 
L 62.505476 129.472112 
L 64.432262 129.42331 
L 66.359047 129.409756 
L 68.285833 129.38598 
L 70.212619 129.350162 
L 72.139404 129.307173 
L 74.06619 129.208236 
L 75.992976 129.135704 
L 77.919761 129.048018 
L 79.846547 128.945976 
L 81.773332 128.813762 
L 83.700118 128.663367 
L 85.626904 128.467007 
L 87.553689 128.271319 
L 89.480475 128.0541 
L 91.407261 127.814695 
L 93.334046 127.522733 
L 95.260832 127.227487 
L 97.187617 126.904848 
L 99.114403 126.549486 
L 101.041189 126.151025 
L 102.967974 125.722739 
L 104.89476 125.263594 
L 106.821545 124.758091 
L 108.748331 124.223956 
L 110.675117 123.653439 
L 112.601902 123.049828 
L 114.528688 122.415274 
L 116.455474 121.746663 
L 118.382259 121.048428 
L 120.309045 120.311751 
L 122.23583 119.538713 
L 124.162616 118.735104 
L 126.089402 117.897132 
L 128.016187 117.024237 
L 129.942973 116.114793 
L 131.869758 115.167066 
L 133.796544 114.184456 
L 135.72333 113.170072 
L 137.650115 112.128765 
L 139.576901 111.054332 
L 141.503687 109.954876 
L 143.430472 108.857843 
L 145.357258 107.79663 
L 147.284043 107.026157 
" clip-path="url(#p74a81b07c9)" style="fill: none; stroke: #fd8d3c; stroke-width: 1.5; stroke-linecap: square"/>
   </g>
   <g id="line2d_26">
    <path d="M 50.944763 118.004807 
L 52.871548 117.910492 
L 54.798334 117.852426 
L 56.725119 117.784648 
L 58.651905 117.646094 
L 60.578691 117.577674 
L 62.505476 117.502573 
L 64.432262 117.359667 
L 66.359047 117.287245 
L 68.285833 117.206321 
L 70.212619 117.116094 
L 72.139404 117.036203 
L 74.06619 116.873351 
L 75.992976 116.780408 
L 77.919761 116.687735 
L 79.846547 116.595261 
L 81.773332 116.474466 
L 83.700118 116.358668 
L 85.626904 116.183541 
L 87.553689 116.056515 
L 89.480475 115.931377 
L 91.407261 115.815355 
L 93.334046 115.634507 
L 95.260832 115.521046 
L 97.187617 115.411531 
L 99.114403 115.300559 
L 101.041189 115.150059 
L 102.967974 115.015386 
L 104.89476 114.885985 
L 106.821545 114.713893 
L 108.748331 114.551481 
L 110.675117 114.357805 
L 112.601902 114.156061 
L 114.528688 113.958102 
L 116.455474 113.747802 
L 118.382259 113.528313 
L 120.309045 113.302285 
L 122.23583 113.022256 
L 124.162616 112.758717 
L 126.089402 112.476031 
L 128.016187 112.160777 
L 129.942973 111.816468 
L 131.869758 111.430591 
L 133.796544 111.007411 
L 135.72333 110.538021 
L 137.650115 110.026462 
L 139.576901 109.470565 
L 141.503687 108.86252 
L 143.430472 108.203813 
L 145.357258 107.523862 
L 147.284043 107.026157 
" clip-path="url(#p74a81b07c9)" style="fill: none; stroke: #d94701; stroke-width: 1.5; stroke-linecap: square"/>
   </g>
   <g id="patch_3">
    <path d="M 46.127798 143.8 
L 46.127798 22.56 
" style="fill: none; stroke: #000000; stroke-width: 0.8; stroke-linejoin: miter; stroke-linecap: square"/>
   </g>
   <g id="patch_4">
    <path d="M 152.101007 143.8 
L 152.101007 22.56 
" style="fill: none; stroke: #000000; stroke-width: 0.8; stroke-linejoin: miter; stroke-linecap: square"/>
   </g>
   <g id="patch_5">
    <path d="M 46.127798 143.8 
L 152.101007 143.8 
" style="fill: none; stroke: #000000; stroke-width: 0.8; stroke-linejoin: miter; stroke-linecap: square"/>
   </g>
   <g id="patch_6">
    <path d="M 46.127798 22.56 
L 152.101007 22.56 
" style="fill: none; stroke: #000000; stroke-width: 0.8; stroke-linejoin: miter; stroke-linecap: square"/>
   </g>
   <g id="text_8">
    <!-- Bottleneck -->
    <g style="fill: #2171b5" transform="translate(56.507261 71.915544)scale(0.08 -0.08)">
     <defs>
      <path id="DejaVuSans-42" d="M 1259 2228 
L 1259 519 
L 2272 519 
Q 2781 519 3026 730 
Q 3272 941 3272 1375 
Q 3272 1813 3026 2020 
Q 2781 2228 2272 2228 
L 1259 2228 
z
M 1259 4147 
L 1259 2741 
L 2194 2741 
Q 2656 2741 2882 2914 
Q 3109 3088 3109 3444 
Q 3109 3797 2882 3972 
Q 2656 4147 2194 4147 
L 1259 4147 
z
M 628 4666 
L 2241 4666 
Q 2963 4666 3353 4366 
Q 3744 4066 3744 3513 
Q 3744 3084 3544 2831 
Q 3344 2578 2956 2516 
Q 3422 2416 3680 2098 
Q 3938 1781 3938 1306 
Q 3938 681 3513 340 
Q 3088 0 2303 0 
L 628 0 
L 628 4666 
z
" transform="scale(0.015625)"/>
      <path id="DejaVuSans-6c" d="M 603 4863 
L 1178 4863 
L 1178 0 
L 603 0 
L 603 4863 
z
" transform="scale(0.015625)"/>
      <path id="DejaVuSans-63" d="M 3122 3366 
L 3122 2828 
Q 2878 2963 2633 3030 
Q 2388 3097 2138 3097 
Q 1578 3097 1268 2742 
Q 959 2388 959 1747 
Q 959 1106 1268 751 
Q 1578 397 2138 397 
Q 2388 397 2633 464 
Q 2878 531 3122 666 
L 3122 134 
Q 2881 22 2623 -34 
Q 2366 -91 2075 -91 
Q 1284 -91 818 406 
Q 353 903 353 1747 
Q 353 2603 823 3093 
Q 1294 3584 2113 3584 
Q 2378 3584 2631 3529 
Q 2884 3475 3122 3366 
z
" transform="scale(0.015625)"/>
      <path id="DejaVuSans-6b" d="M 581 4863 
L 1159 4863 
L 1159 1991 
L 2875 3500 
L 3609 3500 
L 1753 1863 
L 3688 0 
L 2938 0 
L 1159 1709 
L 1159 0 
L 581 0 
L 581 4863 
z
" transform="scale(0.015625)"/>
     </defs>
     <use xlink:href="#DejaVuSans-42"/>
     <use xlink:href="#DejaVuSans-6f" x="68.603516"/>
     <use xlink:href="#DejaVuSans-74" x="129.785156"/>
     <use xlink:href="#DejaVuSans-74" x="168.994141"/>
     <use xlink:href="#DejaVuSans-6c" x="208.203125"/>
     <use xlink:href="#DejaVuSans-65" x="235.986328"/>
     <use xlink:href="#DejaVuSans-6e" x="297.509766"/>
     <use xlink:href="#DejaVuSans-65" x="360.888672"/>
     <use xlink:href="#DejaVuSans-63" x="422.412109"/>
     <use xlink:href="#DejaVuSans-6b" x="477.392578"/>
    </g>
    <!-- history -->
    <g style="fill: #2171b5" transform="translate(64.162261 80.873794)scale(0.08 -0.08)">
     <defs>
      <path id="DejaVuSans-79" d="M 2059 -325 
Q 1816 -950 1584 -1140 
Q 1353 -1331 966 -1331 
L 506 -1331 
L 506 -850 
L 844 -850 
Q 1081 -850 1212 -737 
Q 1344 -625 1503 -206 
L 1606 56 
L 191 3500 
L 800 3500 
L 1894 763 
L 2988 3500 
L 3597 3500 
L 2059 -325 
z
" transform="scale(0.015625)"/>
     </defs>
     <use xlink:href="#DejaVuSans-68"/>
     <use xlink:href="#DejaVuSans-69" x="63.378906"/>
     <use xlink:href="#DejaVuSans-73" x="91.162109"/>
     <use xlink:href="#DejaVuSans-74" x="143.261719"/>
     <use xlink:href="#DejaVuSans-6f" x="182.470703"/>
     <use xlink:href="#DejaVuSans-72" x="243.652344"/>
     <use xlink:href="#DejaVuSans-79" x="284.765625"/>
    </g>
   </g>
   <g id="text_9">
    <!-- Expansion -->
    <g style="fill: #d94701" transform="translate(111.271633 132.143686)scale(0.08 -0.08)">
     <defs>
      <path id="DejaVuSans-45" d="M 628 4666 
L 3578 4666 
L 3578 4134 
L 1259 4134 
L 1259 2753 
L 3481 2753 
L 3481 2222 
L 1259 2222 
L 1259 531 
L 3634 531 
L 3634 0 
L 628 0 
L 628 4666 
z
" transform="scale(0.015625)"/>
      <path id="DejaVuSans-78" d="M 3513 3500 
L 2247 1797 
L 3578 0 
L 2900 0 
L 1881 1375 
L 863 0 
L 184 0 
L 1544 1831 
L 300 3500 
L 978 3500 
L 1906 2253 
L 2834 3500 
L 3513 3500 
z
" transform="scale(0.015625)"/>
     </defs>
     <use xlink:href="#DejaVuSans-45"/>
     <use xlink:href="#DejaVuSans-78" x="63.183594"/>
     <use xlink:href="#DejaVuSans-70" x="122.363281"/>
     <use xlink:href="#DejaVuSans-61" x="185.839844"/>
     <use xlink:href="#DejaVuSans-6e" x="247.119141"/>
     <use xlink:href="#DejaVuSans-73" x="310.498047"/>
     <use xlink:href="#DejaVuSans-69" x="362.597656"/>
     <use xlink:href="#DejaVuSans-6f" x="390.380859"/>
     <use xlink:href="#DejaVuSans-6e" x="451.5625"/>
    </g>
    <!-- history -->
    <g style="fill: #d94701" transform="translate(118.112258 141.101936)scale(0.08 -0.08)">
     <use xlink:href="#DejaVuSans-68"/>
     <use xlink:href="#DejaVuSans-69" x="63.378906"/>
     <use xlink:href="#DejaVuSans-73" x="91.162109"/>
     <use xlink:href="#DejaVuSans-74" x="143.261719"/>
     <use xlink:href="#DejaVuSans-6f" x="182.470703"/>
     <use xlink:href="#DejaVuSans-72" x="243.652344"/>
     <use xlink:href="#DejaVuSans-79" x="284.765625"/>
    </g>
   </g>
   <g id="text_10">
    <!-- Fixed mutation rate -->
    <g transform="translate(59.969403 16.56)scale(0.08 -0.08)">
     <defs>
      <path id="DejaVuSans-46" d="M 628 4666 
L 3309 4666 
L 3309 4134 
L 1259 4134 
L 1259 2759 
L 3109 2759 
L 3109 2228 
L 1259 2228 
L 1259 0 
L 628 0 
L 628 4666 
z
" transform="scale(0.015625)"/>
      <path id="DejaVuSans-64" d="M 2906 2969 
L 2906 4863 
L 3481 4863 
L 3481 0 
L 2906 0 
L 2906 525 
Q 2725 213 2448 61 
Q 2172 -91 1784 -91 
Q 1150 -91 751 415 
Q 353 922 353 1747 
Q 353 2572 751 3078 
Q 1150 3584 1784 3584 
Q 2172 3584 2448 3432 
Q 2725 3281 2906 2969 
z
M 947 1747 
Q 947 1113 1208 752 
Q 1469 391 1925 391 
Q 2381 391 2643 752 
Q 2906 1113 2906 1747 
Q 2906 2381 2643 2742 
Q 2381 3103 1925 3103 
Q 1469 3103 1208 2742 
Q 947 2381 947 1747 
z
" transform="scale(0.015625)"/>
      <path id="DejaVuSans-6d" d="M 3328 2828 
Q 3544 3216 3844 3400 
Q 4144 3584 4550 3584 
Q 5097 3584 5394 3201 
Q 5691 2819 5691 2113 
L 5691 0 
L 5113 0 
L 5113 2094 
Q 5113 2597 4934 2840 
Q 4756 3084 4391 3084 
Q 3944 3084 3684 2787 
Q 3425 2491 3425 1978 
L 3425 0 
L 2847 0 
L 2847 2094 
Q 2847 2600 2669 2842 
Q 2491 3084 2119 3084 
Q 1678 3084 1418 2786 
Q 1159 2488 1159 1978 
L 1159 0 
L 581 0 
L 581 3500 
L 1159 3500 
L 1159 2956 
Q 1356 3278 1631 3431 
Q 1906 3584 2284 3584 
Q 2666 3584 2933 3390 
Q 3200 3197 3328 2828 
z
" transform="scale(0.015625)"/>
      <path id="DejaVuSans-75" d="M 544 1381 
L 544 3500 
L 1119 3500 
L 1119 1403 
Q 1119 906 1312 657 
Q 1506 409 1894 409 
Q 2359 409 2629 706 
Q 2900 1003 2900 1516 
L 2900 3500 
L 3475 3500 
L 3475 0 
L 2900 0 
L 2900 538 
Q 2691 219 2414 64 
Q 2138 -91 1772 -91 
Q 1169 -91 856 284 
Q 544 659 544 1381 
z
M 1991 3584 
L 1991 3584 
z
" transform="scale(0.015625)"/>
     </defs>
     <use xlink:href="#DejaVuSans-46"/>
     <use xlink:href="#DejaVuSans-69" x="50.269531"/>
     <use xlink:href="#DejaVuSans-78" x="78.052734"/>
     <use xlink:href="#DejaVuSans-65" x="134.107422"/>
     <use xlink:href="#DejaVuSans-64" x="195.630859"/>
     <use xlink:href="#DejaVuSans-20" x="259.107422"/>
     <use xlink:href="#DejaVuSans-6d" x="290.894531"/>
     <use xlink:href="#DejaVuSans-75" x="388.306641"/>
     <use xlink:href="#DejaVuSans-74" x="451.685547"/>
     <use xlink:href="#DejaVuSans-61" x="490.894531"/>
     <use xlink:href="#DejaVuSans-74" x="552.173828"/>
     <use xlink:href="#DejaVuSans-69" x="591.382812"/>
     <use xlink:href="#DejaVuSans-6f" x="619.166016"/>
     <use xlink:href="#DejaVuSans-6e" x="680.347656"/>
     <use xlink:href="#DejaVuSans-20" x="743.726562"/>
     <use xlink:href="#DejaVuSans-72" x="775.513672"/>
     <use xlink:href="#DejaVuSans-61" x="816.626953"/>
     <use xlink:href="#DejaVuSans-74" x="877.90625"/>
     <use xlink:href="#DejaVuSans-65" x="917.115234"/>
    </g>
   </g>
  </g>
  <g id="axes_2">
   <g id="patch_7">
    <path d="M 198.677295 143.8 
L 304.650504 143.8 
L 304.650504 22.56 
L 198.677295 22.56 
z
" style="fill: #ffffff"/>
   </g>
   <g id="line2d_27">
    <path d="M 198.677295 114.392256 
L 304.650504 114.392256 
" clip-path="url(#pce1cc63d23)" style="fill: none; stroke-dasharray: 2.775,1.2; stroke-dashoffset: 0; stroke: #808080; stroke-width: 0.75"/>
   </g>
   <g id="line2d_28">
    <path d="M 198.677295 94.68748 
L 304.650504 94.68748 
" clip-path="url(#pce1cc63d23)" style="fill: none; stroke-dasharray: 2.775,1.2; stroke-dashoffset: 0; stroke: #808080; stroke-width: 0.75"/>
   </g>
   <g id="line2d_29">
    <path d="M 198.677295 74.982704 
L 304.650504 74.982704 
" clip-path="url(#pce1cc63d23)" style="fill: none; stroke-dasharray: 2.775,1.2; stroke-dashoffset: 0; stroke: #808080; stroke-width: 0.75"/>
   </g>
   <g id="matplotlib.axis_3">
    <g id="xtick_4">
     <g id="line2d_30">
      <g>
       <use xlink:href="#m4731df9be3" x="203.494259" y="143.8" style="stroke: #000000; stroke-width: 0.8"/>
      </g>
     </g>
     <g id="text_11">
      <!-- 0 -->
      <g transform="translate(201.267384 156.118906)scale(0.07 -0.07)">
       <use xlink:href="#DejaVuSans-30"/>
      </g>
     </g>
    </g>
    <g id="xtick_5">
     <g id="line2d_31">
      <g>
       <use xlink:href="#m4731df9be3" x="242.029971" y="143.8" style="stroke: #000000; stroke-width: 0.8"/>
      </g>
     </g>
     <g id="text_12">
      <!-- 10000 -->
      <g transform="translate(230.895596 156.118906)scale(0.07 -0.07)">
       <use xlink:href="#DejaVuSans-31"/>
       <use xlink:href="#DejaVuSans-30" x="63.623047"/>
       <use xlink:href="#DejaVuSans-30" x="127.246094"/>
       <use xlink:href="#DejaVuSans-30" x="190.869141"/>
       <use xlink:href="#DejaVuSans-30" x="254.492188"/>
      </g>
     </g>
    </g>
    <g id="xtick_6">
     <g id="line2d_32">
      <g>
       <use xlink:href="#m4731df9be3" x="280.565684" y="143.8" style="stroke: #000000; stroke-width: 0.8"/>
      </g>
     </g>
     <g id="text_13">
      <!-- 20000 -->
      <g transform="translate(269.431309 156.118906)scale(0.07 -0.07)">
       <use xlink:href="#DejaVuSans-32"/>
       <use xlink:href="#DejaVuSans-30" x="63.623047"/>
       <use xlink:href="#DejaVuSans-30" x="127.246094"/>
       <use xlink:href="#DejaVuSans-30" x="190.869141"/>
       <use xlink:href="#DejaVuSans-30" x="254.492188"/>
      </g>
     </g>
    </g>
    <g id="text_14">
     <!-- Generations ago -->
     <g transform="translate(218.556399 167.653437)scale(0.08 -0.08)">
      <use xlink:href="#DejaVuSans-47"/>
      <use xlink:href="#DejaVuSans-65" x="77.490234"/>
      <use xlink:href="#DejaVuSans-6e" x="139.013672"/>
      <use xlink:href="#DejaVuSans-65" x="202.392578"/>
      <use xlink:href="#DejaVuSans-72" x="263.916016"/>
      <use xlink:href="#DejaVuSans-61" x="305.029297"/>
      <use xlink:href="#DejaVuSans-74" x="366.308594"/>
      <use xlink:href="#DejaVuSans-69" x="405.517578"/>
      <use xlink:href="#DejaVuSans-6f" x="433.300781"/>
      <use xlink:href="#DejaVuSans-6e" x="494.482422"/>
      <use xlink:href="#DejaVuSans-73" x="557.861328"/>
      <use xlink:href="#DejaVuSans-20" x="609.960938"/>
      <use xlink:href="#DejaVuSans-61" x="641.748047"/>
      <use xlink:href="#DejaVuSans-67" x="703.027344"/>
      <use xlink:href="#DejaVuSans-6f" x="766.503906"/>
     </g>
    </g>
   </g>
   <g id="matplotlib.axis_4">
    <g id="ytick_17">
     <g id="line2d_33">
      <g>
       <use xlink:href="#ma0157d4672" x="198.677295" y="128.165304" style="stroke: #000000; stroke-width: 0.8"/>
      </g>
     </g>
     <g id="text_15">
      <!-- $\mathdefault{10^{-3}}$ -->
      <g transform="translate(175.227295 130.824757)scale(0.07 -0.07)">
       <defs>
        <path id="DejaVuSans-33" d="M 2597 2516 
Q 3050 2419 3304 2112 
Q 3559 1806 3559 1356 
Q 3559 666 3084 287 
Q 2609 -91 1734 -91 
Q 1441 -91 1130 -33 
Q 819 25 488 141 
L 488 750 
Q 750 597 1062 519 
Q 1375 441 1716 441 
Q 2309 441 2620 675 
Q 2931 909 2931 1356 
Q 2931 1769 2642 2001 
Q 2353 2234 1838 2234 
L 1294 2234 
L 1294 2753 
L 1863 2753 
Q 2328 2753 2575 2939 
Q 2822 3125 2822 3475 
Q 2822 3834 2567 4026 
Q 2313 4219 1838 4219 
Q 1578 4219 1281 4162 
Q 984 4106 628 3988 
L 628 4550 
Q 988 4650 1302 4700 
Q 1616 4750 1894 4750 
Q 2613 4750 3031 4423 
Q 3450 4097 3450 3541 
Q 3450 3153 3228 2886 
Q 3006 2619 2597 2516 
z
" transform="scale(0.015625)"/>
       </defs>
       <use xlink:href="#DejaVuSans-31" transform="translate(0 0.765625)"/>
       <use xlink:href="#DejaVuSans-30" transform="translate(63.623047 0.765625)"/>
       <use xlink:href="#DejaVuSans-2212" transform="translate(128.203125 39.046875)scale(0.7)"/>
       <use xlink:href="#DejaVuSans-33" transform="translate(186.855469 39.046875)scale(0.7)"/>
      </g>
     </g>
    </g>
    <g id="ytick_18">
     <g id="line2d_34">
      <g>
       <use xlink:href="#ma0157d4672" x="198.677295" y="108.460528" style="stroke: #000000; stroke-width: 0.8"/>
      </g>
     </g>
     <g id="text_16">
      <!-- $\mathdefault{10^{-2}}$ -->
      <g transform="translate(175.227295 111.119981)scale(0.07 -0.07)">
       <use xlink:href="#DejaVuSans-31" transform="translate(0 0.765625)"/>
       <use xlink:href="#DejaVuSans-30" transform="translate(63.623047 0.765625)"/>
       <use xlink:href="#DejaVuSans-2212" transform="translate(128.203125 39.046875)scale(0.7)"/>
       <use xlink:href="#DejaVuSans-32" transform="translate(186.855469 39.046875)scale(0.7)"/>
      </g>
     </g>
    </g>
    <g id="ytick_19">
     <g id="line2d_35">
      <g>
       <use xlink:href="#ma0157d4672" x="198.677295" y="88.755751" style="stroke: #000000; stroke-width: 0.8"/>
      </g>
     </g>
     <g id="text_17">
      <!-- $\mathdefault{10^{-1}}$ -->
      <g transform="translate(175.227295 91.415204)scale(0.07 -0.07)">
       <use xlink:href="#DejaVuSans-31" transform="translate(0 0.684375)"/>
       <use xlink:href="#DejaVuSans-30" transform="translate(63.623047 0.684375)"/>
       <use xlink:href="#DejaVuSans-2212" transform="translate(128.203125 38.965625)scale(0.7)"/>
       <use xlink:href="#DejaVuSans-31" transform="translate(186.855469 38.965625)scale(0.7)"/>
      </g>
     </g>
    </g>
    <g id="ytick_20">
     <g id="line2d_36">
      <g>
       <use xlink:href="#ma0157d4672" x="198.677295" y="69.050975" style="stroke: #000000; stroke-width: 0.8"/>
      </g>
     </g>
     <g id="text_18">
      <!-- $\mathdefault{10^{0}}$ -->
      <g transform="translate(179.357295 71.710428)scale(0.07 -0.07)">
       <use xlink:href="#DejaVuSans-31" transform="translate(0 0.765625)"/>
       <use xlink:href="#DejaVuSans-30" transform="translate(63.623047 0.765625)"/>
       <use xlink:href="#DejaVuSans-30" transform="translate(128.203125 39.046875)scale(0.7)"/>
      </g>
     </g>
    </g>
    <g id="ytick_21">
     <g id="line2d_37">
      <g>
       <use xlink:href="#ma0157d4672" x="198.677295" y="49.346198" style="stroke: #000000; stroke-width: 0.8"/>
      </g>
     </g>
     <g id="text_19">
      <!-- $\mathdefault{10^{1}}$ -->
      <g transform="translate(179.357295 52.005652)scale(0.07 -0.07)">
       <use xlink:href="#DejaVuSans-31" transform="translate(0 0.684375)"/>
       <use xlink:href="#DejaVuSans-30" transform="translate(63.623047 0.684375)"/>
       <use xlink:href="#DejaVuSans-31" transform="translate(128.203125 38.965625)scale(0.7)"/>
      </g>
     </g>
    </g>
    <g id="ytick_22">
     <g id="line2d_38">
      <g>
       <use xlink:href="#ma0157d4672" x="198.677295" y="29.641422" style="stroke: #000000; stroke-width: 0.8"/>
      </g>
     </g>
     <g id="text_20">
      <!-- $\mathdefault{10^{2}}$ -->
      <g transform="translate(179.357295 32.300875)scale(0.07 -0.07)">
       <use xlink:href="#DejaVuSans-31" transform="translate(0 0.765625)"/>
       <use xlink:href="#DejaVuSans-30" transform="translate(63.623047 0.765625)"/>
       <use xlink:href="#DejaVuSans-32" transform="translate(128.203125 39.046875)scale(0.7)"/>
      </g>
     </g>
    </g>
    <g id="ytick_23">
     <g id="line2d_39">
      <g>
       <use xlink:href="#m3b68dac5ef" x="198.677295" y="141.938352" style="stroke: #000000; stroke-width: 0.6"/>
      </g>
     </g>
    </g>
    <g id="ytick_24">
     <g id="line2d_40">
      <g>
       <use xlink:href="#m3b68dac5ef" x="198.677295" y="138.468513" style="stroke: #000000; stroke-width: 0.6"/>
      </g>
     </g>
    </g>
    <g id="ytick_25">
     <g id="line2d_41">
      <g>
       <use xlink:href="#m3b68dac5ef" x="198.677295" y="136.006623" style="stroke: #000000; stroke-width: 0.6"/>
      </g>
     </g>
    </g>
    <g id="ytick_26">
     <g id="line2d_42">
      <g>
       <use xlink:href="#m3b68dac5ef" x="198.677295" y="134.097033" style="stroke: #000000; stroke-width: 0.6"/>
      </g>
     </g>
    </g>
    <g id="ytick_27">
     <g id="line2d_43">
      <g>
       <use xlink:href="#m3b68dac5ef" x="198.677295" y="132.536784" style="stroke: #000000; stroke-width: 0.6"/>
      </g>
     </g>
    </g>
    <g id="ytick_28">
     <g id="line2d_44">
      <g>
       <use xlink:href="#m3b68dac5ef" x="198.677295" y="131.217612" style="stroke: #000000; stroke-width: 0.6"/>
      </g>
     </g>
    </g>
    <g id="ytick_29">
     <g id="line2d_45">
      <g>
       <use xlink:href="#m3b68dac5ef" x="198.677295" y="130.074894" style="stroke: #000000; stroke-width: 0.6"/>
      </g>
     </g>
    </g>
    <g id="ytick_30">
     <g id="line2d_46">
      <g>
       <use xlink:href="#m3b68dac5ef" x="198.677295" y="129.066945" style="stroke: #000000; stroke-width: 0.6"/>
      </g>
     </g>
    </g>
    <g id="ytick_31">
     <g id="line2d_47">
      <g>
       <use xlink:href="#m3b68dac5ef" x="198.677295" y="122.233575" style="stroke: #000000; stroke-width: 0.6"/>
      </g>
     </g>
    </g>
    <g id="ytick_32">
     <g id="line2d_48">
      <g>
       <use xlink:href="#m3b68dac5ef" x="198.677295" y="118.763736" style="stroke: #000000; stroke-width: 0.6"/>
      </g>
     </g>
    </g>
    <g id="ytick_33">
     <g id="line2d_49">
      <g>
       <use xlink:href="#m3b68dac5ef" x="198.677295" y="116.301846" style="stroke: #000000; stroke-width: 0.6"/>
      </g>
     </g>
    </g>
    <g id="ytick_34">
     <g id="line2d_50">
      <g>
       <use xlink:href="#m3b68dac5ef" x="198.677295" y="114.392256" style="stroke: #000000; stroke-width: 0.6"/>
      </g>
     </g>
    </g>
    <g id="ytick_35">
     <g id="line2d_51">
      <g>
       <use xlink:href="#m3b68dac5ef" x="198.677295" y="112.832008" style="stroke: #000000; stroke-width: 0.6"/>
      </g>
     </g>
    </g>
    <g id="ytick_36">
     <g id="line2d_52">
      <g>
       <use xlink:href="#m3b68dac5ef" x="198.677295" y="111.512836" style="stroke: #000000; stroke-width: 0.6"/>
      </g>
     </g>
    </g>
    <g id="ytick_37">
     <g id="line2d_53">
      <g>
       <use xlink:href="#m3b68dac5ef" x="198.677295" y="110.370118" style="stroke: #000000; stroke-width: 0.6"/>
      </g>
     </g>
    </g>
    <g id="ytick_38">
     <g id="line2d_54">
      <g>
       <use xlink:href="#m3b68dac5ef" x="198.677295" y="109.362169" style="stroke: #000000; stroke-width: 0.6"/>
      </g>
     </g>
    </g>
    <g id="ytick_39">
     <g id="line2d_55">
      <g>
       <use xlink:href="#m3b68dac5ef" x="198.677295" y="102.528799" style="stroke: #000000; stroke-width: 0.6"/>
      </g>
     </g>
    </g>
    <g id="ytick_40">
     <g id="line2d_56">
      <g>
       <use xlink:href="#m3b68dac5ef" x="198.677295" y="99.05896" style="stroke: #000000; stroke-width: 0.6"/>
      </g>
     </g>
    </g>
    <g id="ytick_41">
     <g id="line2d_57">
      <g>
       <use xlink:href="#m3b68dac5ef" x="198.677295" y="96.59707" style="stroke: #000000; stroke-width: 0.6"/>
      </g>
     </g>
    </g>
    <g id="ytick_42">
     <g id="line2d_58">
      <g>
       <use xlink:href="#m3b68dac5ef" x="198.677295" y="94.68748" style="stroke: #000000; stroke-width: 0.6"/>
      </g>
     </g>
    </g>
    <g id="ytick_43">
     <g id="line2d_59">
      <g>
       <use xlink:href="#m3b68dac5ef" x="198.677295" y="93.127231" style="stroke: #000000; stroke-width: 0.6"/>
      </g>
     </g>
    </g>
    <g id="ytick_44">
     <g id="line2d_60">
      <g>
       <use xlink:href="#m3b68dac5ef" x="198.677295" y="91.80806" style="stroke: #000000; stroke-width: 0.6"/>
      </g>
     </g>
    </g>
    <g id="ytick_45">
     <g id="line2d_61">
      <g>
       <use xlink:href="#m3b68dac5ef" x="198.677295" y="90.665341" style="stroke: #000000; stroke-width: 0.6"/>
      </g>
     </g>
    </g>
    <g id="ytick_46">
     <g id="line2d_62">
      <g>
       <use xlink:href="#m3b68dac5ef" x="198.677295" y="89.657392" style="stroke: #000000; stroke-width: 0.6"/>
      </g>
     </g>
    </g>
    <g id="ytick_47">
     <g id="line2d_63">
      <g>
       <use xlink:href="#m3b68dac5ef" x="198.677295" y="82.824022" style="stroke: #000000; stroke-width: 0.6"/>
      </g>
     </g>
    </g>
    <g id="ytick_48">
     <g id="line2d_64">
      <g>
       <use xlink:href="#m3b68dac5ef" x="198.677295" y="79.354184" style="stroke: #000000; stroke-width: 0.6"/>
      </g>
     </g>
    </g>
    <g id="ytick_49">
     <g id="line2d_65">
      <g>
       <use xlink:href="#m3b68dac5ef" x="198.677295" y="76.892294" style="stroke: #000000; stroke-width: 0.6"/>
      </g>
     </g>
    </g>
    <g id="ytick_50">
     <g id="line2d_66">
      <g>
       <use xlink:href="#m3b68dac5ef" x="198.677295" y="74.982704" style="stroke: #000000; stroke-width: 0.6"/>
      </g>
     </g>
    </g>
    <g id="ytick_51">
     <g id="line2d_67">
      <g>
       <use xlink:href="#m3b68dac5ef" x="198.677295" y="73.422455" style="stroke: #000000; stroke-width: 0.6"/>
      </g>
     </g>
    </g>
    <g id="ytick_52">
     <g id="line2d_68">
      <g>
       <use xlink:href="#m3b68dac5ef" x="198.677295" y="72.103283" style="stroke: #000000; stroke-width: 0.6"/>
      </g>
     </g>
    </g>
    <g id="ytick_53">
     <g id="line2d_69">
      <g>
       <use xlink:href="#m3b68dac5ef" x="198.677295" y="70.960565" style="stroke: #000000; stroke-width: 0.6"/>
      </g>
     </g>
    </g>
    <g id="ytick_54">
     <g id="line2d_70">
      <g>
       <use xlink:href="#m3b68dac5ef" x="198.677295" y="69.952616" style="stroke: #000000; stroke-width: 0.6"/>
      </g>
     </g>
    </g>
    <g id="ytick_55">
     <g id="line2d_71">
      <g>
       <use xlink:href="#m3b68dac5ef" x="198.677295" y="63.119246" style="stroke: #000000; stroke-width: 0.6"/>
      </g>
     </g>
    </g>
    <g id="ytick_56">
     <g id="line2d_72">
      <g>
       <use xlink:href="#m3b68dac5ef" x="198.677295" y="59.649407" style="stroke: #000000; stroke-width: 0.6"/>
      </g>
     </g>
    </g>
    <g id="ytick_57">
     <g id="line2d_73">
      <g>
       <use xlink:href="#m3b68dac5ef" x="198.677295" y="57.187517" style="stroke: #000000; stroke-width: 0.6"/>
      </g>
     </g>
    </g>
    <g id="ytick_58">
     <g id="line2d_74">
      <g>
       <use xlink:href="#m3b68dac5ef" x="198.677295" y="55.277927" style="stroke: #000000; stroke-width: 0.6"/>
      </g>
     </g>
    </g>
    <g id="ytick_59">
     <g id="line2d_75">
      <g>
       <use xlink:href="#m3b68dac5ef" x="198.677295" y="53.717678" style="stroke: #000000; stroke-width: 0.6"/>
      </g>
     </g>
    </g>
    <g id="ytick_60">
     <g id="line2d_76">
      <g>
       <use xlink:href="#m3b68dac5ef" x="198.677295" y="52.398507" style="stroke: #000000; stroke-width: 0.6"/>
      </g>
     </g>
    </g>
    <g id="ytick_61">
     <g id="line2d_77">
      <g>
       <use xlink:href="#m3b68dac5ef" x="198.677295" y="51.255789" style="stroke: #000000; stroke-width: 0.6"/>
      </g>
     </g>
    </g>
    <g id="ytick_62">
     <g id="line2d_78">
      <g>
       <use xlink:href="#m3b68dac5ef" x="198.677295" y="50.24784" style="stroke: #000000; stroke-width: 0.6"/>
      </g>
     </g>
    </g>
    <g id="ytick_63">
     <g id="line2d_79">
      <g>
       <use xlink:href="#m3b68dac5ef" x="198.677295" y="43.41447" style="stroke: #000000; stroke-width: 0.6"/>
      </g>
     </g>
    </g>
    <g id="ytick_64">
     <g id="line2d_80">
      <g>
       <use xlink:href="#m3b68dac5ef" x="198.677295" y="39.944631" style="stroke: #000000; stroke-width: 0.6"/>
      </g>
     </g>
    </g>
    <g id="ytick_65">
     <g id="line2d_81">
      <g>
       <use xlink:href="#m3b68dac5ef" x="198.677295" y="37.482741" style="stroke: #000000; stroke-width: 0.6"/>
      </g>
     </g>
    </g>
    <g id="ytick_66">
     <g id="line2d_82">
      <g>
       <use xlink:href="#m3b68dac5ef" x="198.677295" y="35.573151" style="stroke: #000000; stroke-width: 0.6"/>
      </g>
     </g>
    </g>
    <g id="ytick_67">
     <g id="line2d_83">
      <g>
       <use xlink:href="#m3b68dac5ef" x="198.677295" y="34.012902" style="stroke: #000000; stroke-width: 0.6"/>
      </g>
     </g>
    </g>
    <g id="ytick_68">
     <g id="line2d_84">
      <g>
       <use xlink:href="#m3b68dac5ef" x="198.677295" y="32.693731" style="stroke: #000000; stroke-width: 0.6"/>
      </g>
     </g>
    </g>
    <g id="ytick_69">
     <g id="line2d_85">
      <g>
       <use xlink:href="#m3b68dac5ef" x="198.677295" y="31.551012" style="stroke: #000000; stroke-width: 0.6"/>
      </g>
     </g>
    </g>
    <g id="ytick_70">
     <g id="line2d_86">
      <g>
       <use xlink:href="#m3b68dac5ef" x="198.677295" y="30.543063" style="stroke: #000000; stroke-width: 0.6"/>
      </g>
     </g>
    </g>
    <g id="ytick_71">
     <g id="line2d_87">
      <g>
       <use xlink:href="#m3b68dac5ef" x="198.677295" y="23.709693" style="stroke: #000000; stroke-width: 0.6"/>
      </g>
     </g>
    </g>
    <g id="text_21">
     <!-- Scale -->
     <g transform="translate(169.563545 93.9425)rotate(-90)scale(0.08 -0.08)">
      <use xlink:href="#DejaVuSans-53"/>
      <use xlink:href="#DejaVuSans-63" x="63.476562"/>
      <use xlink:href="#DejaVuSans-61" x="118.457031"/>
      <use xlink:href="#DejaVuSans-6c" x="179.736328"/>
      <use xlink:href="#DejaVuSans-65" x="207.519531"/>
     </g>
    </g>
   </g>
   <g id="line2d_88">
    <path d="M 203.494259 115.260133 
L 205.421044 115.271779 
L 207.34783 115.278271 
L 209.274616 115.282956 
L 211.201401 115.291148 
L 213.128187 115.30955 
L 215.054973 115.317243 
L 216.981758 115.340598 
L 218.908544 115.36386 
L 220.835329 115.394168 
L 222.762115 115.435627 
L 224.688901 115.474761 
L 226.615686 115.536674 
L 228.542472 115.608544 
L 230.469257 115.69515 
L 232.396043 115.810942 
L 234.322829 115.942704 
L 236.249614 116.112956 
L 238.1764 116.325921 
L 240.103186 116.584991 
L 242.029971 116.88948 
L 243.956757 117.263645 
L 245.883542 117.717043 
L 247.810328 118.259512 
L 249.737114 118.897385 
L 251.663899 119.642861 
L 253.590685 120.506216 
L 255.51747 121.505058 
L 257.444256 122.639998 
L 259.371042 123.932973 
L 261.297827 125.382532 
L 263.224613 127.000934 
L 265.151399 128.745157 
L 267.078184 130.598905 
L 269.00497 132.502908 
L 270.931755 134.347188 
L 272.858541 136.026863 
L 274.785327 137.372835 
L 276.712112 138.185209 
L 278.638898 138.289091 
L 280.565684 137.604076 
L 282.492469 136.17404 
L 284.419255 134.1368 
L 286.34604 131.825449 
L 288.272826 129.488812 
L 290.199612 127.026656 
L 292.126397 124.412374 
L 294.053183 121.866837 
L 295.979968 119.571488 
L 297.906754 117.460363 
L 299.83354 114.392256 
" clip-path="url(#pce1cc63d23)" style="fill: none; stroke: #bdd7e7; stroke-width: 1.5; stroke-linecap: square"/>
   </g>
   <g id="line2d_89">
    <path d="M 203.494259 94.05065 
L 205.421044 94.055835 
L 207.34783 94.062549 
L 209.274616 94.06615 
L 211.201401 94.091126 
L 213.128187 94.107507 
L 215.054973 94.12221 
L 216.981758 94.154506 
L 218.908544 94.187829 
L 220.835329 94.233095 
L 222.762115 94.288983 
L 224.688901 94.354159 
L 226.615686 94.44028 
L 228.542472 94.537955 
L 230.469257 94.659349 
L 232.396043 94.820168 
L 234.322829 95.029468 
L 236.249614 95.248623 
L 238.1764 95.557648 
L 240.103186 95.902046 
L 242.029971 96.350885 
L 243.956757 96.846217 
L 245.883542 97.462131 
L 247.810328 98.191054 
L 249.737114 99.031605 
L 251.663899 99.994785 
L 253.590685 101.064474 
L 255.51747 102.29011 
L 257.444256 103.594758 
L 259.371042 105.037607 
L 261.297827 106.586504 
L 263.224613 108.252775 
L 265.151399 109.959505 
L 267.078184 111.760799 
L 269.00497 113.597602 
L 270.931755 115.433023 
L 272.858541 117.25486 
L 274.785327 118.996994 
L 276.712112 120.558925 
L 278.638898 121.774298 
L 280.565684 122.438514 
L 282.492469 122.374975 
L 284.419255 121.519969 
L 286.34604 119.916598 
L 288.272826 117.601173 
L 290.199612 114.627792 
L 292.126397 111.113612 
L 294.053183 107.23597 
L 295.979968 103.165328 
L 297.906754 99.088759 
L 299.83354 94.68748 
" clip-path="url(#pce1cc63d23)" style="fill: none; stroke: #6baed6; stroke-width: 1.5; stroke-linecap: square"/>
   </g>
   <g id="line2d_90">
    <path d="M 203.494259 74.555139 
L 205.421044 74.561821 
L 207.34783 74.571697 
L 209.274616 74.582528 
L 211.201401 74.597875 
L 213.128187 74.615911 
L 215.054973 74.637615 
L 216.981758 74.666916 
L 218.908544 74.703344 
L 220.835329 74.747192 
L 222.762115 74.804145 
L 224.688901 74.874122 
L 226.615686 74.96245 
L 228.542472 75.071114 
L 230.469257 75.208671 
L 232.396043 75.379517 
L 234.322829 75.591825 
L 236.249614 75.856495 
L 238.1764 76.185921 
L 240.103186 76.59495 
L 242.029971 77.100595 
L 243.956757 77.718532 
L 245.883542 78.476931 
L 247.810328 79.387896 
L 249.737114 80.468714 
L 251.663899 81.733912 
L 253.590685 83.159153 
L 255.51747 84.760974 
L 257.444256 86.496818 
L 259.371042 88.363772 
L 261.297827 90.331328 
L 263.224613 92.363891 
L 265.151399 94.428737 
L 267.078184 96.498461 
L 269.00497 98.55203 
L 270.931755 100.545485 
L 272.858541 102.45211 
L 274.785327 104.217477 
L 276.712112 105.771168 
L 278.638898 107.013257 
L 280.565684 107.822188 
L 282.492469 108.041375 
L 284.419255 107.526981 
L 286.34604 106.174674 
L 288.272826 103.942426 
L 290.199612 100.85393 
L 292.126397 96.926037 
L 294.053183 92.148162 
L 295.979968 86.522316 
L 297.906754 80.176357 
L 299.83354 74.982704 
" clip-path="url(#pce1cc63d23)" style="fill: none; stroke: #2171b5; stroke-width: 1.5; stroke-linecap: square"/>
   </g>
   <g id="line2d_91">
    <path d="M 203.494259 106.284843 
L 205.421044 106.465656 
L 207.34783 106.605287 
L 209.274616 106.836066 
L 211.201401 107.003185 
L 213.128187 107.128315 
L 215.054973 107.325292 
L 216.981758 107.455968 
L 218.908544 107.626865 
L 220.835329 107.814514 
L 222.762115 107.970372 
L 224.688901 108.183202 
L 226.615686 108.30667 
L 228.542472 108.529424 
L 230.469257 108.659625 
L 232.396043 108.856921 
L 234.322829 109.03917 
L 236.249614 109.18017 
L 238.1764 109.395568 
L 240.103186 109.532509 
L 242.029971 109.716755 
L 243.956757 109.895482 
L 245.883542 110.065834 
L 247.810328 110.211443 
L 249.737114 110.406233 
L 251.663899 110.597914 
L 253.590685 110.740522 
L 255.51747 110.874788 
L 257.444256 111.089836 
L 259.371042 111.27768 
L 261.297827 111.44014 
L 263.224613 111.593827 
L 265.151399 111.751808 
L 267.078184 111.892206 
L 269.00497 112.075476 
L 270.931755 112.234653 
L 272.858541 112.382001 
L 274.785327 112.555078 
L 276.712112 112.70891 
L 278.638898 112.875639 
L 280.565684 113.004464 
L 282.492469 113.178992 
L 284.419255 113.285775 
L 286.34604 113.45108 
L 288.272826 113.57652 
L 290.199612 113.678942 
L 292.126397 113.807143 
L 294.053183 113.909078 
L 295.979968 114.006291 
L 297.906754 114.141618 
L 299.83354 114.392256 
" clip-path="url(#pce1cc63d23)" style="fill: none; stroke: #fdbe85; stroke-width: 1.5; stroke-linecap: square"/>
   </g>
   <g id="line2d_92">
    <path d="M 203.494259 51.3393 
L 205.421044 52.245656 
L 207.34783 53.196127 
L 209.274616 54.154756 
L 211.201401 55.074389 
L 213.128187 56.065816 
L 215.054973 57.067125 
L 216.981758 58.026715 
L 218.908544 59.060235 
L 220.835329 60.102737 
L 222.762115 61.151319 
L 224.688901 62.220807 
L 226.615686 63.224075 
L 228.542472 64.300722 
L 230.469257 65.387953 
L 232.396043 66.480253 
L 234.322829 67.546713 
L 236.249614 68.612565 
L 238.1764 69.620365 
L 240.103186 70.666354 
L 242.029971 71.711534 
L 243.956757 72.755187 
L 245.883542 73.732875 
L 247.810328 74.75873 
L 249.737114 75.774555 
L 251.663899 76.770804 
L 253.590685 77.716714 
L 255.51747 78.654893 
L 257.444256 79.576946 
L 259.371042 80.444302 
L 261.297827 81.300306 
L 263.224613 82.120878 
L 265.151399 82.922082 
L 267.078184 83.711088 
L 269.00497 84.482299 
L 270.931755 85.244529 
L 272.858541 85.990141 
L 274.785327 86.70612 
L 276.712112 87.428571 
L 278.638898 88.13152 
L 280.565684 88.82981 
L 282.492469 89.509441 
L 284.419255 90.16341 
L 286.34604 90.809879 
L 288.272826 91.444137 
L 290.199612 92.04927 
L 292.126397 92.64063 
L 294.053183 93.215797 
L 295.979968 93.751427 
L 297.906754 94.237879 
L 299.83354 94.68748 
" clip-path="url(#pce1cc63d23)" style="fill: none; stroke: #fd8d3c; stroke-width: 1.5; stroke-linecap: square"/>
   </g>
   <g id="line2d_93">
    <path d="M 203.494259 28.070909 
L 205.421044 28.823901 
L 207.34783 29.558651 
L 209.274616 30.307136 
L 211.201401 31.112666 
L 213.128187 31.878168 
L 215.054973 32.657026 
L 216.981758 33.483964 
L 218.908544 34.274164 
L 220.835329 35.077916 
L 222.762115 35.894762 
L 224.688901 36.718287 
L 226.615686 37.591556 
L 228.542472 38.437361 
L 230.469257 39.296899 
L 232.396043 40.162895 
L 234.322829 41.044821 
L 236.249614 41.928865 
L 238.1764 42.838552 
L 240.103186 43.734662 
L 242.029971 44.638811 
L 243.956757 45.547374 
L 245.883542 46.485433 
L 247.810328 47.4142 
L 249.737114 48.350789 
L 251.663899 49.294938 
L 253.590685 50.253682 
L 255.51747 51.220075 
L 257.444256 52.192802 
L 259.371042 53.178653 
L 261.297827 54.170657 
L 263.224613 55.170284 
L 265.151399 56.177239 
L 267.078184 57.191549 
L 269.00497 58.213362 
L 270.931755 59.247213 
L 272.858541 60.294843 
L 274.785327 61.350679 
L 276.712112 62.41829 
L 278.638898 63.493766 
L 280.565684 64.577856 
L 282.492469 65.667455 
L 284.419255 66.761285 
L 286.34604 67.856771 
L 288.272826 68.952166 
L 290.199612 70.042078 
L 292.126397 71.122845 
L 294.053183 72.186893 
L 295.979968 73.221463 
L 297.906754 74.199605 
L 299.83354 74.982704 
" clip-path="url(#pce1cc63d23)" style="fill: none; stroke: #d94701; stroke-width: 1.5; stroke-linecap: square"/>
   </g>
   <g id="patch_8">
    <path d="M 198.677295 143.8 
L 198.677295 22.56 
" style="fill: none; stroke: #000000; stroke-width: 0.8; stroke-linejoin: miter; stroke-linecap: square"/>
   </g>
   <g id="patch_9">
    <path d="M 304.650504 143.8 
L 304.650504 22.56 
" style="fill: none; stroke: #000000; stroke-width: 0.8; stroke-linejoin: miter; stroke-linecap: square"/>
   </g>
   <g id="patch_10">
    <path d="M 198.677295 143.8 
L 304.650504 143.8 
" style="fill: none; stroke: #000000; stroke-width: 0.8; stroke-linejoin: miter; stroke-linecap: square"/>
   </g>
   <g id="patch_11">
    <path d="M 198.677295 22.56 
L 304.650504 22.56 
" style="fill: none; stroke: #000000; stroke-width: 0.8; stroke-linejoin: miter; stroke-linecap: square"/>
   </g>
   <g id="text_22">
    <!-- Fixed mutation rate -->
    <g transform="translate(212.518899 16.56)scale(0.08 -0.08)">
     <use xlink:href="#DejaVuSans-46"/>
     <use xlink:href="#DejaVuSans-69" x="50.269531"/>
     <use xlink:href="#DejaVuSans-78" x="78.052734"/>
     <use xlink:href="#DejaVuSans-65" x="134.107422"/>
     <use xlink:href="#DejaVuSans-64" x="195.630859"/>
     <use xlink:href="#DejaVuSans-20" x="259.107422"/>
     <use xlink:href="#DejaVuSans-6d" x="290.894531"/>
     <use xlink:href="#DejaVuSans-75" x="388.306641"/>
     <use xlink:href="#DejaVuSans-74" x="451.685547"/>
     <use xlink:href="#DejaVuSans-61" x="490.894531"/>
     <use xlink:href="#DejaVuSans-74" x="552.173828"/>
     <use xlink:href="#DejaVuSans-69" x="591.382812"/>
     <use xlink:href="#DejaVuSans-6f" x="619.166016"/>
     <use xlink:href="#DejaVuSans-6e" x="680.347656"/>
     <use xlink:href="#DejaVuSans-20" x="743.726562"/>
     <use xlink:href="#DejaVuSans-72" x="775.513672"/>
     <use xlink:href="#DejaVuSans-61" x="816.626953"/>
     <use xlink:href="#DejaVuSans-74" x="877.90625"/>
     <use xlink:href="#DejaVuSans-65" x="917.115234"/>
    </g>
   </g>
  </g>
  <g id="axes_3">
   <g id="patch_12">
    <path d="M 351.226791 143.8 
L 457.2 143.8 
L 457.2 22.56 
L 351.226791 22.56 
z
" style="fill: #ffffff"/>
   </g>
   <g id="line2d_94">
    <path d="M 351.226791 110.671757 
L 457.2 110.671757 
" clip-path="url(#pe708ff8209)" style="fill: none; stroke-dasharray: 3.7,1.6; stroke-dashoffset: 0; stroke: #808080"/>
   </g>
   <g id="matplotlib.axis_5">
    <g id="xtick_7">
     <g id="line2d_95">
      <g>
       <use xlink:href="#m4731df9be3" x="356.043755" y="143.8" style="stroke: #000000; stroke-width: 0.8"/>
      </g>
     </g>
     <g id="text_23">
      <!-- 0 -->
      <g transform="translate(353.81688 156.118906)scale(0.07 -0.07)">
       <use xlink:href="#DejaVuSans-30"/>
      </g>
     </g>
    </g>
    <g id="xtick_8">
     <g id="line2d_96">
      <g>
       <use xlink:href="#m4731df9be3" x="394.579467" y="143.8" style="stroke: #000000; stroke-width: 0.8"/>
      </g>
     </g>
     <g id="text_24">
      <!-- 10000 -->
      <g transform="translate(383.445092 156.118906)scale(0.07 -0.07)">
       <use xlink:href="#DejaVuSans-31"/>
       <use xlink:href="#DejaVuSans-30" x="63.623047"/>
       <use xlink:href="#DejaVuSans-30" x="127.246094"/>
       <use xlink:href="#DejaVuSans-30" x="190.869141"/>
       <use xlink:href="#DejaVuSans-30" x="254.492188"/>
      </g>
     </g>
    </g>
    <g id="xtick_9">
     <g id="line2d_97">
      <g>
       <use xlink:href="#m4731df9be3" x="433.11518" y="143.8" style="stroke: #000000; stroke-width: 0.8"/>
      </g>
     </g>
     <g id="text_25">
      <!-- 20000 -->
      <g transform="translate(421.980805 156.118906)scale(0.07 -0.07)">
       <use xlink:href="#DejaVuSans-32"/>
       <use xlink:href="#DejaVuSans-30" x="63.623047"/>
       <use xlink:href="#DejaVuSans-30" x="127.246094"/>
       <use xlink:href="#DejaVuSans-30" x="190.869141"/>
       <use xlink:href="#DejaVuSans-30" x="254.492188"/>
      </g>
     </g>
    </g>
    <g id="text_26">
     <!-- Generations ago -->
     <g transform="translate(371.105896 167.653437)scale(0.08 -0.08)">
      <use xlink:href="#DejaVuSans-47"/>
      <use xlink:href="#DejaVuSans-65" x="77.490234"/>
      <use xlink:href="#DejaVuSans-6e" x="139.013672"/>
      <use xlink:href="#DejaVuSans-65" x="202.392578"/>
      <use xlink:href="#DejaVuSans-72" x="263.916016"/>
      <use xlink:href="#DejaVuSans-61" x="305.029297"/>
      <use xlink:href="#DejaVuSans-74" x="366.308594"/>
      <use xlink:href="#DejaVuSans-69" x="405.517578"/>
      <use xlink:href="#DejaVuSans-6f" x="433.300781"/>
      <use xlink:href="#DejaVuSans-6e" x="494.482422"/>
      <use xlink:href="#DejaVuSans-73" x="557.861328"/>
      <use xlink:href="#DejaVuSans-20" x="609.960938"/>
      <use xlink:href="#DejaVuSans-61" x="641.748047"/>
      <use xlink:href="#DejaVuSans-67" x="703.027344"/>
      <use xlink:href="#DejaVuSans-6f" x="766.503906"/>
     </g>
    </g>
   </g>
   <g id="matplotlib.axis_6">
    <g id="ytick_72">
     <g id="line2d_98">
      <g>
       <use xlink:href="#ma0157d4672" x="351.226791" y="140.042343" style="stroke: #000000; stroke-width: 0.8"/>
      </g>
     </g>
     <g id="text_27">
      <!-- 0.5 -->
      <g transform="translate(333.094604 142.701796)scale(0.07 -0.07)">
       <defs>
        <path id="DejaVuSans-2e" d="M 684 794 
L 1344 794 
L 1344 0 
L 684 0 
L 684 794 
z
" transform="scale(0.015625)"/>
        <path id="DejaVuSans-35" d="M 691 4666 
L 3169 4666 
L 3169 4134 
L 1269 4134 
L 1269 2991 
Q 1406 3038 1543 3061 
Q 1681 3084 1819 3084 
Q 2600 3084 3056 2656 
Q 3513 2228 3513 1497 
Q 3513 744 3044 326 
Q 2575 -91 1722 -91 
Q 1428 -91 1123 -41 
Q 819 9 494 109 
L 494 744 
Q 775 591 1075 516 
Q 1375 441 1709 441 
Q 2250 441 2565 725 
Q 2881 1009 2881 1497 
Q 2881 1984 2565 2268 
Q 2250 2553 1709 2553 
Q 1456 2553 1204 2497 
Q 953 2441 691 2322 
L 691 4666 
z
" transform="scale(0.015625)"/>
       </defs>
       <use xlink:href="#DejaVuSans-30"/>
       <use xlink:href="#DejaVuSans-2e" x="63.623047"/>
       <use xlink:href="#DejaVuSans-35" x="95.410156"/>
      </g>
     </g>
    </g>
    <g id="ytick_73">
     <g id="line2d_99">
      <g>
       <use xlink:href="#ma0157d4672" x="351.226791" y="110.671757" style="stroke: #000000; stroke-width: 0.8"/>
      </g>
     </g>
     <g id="text_28">
      <!-- 1.0 -->
      <g transform="translate(333.094604 113.331211)scale(0.07 -0.07)">
       <use xlink:href="#DejaVuSans-31"/>
       <use xlink:href="#DejaVuSans-2e" x="63.623047"/>
       <use xlink:href="#DejaVuSans-30" x="95.410156"/>
      </g>
     </g>
    </g>
    <g id="ytick_74">
     <g id="line2d_100">
      <g>
       <use xlink:href="#ma0157d4672" x="351.226791" y="81.301172" style="stroke: #000000; stroke-width: 0.8"/>
      </g>
     </g>
     <g id="text_29">
      <!-- 1.5 -->
      <g transform="translate(333.094604 83.960625)scale(0.07 -0.07)">
       <use xlink:href="#DejaVuSans-31"/>
       <use xlink:href="#DejaVuSans-2e" x="63.623047"/>
       <use xlink:href="#DejaVuSans-35" x="95.410156"/>
      </g>
     </g>
    </g>
    <g id="ytick_75">
     <g id="line2d_101">
      <g>
       <use xlink:href="#ma0157d4672" x="351.226791" y="51.930586" style="stroke: #000000; stroke-width: 0.8"/>
      </g>
     </g>
     <g id="text_30">
      <!-- 2.0 -->
      <g transform="translate(333.094604 54.590039)scale(0.07 -0.07)">
       <use xlink:href="#DejaVuSans-32"/>
       <use xlink:href="#DejaVuSans-2e" x="63.623047"/>
       <use xlink:href="#DejaVuSans-30" x="95.410156"/>
      </g>
     </g>
    </g>
    <g id="ytick_76">
     <g id="line2d_102">
      <g>
       <use xlink:href="#ma0157d4672" x="351.226791" y="22.56" style="stroke: #000000; stroke-width: 0.8"/>
      </g>
     </g>
     <g id="text_31">
      <!-- 2.5 -->
      <g transform="translate(333.094604 25.219453)scale(0.07 -0.07)">
       <use xlink:href="#DejaVuSans-32"/>
       <use xlink:href="#DejaVuSans-2e" x="63.623047"/>
       <use xlink:href="#DejaVuSans-35" x="95.410156"/>
      </g>
     </g>
    </g>
    <g id="text_32">
     <!-- Relative mutation rate -->
     <g transform="translate(327.430854 128.09125)rotate(-90)scale(0.08 -0.08)">
      <defs>
       <path id="DejaVuSans-52" d="M 2841 2188 
Q 3044 2119 3236 1894 
Q 3428 1669 3622 1275 
L 4263 0 
L 3584 0 
L 2988 1197 
Q 2756 1666 2539 1819 
Q 2322 1972 1947 1972 
L 1259 1972 
L 1259 0 
L 628 0 
L 628 4666 
L 2053 4666 
Q 2853 4666 3247 4331 
Q 3641 3997 3641 3322 
Q 3641 2881 3436 2590 
Q 3231 2300 2841 2188 
z
M 1259 4147 
L 1259 2491 
L 2053 2491 
Q 2509 2491 2742 2702 
Q 2975 2913 2975 3322 
Q 2975 3731 2742 3939 
Q 2509 4147 2053 4147 
L 1259 4147 
z
" transform="scale(0.015625)"/>
       <path id="DejaVuSans-76" d="M 191 3500 
L 800 3500 
L 1894 563 
L 2988 3500 
L 3597 3500 
L 2284 0 
L 1503 0 
L 191 3500 
z
" transform="scale(0.015625)"/>
      </defs>
      <use xlink:href="#DejaVuSans-52"/>
      <use xlink:href="#DejaVuSans-65" x="64.982422"/>
      <use xlink:href="#DejaVuSans-6c" x="126.505859"/>
      <use xlink:href="#DejaVuSans-61" x="154.289062"/>
      <use xlink:href="#DejaVuSans-74" x="215.568359"/>
      <use xlink:href="#DejaVuSans-69" x="254.777344"/>
      <use xlink:href="#DejaVuSans-76" x="282.560547"/>
      <use xlink:href="#DejaVuSans-65" x="341.740234"/>
      <use xlink:href="#DejaVuSans-20" x="403.263672"/>
      <use xlink:href="#DejaVuSans-6d" x="435.050781"/>
      <use xlink:href="#DejaVuSans-75" x="532.462891"/>
      <use xlink:href="#DejaVuSans-74" x="595.841797"/>
      <use xlink:href="#DejaVuSans-61" x="635.050781"/>
      <use xlink:href="#DejaVuSans-74" x="696.330078"/>
      <use xlink:href="#DejaVuSans-69" x="735.539062"/>
      <use xlink:href="#DejaVuSans-6f" x="763.322266"/>
      <use xlink:href="#DejaVuSans-6e" x="824.503906"/>
      <use xlink:href="#DejaVuSans-20" x="887.882812"/>
      <use xlink:href="#DejaVuSans-72" x="919.669922"/>
      <use xlink:href="#DejaVuSans-61" x="960.783203"/>
      <use xlink:href="#DejaVuSans-74" x="1022.0625"/>
      <use xlink:href="#DejaVuSans-65" x="1061.271484"/>
     </g>
    </g>
   </g>
   <g id="line2d_103">
    <path d="M 356.043755 111.274084 
L 357.970541 111.268348 
L 359.897326 111.256875 
L 361.824112 111.245402 
L 363.750898 111.228192 
L 365.677683 111.210983 
L 367.604469 111.182301 
L 369.531254 111.153619 
L 371.45804 111.113464 
L 373.384826 111.067572 
L 375.311611 111.004471 
L 377.238397 110.924161 
L 379.165182 110.832378 
L 381.091968 110.711913 
L 383.018754 110.562765 
L 384.945539 110.373462 
L 386.872325 110.144005 
L 388.799111 109.857183 
L 390.725896 109.501523 
L 392.652682 109.059817 
L 394.579467 108.520592 
L 396.506253 107.849428 
L 398.433039 107.02338 
L 400.359824 106.002293 
L 402.28661 104.757485 
L 404.213396 103.231592 
L 406.140181 101.367248 
L 408.066967 99.118562 
L 409.993752 96.416698 
L 411.920538 93.210026 
L 413.847324 89.441184 
L 415.774109 85.104433 
L 417.700895 80.171092 
L 419.62768 74.738681 
L 421.554466 68.927665 
L 423.481252 62.927346 
L 425.408037 57.081911 
L 427.334823 51.792911 
L 429.261609 47.519262 
L 431.188394 44.73135 
L 433.11518 43.807783 
L 435.041965 45.018173 
L 436.968751 48.419883 
L 438.895537 53.87524 
L 440.822322 61.03432 
L 442.749108 69.443945 
L 444.675893 78.576361 
L 446.602679 87.909553 
L 448.529465 96.875613 
L 450.45625 104.877951 
L 452.383036 110.671757 
" clip-path="url(#pe708ff8209)" style="fill: none; stroke: #bdd7e7; stroke-width: 1.5; stroke-linecap: square"/>
   </g>
   <g id="line2d_104">
    <path d="M 356.043755 110.539819 
L 357.970541 110.534083 
L 359.897326 110.528346 
L 361.824112 110.52261 
L 363.750898 110.511137 
L 365.677683 110.499664 
L 367.604469 110.482455 
L 369.531254 110.465246 
L 371.45804 110.436563 
L 373.384826 110.407881 
L 375.311611 110.367726 
L 377.238397 110.321834 
L 379.165182 110.258734 
L 381.091968 110.18416 
L 383.018754 110.092377 
L 384.945539 109.977648 
L 386.872325 109.834237 
L 388.799111 109.656407 
L 390.725896 109.432686 
L 392.652682 109.157337 
L 394.579467 108.818887 
L 396.506253 108.405863 
L 398.433039 107.889583 
L 400.359824 107.247101 
L 402.28661 106.461209 
L 404.213396 105.486013 
L 406.140181 104.269888 
L 408.066967 102.795622 
L 409.993752 100.982906 
L 411.920538 98.803058 
L 413.847324 96.18724 
L 415.774109 93.135453 
L 417.700895 89.567385 
L 419.62768 85.580558 
L 421.554466 81.203652 
L 423.481252 76.511242 
L 425.408037 71.767204 
L 427.334823 67.246887 
L 429.261609 63.26006 
L 431.188394 60.17959 
L 433.11518 58.361138 
L 435.041965 58.108734 
L 436.968751 59.628892 
L 438.895537 62.956028 
L 440.822322 67.963943 
L 442.749108 74.388758 
L 444.675893 81.880552 
L 446.602679 90.037774 
L 448.529465 98.303987 
L 450.45625 105.99082 
L 452.383036 110.671757 
" clip-path="url(#pe708ff8209)" style="fill: none; stroke: #6baed6; stroke-width: 1.5; stroke-linecap: square"/>
   </g>
   <g id="line2d_105">
    <path d="M 356.043755 110.155478 
L 357.970541 110.149741 
L 359.897326 110.144005 
L 361.824112 110.138268 
L 363.750898 110.126795 
L 365.677683 110.115323 
L 367.604469 110.098113 
L 369.531254 110.080904 
L 371.45804 110.057958 
L 373.384826 110.029276 
L 375.311611 109.989121 
L 377.238397 109.943229 
L 379.165182 109.885865 
L 381.091968 109.817028 
L 383.018754 109.725244 
L 384.945539 109.610516 
L 386.872325 109.472841 
L 388.799111 109.300748 
L 390.725896 109.088499 
L 392.652682 108.824623 
L 394.579467 108.497646 
L 396.506253 108.090358 
L 398.433039 107.597024 
L 400.359824 106.983225 
L 402.28661 106.220278 
L 404.213396 105.285238 
L 406.140181 104.126477 
L 408.066967 102.715312 
L 409.993752 100.988642 
L 411.920538 98.91205 
L 413.847324 96.416698 
L 415.774109 93.508321 
L 417.700895 90.106611 
L 419.62768 86.291877 
L 421.554466 82.081328 
L 423.481252 77.549538 
L 425.408037 72.931702 
L 427.334823 68.474486 
L 429.261609 64.476186 
L 431.188394 61.275251 
L 433.11518 59.233077 
L 435.041965 58.659433 
L 436.968751 59.789512 
L 438.895537 62.686416 
L 440.822322 67.292779 
L 442.749108 73.384881 
L 444.675893 80.65869 
L 446.602679 88.77002 
L 448.529465 97.208327 
L 450.45625 105.319657 
L 452.383036 110.671757 
" clip-path="url(#pe708ff8209)" style="fill: none; stroke: #2171b5; stroke-width: 1.5; stroke-linecap: square"/>
   </g>
   <g id="line2d_106">
    <path d="M 356.043755 139.038466 
L 357.970541 138.77459 
L 359.897326 138.504977 
L 361.824112 138.229627 
L 363.750898 137.942805 
L 365.677683 137.650247 
L 367.604469 137.346215 
L 369.531254 137.036447 
L 371.45804 136.715207 
L 373.384826 136.388229 
L 375.311611 136.049779 
L 377.238397 135.705593 
L 379.165182 135.349933 
L 381.091968 134.977065 
L 383.018754 134.598459 
L 384.945539 134.208381 
L 386.872325 133.80683 
L 388.799111 133.393806 
L 390.725896 132.96931 
L 392.652682 132.53334 
L 394.579467 132.080161 
L 396.506253 131.615509 
L 398.433039 131.133648 
L 400.359824 130.640314 
L 402.28661 130.129771 
L 404.213396 129.602018 
L 406.140181 129.057056 
L 408.066967 128.494884 
L 409.993752 127.915504 
L 411.920538 127.318914 
L 413.847324 126.705114 
L 415.774109 126.068369 
L 417.700895 125.414415 
L 419.62768 124.737515 
L 421.554466 124.043405 
L 423.481252 123.320613 
L 425.408037 122.580612 
L 427.334823 121.817665 
L 429.261609 121.026036 
L 431.188394 120.217198 
L 433.11518 119.379677 
L 435.041965 118.524947 
L 436.968751 117.641535 
L 438.895537 116.74665 
L 440.822322 115.828819 
L 442.749108 114.905252 
L 444.675893 113.970212 
L 446.602679 113.046645 
L 448.529465 112.15176 
L 450.45625 111.319975 
L 452.383036 110.671757 
" clip-path="url(#pe708ff8209)" style="fill: none; stroke: #fdbe85; stroke-width: 1.5; stroke-linecap: square"/>
   </g>
   <g id="line2d_107">
    <path d="M 356.043755 138.780326 
L 357.970541 138.533659 
L 359.897326 138.281255 
L 361.824112 138.017379 
L 363.750898 137.753503 
L 365.677683 137.478153 
L 367.604469 137.197068 
L 369.531254 136.904509 
L 371.45804 136.606214 
L 373.384826 136.296446 
L 375.311611 135.980942 
L 377.238397 135.653965 
L 379.165182 135.315515 
L 381.091968 134.971328 
L 383.018754 134.609932 
L 384.945539 134.2428 
L 386.872325 133.864195 
L 388.799111 133.46838 
L 390.725896 133.072566 
L 392.652682 132.653805 
L 394.579467 132.229309 
L 396.506253 131.787602 
L 398.433039 131.334424 
L 400.359824 130.858299 
L 402.28661 130.370701 
L 404.213396 129.865894 
L 406.140181 129.349614 
L 408.066967 128.810389 
L 409.993752 128.253954 
L 411.920538 127.68031 
L 413.847324 127.089456 
L 415.774109 126.481393 
L 417.700895 125.850384 
L 419.62768 125.19643 
L 421.554466 124.51953 
L 423.481252 123.819684 
L 425.408037 123.091156 
L 427.334823 122.339682 
L 429.261609 121.565262 
L 431.188394 120.756423 
L 433.11518 119.924639 
L 435.041965 119.064173 
L 436.968751 118.175024 
L 438.895537 117.257194 
L 440.822322 116.316417 
L 442.749108 115.346958 
L 444.675893 114.36029 
L 446.602679 113.362149 
L 448.529465 112.369744 
L 450.45625 111.411759 
L 452.383036 110.671757 
" clip-path="url(#pe708ff8209)" style="fill: none; stroke: #fd8d3c; stroke-width: 1.5; stroke-linecap: square"/>
   </g>
   <g id="line2d_108">
    <path d="M 356.043755 138.608233 
L 357.970541 138.373039 
L 359.897326 138.132108 
L 361.824112 137.879704 
L 363.750898 137.627301 
L 365.677683 137.363425 
L 367.604469 137.088075 
L 369.531254 136.812726 
L 371.45804 136.525904 
L 373.384826 136.227609 
L 375.311611 135.923578 
L 377.238397 135.608073 
L 379.165182 135.286832 
L 381.091968 134.948382 
L 383.018754 134.604196 
L 384.945539 134.2428 
L 386.872325 133.875668 
L 388.799111 133.497062 
L 390.725896 133.112721 
L 392.652682 132.71117 
L 394.579467 132.298146 
L 396.506253 131.867913 
L 398.433039 131.426207 
L 400.359824 130.967291 
L 402.28661 130.491166 
L 404.213396 129.997832 
L 406.140181 129.493025 
L 408.066967 128.965273 
L 409.993752 128.426047 
L 411.920538 127.863876 
L 413.847324 127.284495 
L 415.774109 126.687905 
L 417.700895 126.074106 
L 419.62768 125.431624 
L 421.554466 124.771933 
L 423.481252 124.08356 
L 425.408037 123.366505 
L 427.334823 122.626504 
L 429.261609 121.852084 
L 431.188394 121.048982 
L 433.11518 120.217198 
L 435.041965 119.356731 
L 436.968751 118.461846 
L 438.895537 117.538279 
L 440.822322 116.58603 
L 442.749108 115.605098 
L 444.675893 114.595484 
L 446.602679 113.562925 
L 448.529465 112.524628 
L 450.45625 111.503542 
L 452.383036 110.671757 
" clip-path="url(#pe708ff8209)" style="fill: none; stroke: #d94701; stroke-width: 1.5; stroke-linecap: square"/>
   </g>
   <g id="patch_13">
    <path d="M 351.226791 143.8 
L 351.226791 22.56 
" style="fill: none; stroke: #000000; stroke-width: 0.8; stroke-linejoin: miter; stroke-linecap: square"/>
   </g>
   <g id="patch_14">
    <path d="M 457.2 143.8 
L 457.2 22.56 
" style="fill: none; stroke: #000000; stroke-width: 0.8; stroke-linejoin: miter; stroke-linecap: square"/>
   </g>
   <g id="patch_15">
    <path d="M 351.226791 143.8 
L 457.2 143.8 
" style="fill: none; stroke: #000000; stroke-width: 0.8; stroke-linejoin: miter; stroke-linecap: square"/>
   </g>
   <g id="patch_16">
    <path d="M 351.226791 22.56 
L 457.2 22.56 
" style="fill: none; stroke: #000000; stroke-width: 0.8; stroke-linejoin: miter; stroke-linecap: square"/>
   </g>
   <g id="text_33">
    <!-- Fixed DFE -->
    <g transform="translate(384.669021 16.56)scale(0.08 -0.08)">
     <defs>
      <path id="DejaVuSans-44" d="M 1259 4147 
L 1259 519 
L 2022 519 
Q 2988 519 3436 956 
Q 3884 1394 3884 2338 
Q 3884 3275 3436 3711 
Q 2988 4147 2022 4147 
L 1259 4147 
z
M 628 4666 
L 1925 4666 
Q 3281 4666 3915 4102 
Q 4550 3538 4550 2338 
Q 4550 1131 3912 565 
Q 3275 0 1925 0 
L 628 0 
L 628 4666 
z
" transform="scale(0.015625)"/>
     </defs>
     <use xlink:href="#DejaVuSans-46"/>
     <use xlink:href="#DejaVuSans-69" x="50.269531"/>
     <use xlink:href="#DejaVuSans-78" x="78.052734"/>
     <use xlink:href="#DejaVuSans-65" x="134.107422"/>
     <use xlink:href="#DejaVuSans-64" x="195.630859"/>
     <use xlink:href="#DejaVuSans-20" x="259.107422"/>
     <use xlink:href="#DejaVuSans-44" x="290.894531"/>
     <use xlink:href="#DejaVuSans-46" x="367.896484"/>
     <use xlink:href="#DejaVuSans-45" x="425.416016"/>
    </g>
   </g>
   <g id="legend_1">
    <g id="text_34">
     <!-- ($\alpha$, $\beta$) -->
     <g transform="translate(370.259579 32.4183)scale(0.0579 -0.0579)">
      <defs>
       <path id="DejaVuSans-28" d="M 1984 4856 
Q 1566 4138 1362 3434 
Q 1159 2731 1159 2009 
Q 1159 1288 1364 580 
Q 1569 -128 1984 -844 
L 1484 -844 
Q 1016 -109 783 600 
Q 550 1309 550 2009 
Q 550 2706 781 3412 
Q 1013 4119 1484 4856 
L 1984 4856 
z
" transform="scale(0.015625)"/>
       <path id="DejaVuSans-Oblique-3b1" d="M 2619 1628 
L 2622 2350 
Q 2625 3088 2069 3091 
Q 1653 3094 1394 2747 
Q 1069 2319 959 1747 
Q 825 1059 994 731 
Q 1169 397 1547 397 
Q 1966 397 2319 1063 
L 2619 1628 
z
M 2166 3578 
Q 3141 3594 3128 2584 
Q 3128 2584 3616 3500 
L 4128 3500 
L 3119 1603 
L 3109 919 
Q 3109 766 3194 638 
Q 3291 488 3391 488 
L 3669 488 
L 3575 0 
L 3228 0 
Q 2934 0 2722 263 
Q 2622 394 2619 669 
Q 2416 334 2066 50 
Q 1900 -81 1453 -78 
Q 722 -72 456 397 
Q 184 884 353 1747 
Q 534 2675 1009 3097 
Q 1544 3569 2166 3578 
z
" transform="scale(0.015625)"/>
       <path id="DejaVuSans-2c" d="M 750 794 
L 1409 794 
L 1409 256 
L 897 -744 
L 494 -744 
L 750 256 
L 750 794 
z
" transform="scale(0.015625)"/>
       <path id="DejaVuSans-Oblique-3b2" d="M 872 216 
L 572 -1331 
L -6 -1331 
L 928 3478 
Q 1206 4903 2538 4903 
Q 3888 4903 3659 3700 
Q 3503 2844 2894 2531 
Q 3713 2250 3553 1416 
Q 3272 -69 1759 -66 
Q 1097 -63 872 216 
z
M 1019 966 
Q 1259 422 1875 425 
Q 2775 425 2966 1406 
Q 3138 2288 1675 2219 
L 1778 2750 
Q 2909 2731 3106 3750 
Q 3241 4438 2509 4434 
Q 1691 4434 1503 3459 
L 1019 966 
z
" transform="scale(0.015625)"/>
       <path id="DejaVuSans-29" d="M 513 4856 
L 1013 4856 
Q 1481 4119 1714 3412 
Q 1947 2706 1947 2009 
Q 1947 1309 1714 600 
Q 1481 -109 1013 -844 
L 513 -844 
Q 928 -128 1133 580 
Q 1338 1288 1338 2009 
Q 1338 2731 1133 3434 
Q 928 4138 513 4856 
z
" transform="scale(0.015625)"/>
      </defs>
      <use xlink:href="#DejaVuSans-28" transform="translate(0 0.390625)"/>
      <use xlink:href="#DejaVuSans-Oblique-3b1" transform="translate(39.013672 0.390625)"/>
      <use xlink:href="#DejaVuSans-2c" transform="translate(104.931641 0.390625)"/>
      <use xlink:href="#DejaVuSans-20" transform="translate(136.71875 0.390625)"/>
      <use xlink:href="#DejaVuSans-Oblique-3b2" transform="translate(168.505859 0.390625)"/>
      <use xlink:href="#DejaVuSans-29" transform="translate(232.324219 0.390625)"/>
     </g>
    </g>
    <g id="line2d_109">
     <path d="M 356.626791 39.093263 
L 358.126791 39.093263 
L 359.626791 39.093263 
" style="fill: none; stroke: #bdd7e7; stroke-width: 1.5; stroke-linecap: square"/>
    </g>
    <g id="text_35">
     <!-- (0.2, 0.005) -->
     <g transform="translate(364.426791 41.193263)scale(0.06 -0.06)">
      <use xlink:href="#DejaVuSans-28"/>
      <use xlink:href="#DejaVuSans-30" x="39.013672"/>
      <use xlink:href="#DejaVuSans-2e" x="102.636719"/>
      <use xlink:href="#DejaVuSans-32" x="134.423828"/>
      <use xlink:href="#DejaVuSans-2c" x="198.046875"/>
      <use xlink:href="#DejaVuSans-20" x="229.833984"/>
      <use xlink:href="#DejaVuSans-30" x="261.621094"/>
      <use xlink:href="#DejaVuSans-2e" x="325.244141"/>
      <use xlink:href="#DejaVuSans-30" x="357.03125"/>
      <use xlink:href="#DejaVuSans-30" x="420.654297"/>
      <use xlink:href="#DejaVuSans-35" x="484.277344"/>
      <use xlink:href="#DejaVuSans-29" x="547.900391"/>
     </g>
    </g>
    <g id="line2d_110">
     <path d="M 356.626791 47.900138 
L 358.126791 47.900138 
L 359.626791 47.900138 
" style="fill: none; stroke: #6baed6; stroke-width: 1.5; stroke-linecap: square"/>
    </g>
    <g id="text_36">
     <!-- (0.2, 0.05) -->
     <g transform="translate(364.426791 50.000138)scale(0.06 -0.06)">
      <use xlink:href="#DejaVuSans-28"/>
      <use xlink:href="#DejaVuSans-30" x="39.013672"/>
      <use xlink:href="#DejaVuSans-2e" x="102.636719"/>
      <use xlink:href="#DejaVuSans-32" x="134.423828"/>
      <use xlink:href="#DejaVuSans-2c" x="198.046875"/>
      <use xlink:href="#DejaVuSans-20" x="229.833984"/>
      <use xlink:href="#DejaVuSans-30" x="261.621094"/>
      <use xlink:href="#DejaVuSans-2e" x="325.244141"/>
      <use xlink:href="#DejaVuSans-30" x="357.03125"/>
      <use xlink:href="#DejaVuSans-35" x="420.654297"/>
      <use xlink:href="#DejaVuSans-29" x="484.277344"/>
     </g>
    </g>
    <g id="line2d_111">
     <path d="M 356.626791 56.707013 
L 358.126791 56.707013 
L 359.626791 56.707013 
" style="fill: none; stroke: #2171b5; stroke-width: 1.5; stroke-linecap: square"/>
    </g>
    <g id="text_37">
     <!-- (0.2, 0.5) -->
     <g transform="translate(364.426791 58.807013)scale(0.06 -0.06)">
      <use xlink:href="#DejaVuSans-28"/>
      <use xlink:href="#DejaVuSans-30" x="39.013672"/>
      <use xlink:href="#DejaVuSans-2e" x="102.636719"/>
      <use xlink:href="#DejaVuSans-32" x="134.423828"/>
      <use xlink:href="#DejaVuSans-2c" x="198.046875"/>
      <use xlink:href="#DejaVuSans-20" x="229.833984"/>
      <use xlink:href="#DejaVuSans-30" x="261.621094"/>
      <use xlink:href="#DejaVuSans-2e" x="325.244141"/>
      <use xlink:href="#DejaVuSans-35" x="357.03125"/>
      <use xlink:href="#DejaVuSans-29" x="420.654297"/>
     </g>
    </g>
    <g id="line2d_112">
     <path d="M 356.626791 65.513888 
L 358.126791 65.513888 
L 359.626791 65.513888 
" style="fill: none; stroke: #fdbe85; stroke-width: 1.5; stroke-linecap: square"/>
    </g>
    <g id="text_38">
     <!-- (0.2, 0.005) -->
     <g transform="translate(364.426791 67.613888)scale(0.06 -0.06)">
      <use xlink:href="#DejaVuSans-28"/>
      <use xlink:href="#DejaVuSans-30" x="39.013672"/>
      <use xlink:href="#DejaVuSans-2e" x="102.636719"/>
      <use xlink:href="#DejaVuSans-32" x="134.423828"/>
      <use xlink:href="#DejaVuSans-2c" x="198.046875"/>
      <use xlink:href="#DejaVuSans-20" x="229.833984"/>
      <use xlink:href="#DejaVuSans-30" x="261.621094"/>
      <use xlink:href="#DejaVuSans-2e" x="325.244141"/>
      <use xlink:href="#DejaVuSans-30" x="357.03125"/>
      <use xlink:href="#DejaVuSans-30" x="420.654297"/>
      <use xlink:href="#DejaVuSans-35" x="484.277344"/>
      <use xlink:href="#DejaVuSans-29" x="547.900391"/>
     </g>
    </g>
    <g id="line2d_113">
     <path d="M 356.626791 74.320763 
L 358.126791 74.320763 
L 359.626791 74.320763 
" style="fill: none; stroke: #fd8d3c; stroke-width: 1.5; stroke-linecap: square"/>
    </g>
    <g id="text_39">
     <!-- (0.2, 0.05) -->
     <g transform="translate(364.426791 76.420763)scale(0.06 -0.06)">
      <use xlink:href="#DejaVuSans-28"/>
      <use xlink:href="#DejaVuSans-30" x="39.013672"/>
      <use xlink:href="#DejaVuSans-2e" x="102.636719"/>
      <use xlink:href="#DejaVuSans-32" x="134.423828"/>
      <use xlink:href="#DejaVuSans-2c" x="198.046875"/>
      <use xlink:href="#DejaVuSans-20" x="229.833984"/>
      <use xlink:href="#DejaVuSans-30" x="261.621094"/>
      <use xlink:href="#DejaVuSans-2e" x="325.244141"/>
      <use xlink:href="#DejaVuSans-30" x="357.03125"/>
      <use xlink:href="#DejaVuSans-35" x="420.654297"/>
      <use xlink:href="#DejaVuSans-29" x="484.277344"/>
     </g>
    </g>
    <g id="line2d_114">
     <path d="M 356.626791 83.127638 
L 358.126791 83.127638 
L 359.626791 83.127638 
" style="fill: none; stroke: #d94701; stroke-width: 1.5; stroke-linecap: square"/>
    </g>
    <g id="text_40">
     <!-- (0.2, 0.5) -->
     <g transform="translate(364.426791 85.227638)scale(0.06 -0.06)">
      <use xlink:href="#DejaVuSans-28"/>
      <use xlink:href="#DejaVuSans-30" x="39.013672"/>
      <use xlink:href="#DejaVuSans-2e" x="102.636719"/>
      <use xlink:href="#DejaVuSans-32" x="134.423828"/>
      <use xlink:href="#DejaVuSans-2c" x="198.046875"/>
      <use xlink:href="#DejaVuSans-20" x="229.833984"/>
      <use xlink:href="#DejaVuSans-30" x="261.621094"/>
      <use xlink:href="#DejaVuSans-2e" x="325.244141"/>
      <use xlink:href="#DejaVuSans-35" x="357.03125"/>
      <use xlink:href="#DejaVuSans-29" x="420.654297"/>
     </g>
    </g>
   </g>
  </g>
  <g id="text_41">
   <!-- A -->
   <g transform="translate(6.62375 11.2075)scale(0.08 -0.08)">
    <defs>
     <path id="DejaVuSans-41" d="M 2188 4044 
L 1331 1722 
L 3047 1722 
L 2188 4044 
z
M 1831 4666 
L 2547 4666 
L 4325 0 
L 3669 0 
L 3244 1197 
L 1141 1197 
L 716 0 
L 50 0 
L 1831 4666 
z
" transform="scale(0.015625)"/>
    </defs>
    <use xlink:href="#DejaVuSans-41"/>
   </g>
  </g>
  <g id="text_42">
   <!-- B -->
   <g transform="translate(161.055625 11.2075)scale(0.08 -0.08)">
    <use xlink:href="#DejaVuSans-42"/>
   </g>
  </g>
  <g id="text_43">
   <!-- C -->
   <g transform="translate(301.406875 11.2075)scale(0.08 -0.08)">
    <defs>
     <path id="DejaVuSans-43" d="M 4122 4306 
L 4122 3641 
Q 3803 3938 3442 4084 
Q 3081 4231 2675 4231 
Q 1875 4231 1450 3742 
Q 1025 3253 1025 2328 
Q 1025 1406 1450 917 
Q 1875 428 2675 428 
Q 3081 428 3442 575 
Q 3803 722 4122 1019 
L 4122 359 
Q 3791 134 3420 21 
Q 3050 -91 2638 -91 
Q 1578 -91 968 557 
Q 359 1206 359 2328 
Q 359 3453 968 4101 
Q 1578 4750 2638 4750 
Q 3056 4750 3426 4639 
Q 3797 4528 4122 4306 
z
" transform="scale(0.015625)"/>
    </defs>
    <use xlink:href="#DejaVuSans-43"/>
   </g>
  </g>
 </g>
 <defs>
  <clipPath id="p74a81b07c9">
   <rect x="46.127798" y="22.56" width="105.973209" height="121.24"/>
  </clipPath>
  <clipPath id="pce1cc63d23">
   <rect x="198.677295" y="22.56" width="105.973209" height="121.24"/>
  </clipPath>
  <clipPath id="pe708ff8209">
   <rect x="351.226791" y="22.56" width="105.973209" height="121.24"/>
  </clipPath>
 </defs>
</svg>
